<svg width="24" height="24" viewBox="0 0 24 24" fill="none" xmlns="http://www.w3.org/2000/svg">
<path fill-rule="evenodd" clip-rule="evenodd" d="M20.4 11.9999C20.4 12.2386 20.3052 12.4675 20.1364 12.6363C19.9676 12.805 19.7387 12.8999 19.5 12.8999H6.73441L11.724 17.6519C11.8132 17.7328 11.8853 17.8308 11.9359 17.9401C11.9866 18.0494 12.0148 18.1677 12.0188 18.2881C12.0229 18.4085 12.0028 18.5284 11.9596 18.6409C11.9165 18.7533 11.8512 18.856 11.7676 18.9428C11.6841 19.0295 11.584 19.0986 11.4732 19.146C11.3625 19.1933 11.2433 19.218 11.1229 19.2185C11.0025 19.2189 10.8831 19.1952 10.772 19.1488C10.6609 19.1023 10.5602 19.034 10.476 18.9479L3.87601 12.6479C3.78891 12.5639 3.71962 12.4633 3.6723 12.3519C3.62498 12.2406 3.60059 12.1208 3.60059 11.9999C3.60059 11.8789 3.62498 11.7591 3.6723 11.6478C3.71962 11.5365 3.78891 11.4358 3.87601 11.3519L10.476 5.05186C10.5602 4.96576 10.6609 4.89745 10.772 4.85097C10.8831 4.80449 11.0025 4.78078 11.1229 4.78126C11.2433 4.78173 11.3625 4.80638 11.4732 4.85374C11.584 4.9011 11.6841 4.97021 11.7676 5.05697C11.8512 5.14373 11.9165 5.24638 11.9596 5.35884C12.0028 5.47129 12.0229 5.59126 12.0188 5.71164C12.0148 5.83202 11.9866 5.95036 11.9359 6.05964C11.8853 6.16893 11.8132 6.26694 11.724 6.34786L6.73441 11.0999H19.5C19.7387 11.0999 19.9676 11.1947 20.1364 11.3635C20.3052 11.5322 20.4 11.7612 20.4 11.9999Z" fill="#97ABDF"/>
</svg>
