<svg width="30" height="30" viewBox="0 0 36 36" fill="none" xmlns="http://www.w3.org/2000/svg">
<path d="M29.7999 9.74067C28.222 7.48917 26.0346 5.73451 23.4945 4.68267C24.9182 7.18765 25.929 9.90569 26.4879 12.7323C27.7314 11.9014 28.8471 10.8936 29.7999 9.74067ZM23.9877 14.0841C23.3782 10.3266 21.89 6.7662 19.6443 3.69267C18.5522 3.56859 17.4495 3.56859 16.3575 3.69267C14.1117 6.7662 12.6235 10.3266 12.0141 14.0841C13.9073 14.8887 15.9437 15.302 18.0009 15.2991C20.1249 15.2991 22.1481 14.8671 23.9877 14.0841ZM11.7261 16.8759C13.734 17.6214 15.859 18.0017 18.0009 17.9991C20.2077 17.9991 22.3209 17.6031 24.2757 16.8759C24.3821 19.1497 24.1694 21.4272 23.6439 23.6421C21.7949 24.0803 19.901 24.3008 18.0009 24.2991C16.0587 24.2991 14.1705 24.0705 12.3597 23.6403C11.8336 21.4261 11.6204 19.1492 11.7261 16.8759ZM9.51386 12.7323C10.073 9.90632 11.0837 7.18891 12.5073 4.68447C9.96709 5.73631 7.7797 7.49097 6.20186 9.74247C7.15406 10.8909 8.27006 11.9025 9.51386 12.7323ZM31.2021 12.2355C32.2195 14.5631 32.6009 17.1192 32.3073 19.6425C30.5482 20.9267 28.6241 21.9681 26.5869 22.7385C27.0008 20.3989 27.1061 18.0152 26.9001 15.6483C28.4995 14.7364 29.9502 13.5855 31.2021 12.2355ZM4.79966 12.2355C6.05149 13.5855 7.50222 14.7364 9.10166 15.6483C8.89755 18.0158 9.00284 20.3999 9.41486 22.7403C7.37768 21.9698 5.45358 20.9285 3.69446 19.6443C3.40138 17.1208 3.78339 14.5648 4.80146 12.2373L4.79966 12.2355ZM18.0009 26.9991C19.6173 26.9991 21.2013 26.8569 22.7403 26.5851C21.9698 28.6222 20.9285 30.5463 19.6443 32.3055C18.5522 32.4294 17.4496 32.4294 16.3575 32.3055C15.0732 30.5464 14.0318 28.6223 13.2615 26.5851C14.8005 26.8569 16.3845 26.9991 18.0009 26.9991ZM25.8435 25.8417C25.2658 27.7472 24.478 29.5824 23.4945 31.3137C25.2479 30.5876 26.841 29.5231 28.183 28.1812C29.5249 26.8392 30.5893 25.2461 31.3155 23.4927C29.6001 24.4683 27.7677 25.2585 25.8435 25.8417ZM12.5073 31.3137C10.7539 30.5876 9.1607 29.5231 7.81876 28.1812C6.47681 26.8392 5.41238 25.2461 4.68626 23.4927C6.40166 24.4683 8.23406 25.2585 10.1583 25.8417C10.7359 27.7472 11.5237 29.5824 12.5073 31.3137Z" fill="#97ABDF"/>
</svg>
