<svg width="16" height="16" viewBox="0 0 16 16" fill="none" xmlns="http://www.w3.org/2000/svg">
<path d="M14.555 3.41195C13.6784 2.16111 12.4632 1.1863 11.052 0.601947C11.843 1.9936 12.4045 3.50362 12.715 5.07395C13.4059 4.61233 14.0257 4.05244 14.555 3.41195ZM11.326 5.82495C10.9874 3.73747 10.1607 1.75946 8.91302 0.051947C8.3063 -0.0169901 7.69373 -0.0169901 7.08702 0.051947C5.83938 1.75946 5.01261 3.73747 4.67402 5.82495C5.72582 6.27195 6.85717 6.50156 8.00002 6.49995C9.18002 6.49995 10.304 6.25995 11.326 5.82495ZM4.51402 7.37595C5.62953 7.7901 6.81011 8.00143 8.00002 7.99995C9.22602 7.99995 10.4 7.77995 11.486 7.37595C11.5451 8.63919 11.427 9.90449 11.135 11.1349C10.1078 11.3784 9.05567 11.5009 8.00002 11.4999C6.92102 11.4999 5.87202 11.3729 4.86602 11.1339C4.57378 9.90386 4.45529 8.63891 4.51402 7.37595ZM3.28502 5.07395C3.59564 3.50397 4.15717 1.9943 4.94802 0.602947C3.53681 1.1873 2.32159 2.16211 1.44502 3.41295C1.97402 4.05095 2.59402 4.61295 3.28502 5.07395ZM15.334 4.79795C15.8993 6.0911 16.1112 7.51111 15.948 8.91295C14.9707 9.62642 13.9018 10.205 12.77 10.6329C13 9.3332 13.0585 8.00891 12.944 6.69395C13.8326 6.18734 14.6385 5.54797 15.334 4.79795ZM0.666019 4.79795C1.36148 5.54798 2.16744 6.18735 3.05602 6.69395C2.94262 8.00926 3.00112 9.33375 3.23002 10.6339C2.09825 10.2059 1.0293 9.6274 0.0520188 8.91395C-0.110804 7.51202 0.101422 6.092 0.667019 4.79895L0.666019 4.79795ZM8.00002 12.9999C8.89802 12.9999 9.77802 12.9209 10.633 12.7699C10.205 13.9017 9.62646 14.9707 8.91302 15.9479C8.3063 16.0168 7.69374 16.0168 7.08702 15.9479C6.37355 14.9707 5.79501 13.9017 5.36702 12.7699C6.22202 12.9209 7.10202 12.9999 8.00002 12.9999ZM12.357 12.3569C12.0361 13.4155 11.5984 14.4352 11.052 15.3969C12.0261 14.9935 12.9112 14.4022 13.6567 13.6567C14.4023 12.9111 14.9936 12.0261 15.397 11.0519C14.444 11.5939 13.426 12.0329 12.357 12.3569ZM4.94802 15.3969C3.97391 14.9935 3.08882 14.4022 2.34329 13.6567C1.59777 12.9111 1.00642 12.0261 0.603019 11.0519C1.55602 11.5939 2.57402 12.0329 3.64302 12.3569C3.96392 13.4155 4.40161 14.4352 4.94802 15.3969Z" fill="white"/>
</svg>
