<svg width="20" height="20" viewBox="0 0 20 20" fill="none" xmlns="http://www.w3.org/2000/svg">
<circle cx="10" cy="10" r="10" fill="#97ABDF"/>
<path d="M9.96179 16.1334C8.20379 16.1334 6.5178 15.435 5.2747 14.1919C4.03161 12.9488 3.33325 11.2628 3.33325 9.50484C3.33325 6.81914 4.8761 4.41115 7.26494 3.37144C7.34914 3.33475 7.44243 3.32427 7.53266 3.34136C7.6229 3.35845 7.70589 3.40233 7.77083 3.46727C7.83577 3.53221 7.87965 3.6152 7.89674 3.70544C7.91383 3.79567 7.90335 3.88896 7.86665 3.97316C7.59237 4.60287 7.44751 5.40943 7.44751 6.30486C7.44751 9.4557 10.0109 12.0191 13.1618 12.0191C14.0572 12.0191 14.8638 11.8743 15.4935 11.6C15.5777 11.5633 15.671 11.5528 15.7612 11.5699C15.8514 11.587 15.9344 11.6309 15.9994 11.6958C16.0643 11.7607 16.1082 11.8437 16.1253 11.934C16.1424 12.0242 16.1319 12.1175 16.0952 12.2017C15.0555 14.5905 12.6475 16.1334 9.96179 16.1334Z" fill="#1F2733"/>
</svg>
