<svg width="20" height="20" viewBox="0 0 20 20" fill="none" xmlns="http://www.w3.org/2000/svg">
<circle cx="10" cy="10" r="10" fill="#97ABDF"/>
<path d="M10 3C10.174 3 10.341 3.06914 10.464 3.19221C10.5871 3.31528 10.6562 3.4822 10.6562 3.65625V4.96875C10.6562 5.1428 10.5871 5.30972 10.464 5.43279C10.341 5.55586 10.174 5.625 10 5.625C9.82595 5.625 9.65903 5.55586 9.53596 5.43279C9.41289 5.30972 9.34375 5.1428 9.34375 4.96875V3.65625C9.34375 3.4822 9.41289 3.31528 9.53596 3.19221C9.65903 3.06914 9.82595 3 10 3ZM10 14.375C10.174 14.375 10.341 14.4441 10.464 14.5672C10.5871 14.6903 10.6562 14.8572 10.6562 15.0312V16.3438C10.6562 16.5178 10.5871 16.6847 10.464 16.8078C10.341 16.9309 10.174 17 10 17C9.82595 17 9.65903 16.9309 9.53596 16.8078C9.41289 16.6847 9.34375 16.5178 9.34375 16.3438V15.0312C9.34375 14.8572 9.41289 14.6903 9.53596 14.5672C9.65903 14.4441 9.82595 14.375 10 14.375ZM10 7.375C9.30381 7.375 8.63613 7.65156 8.14384 8.14384C7.65156 8.63613 7.375 9.30381 7.375 10C7.375 10.6962 7.65156 11.3639 8.14384 11.8562C8.63613 12.3484 9.30381 12.625 10 12.625C10.6962 12.625 11.3639 12.3484 11.8562 11.8562C12.3484 11.3639 12.625 10.6962 12.625 10C12.625 9.30381 12.3484 8.63613 11.8562 8.14384C11.3639 7.65156 10.6962 7.375 10 7.375ZM14.9499 5.9785C15.0144 5.91842 15.0661 5.84597 15.1019 5.76547C15.1378 5.68497 15.1571 5.59807 15.1586 5.50996C15.1602 5.42184 15.144 5.33432 15.111 5.2526C15.078 5.17089 15.0289 5.09666 14.9665 5.03434C14.9042 4.97203 14.83 4.9229 14.7483 4.88989C14.6666 4.85689 14.579 4.84068 14.4909 4.84223C14.4028 4.84379 14.3159 4.86307 14.2354 4.89894C14.1549 4.93481 14.0825 4.98652 14.0224 5.051L13.094 5.9785C12.9781 6.1029 12.915 6.26744 12.918 6.43746C12.921 6.60747 12.9898 6.76968 13.1101 6.88992C13.2303 7.01016 13.3925 7.07903 13.5625 7.08203C13.7326 7.08503 13.8971 7.02192 14.0215 6.906L14.9499 5.9785ZM6.906 14.0215C6.97048 13.9614 7.02219 13.889 7.05806 13.8085C7.09393 13.728 7.11321 13.6411 7.11477 13.553C7.11632 13.4648 7.10011 13.3773 7.06711 13.2956C7.0341 13.2139 6.98498 13.1397 6.92266 13.0773C6.86034 13.015 6.78611 12.9659 6.7044 12.9329C6.62268 12.8999 6.53516 12.8837 6.44704 12.8852C6.35893 12.8868 6.27203 12.9061 6.19153 12.9419C6.11103 12.9778 6.03858 13.0295 5.9785 13.094L5.051 14.0215C4.93508 14.1459 4.87197 14.3104 4.87497 14.4805C4.87797 14.6505 4.94684 14.8127 5.06708 14.9329C5.18732 15.0532 5.34953 15.122 5.51954 15.125C5.68956 15.128 5.8541 15.0649 5.9785 14.949L6.906 14.0215ZM17 10C17 10.174 16.9309 10.341 16.8078 10.464C16.6847 10.5871 16.5178 10.6562 16.3438 10.6562H15.0312C14.8572 10.6562 14.6903 10.5871 14.5672 10.464C14.4441 10.341 14.375 10.174 14.375 10C14.375 9.82595 14.4441 9.65903 14.5672 9.53596C14.6903 9.41289 14.8572 9.34375 15.0312 9.34375H16.3438C16.5178 9.34375 16.6847 9.41289 16.8078 9.53596C16.9309 9.65903 17 9.82595 17 10ZM5.625 10C5.625 10.174 5.55586 10.341 5.43279 10.464C5.30972 10.5871 5.1428 10.6562 4.96875 10.6562H3.65625C3.4822 10.6562 3.31528 10.5871 3.19221 10.464C3.06914 10.341 3 10.174 3 10C3 9.82595 3.06914 9.65903 3.19221 9.53596C3.31528 9.41289 3.4822 9.34375 3.65625 9.34375H4.96875C5.1428 9.34375 5.30972 9.41289 5.43279 9.53596C5.55586 9.65903 5.625 9.82595 5.625 10ZM14.0215 14.9499C14.1459 15.0658 14.3104 15.1289 14.4805 15.1259C14.6505 15.1229 14.8127 15.054 14.9329 14.9338C15.0532 14.8136 15.122 14.6513 15.125 14.4813C15.128 14.3113 15.0649 14.1468 14.949 14.0224L14.0215 13.094C13.9614 13.0295 13.889 12.9778 13.8085 12.9419C13.728 12.9061 13.6411 12.8868 13.553 12.8852C13.4648 12.8837 13.3773 12.8999 13.2956 12.9329C13.2139 12.9659 13.1397 13.015 13.0773 13.0773C13.015 13.1397 12.9659 13.2139 12.9329 13.2956C12.8999 13.3773 12.8837 13.4648 12.8852 13.553C12.8868 13.6411 12.9061 13.728 12.9419 13.8085C12.9778 13.889 13.0295 13.9614 13.094 14.0215L14.0215 14.9499ZM5.9785 6.906C6.1029 7.02192 6.26744 7.08503 6.43746 7.08203C6.60747 7.07903 6.76968 7.01016 6.88992 6.88992C7.01016 6.76968 7.07903 6.60747 7.08203 6.43746C7.08503 6.26744 7.02192 6.1029 6.906 5.9785L5.9785 5.051C5.91799 4.98829 5.8456 4.93827 5.76555 4.90383C5.6855 4.8694 5.5994 4.85126 5.51226 4.85046C5.42513 4.84966 5.33871 4.86623 5.25804 4.89919C5.17738 4.93215 5.10408 4.98084 5.04244 5.04243C4.98079 5.10402 4.93203 5.17726 4.89899 5.2579C4.86596 5.33853 4.84931 5.42494 4.85003 5.51208C4.85074 5.59921 4.86881 5.68533 4.90316 5.76541C4.93752 5.8455 4.98748 5.91793 5.05012 5.9785L5.9785 6.906Z" fill="white"/>
</svg>
