<svg width="286" height="163" viewBox="0 0 286 163" fill="none" xmlns="http://www.w3.org/2000/svg">
<mask id="mask0_1127_3115" style="mask-type:alpha" maskUnits="userSpaceOnUse" x="0" y="0" width="280" height="154">
<path d="M0 20C0 8.9543 8.95431 0 20 0H260C271.046 0 280 8.95431 280 20V134C280 145.046 271.046 154 260 154H20C8.95431 154 0 145.046 0 134V20Z" fill="white"/>
</mask>
<g mask="url(#mask0_1127_3115)">
<g opacity="0.5">
<path d="M243.649 44.1459C234.859 48.2724 233.838 59.0118 231.961 67.4403C231.465 70.3185 226.297 76.2608 227.597 75.6934C228.041 75.5283 257.926 63.4066 262.496 61.5187C263.074 61.1576 265.147 60.9306 262.496 60.1363C261.128 59.3371 259.958 58.2406 259.071 56.9279C253.985 50.9753 253.377 40.8343 243.649 44.1459ZM233.26 63.8502C233.952 55.597 240.698 38.3687 250.798 47.2098C253.892 50.6349 255.543 59.7339 260.165 61.0338C257.369 61.9932 232.858 71.5565 229.846 73.0214C231.637 70.249 232.803 67.1192 233.26 63.8502ZM263.631 73.6095C258.823 75.6727 227.649 88.5889 226.101 89.3316C225.658 96.2436 225.823 120.92 226.596 120.446C229.113 119.476 259.762 103.063 260.01 102.568C259.979 101.35 264.704 72.8048 263.631 73.6095ZM260.67 75.3736C260.257 77.8082 257.028 102.433 257.028 102.433C257.028 102.433 255.233 103.372 252.438 104.775C252.737 97.9768 253.954 80.2429 254.068 78.1384L260.67 75.3736ZM253.789 78.2518C253.377 81.8626 252.108 103.527 252.108 104.971C249.869 106.127 247.043 107.571 244.01 109.098C244.01 106.116 244.144 84.3385 244.01 82.2752C247.239 80.9031 250.509 79.5723 253.789 78.2209V78.2518ZM243.711 82.3784C243.597 84.1941 243.453 107.963 243.432 109.345L235.912 113.132C235.829 106.199 235.447 87.9802 235.334 85.8241L243.711 82.3784ZM226.318 89.4967C228.67 88.6611 234.447 86.1748 235.024 85.9272C234.942 89.7443 235.416 111.873 235.437 113.338C232.208 114.968 229.113 116.495 226.596 117.712C226.318 110.573 226.38 89.5173 226.318 89.4967ZM306.236 120.332C309.413 121.055 308.505 124.201 309.031 125.222C309.97 124.593 309.939 120.549 312.26 120.58C313.478 119.476 308.866 121.302 309.64 115.081C309.805 114.308 309 114.05 309.165 115.36C309.194 116.525 308.89 117.674 308.289 118.671C307.432 120.198 305.462 119.59 306.236 120.332ZM309.196 118.094C309.206 118.619 309.386 119.126 309.71 119.54C310.034 119.953 310.484 120.249 310.991 120.384C309.96 120.807 309.475 122.519 309.33 123.015C309.303 122.429 309.126 121.86 308.818 121.362C308.509 120.864 308.078 120.453 307.566 120.167C308.005 120.008 308.39 119.73 308.678 119.363C308.966 118.997 309.145 118.557 309.196 118.094ZM281.209 70.7002C285.542 71.3914 284.603 74.6308 284.933 75.291C286.037 75.4561 284.82 71.1645 289.245 70.7312C289.658 70.7312 289.802 70.6487 289.637 70.3185C289.276 69.9575 285.098 70.5868 285.593 65.5627C285.593 65.3976 285.325 65.2532 285.16 65.5627C285.119 71.639 279.961 69.4829 281.209 70.7002ZM285.263 68.3481C285.483 68.8676 285.811 69.3343 286.226 69.7168C286.64 70.0993 287.131 70.3889 287.667 70.5661C287.127 70.7229 286.631 71.0003 286.214 71.3774C285.798 71.7546 285.473 72.2215 285.263 72.7429C285.084 72.2123 284.779 71.7328 284.375 71.345C283.971 70.9571 283.48 70.6722 282.942 70.5145C283.473 70.3622 283.959 70.0865 284.363 69.7099C284.766 69.3334 285.075 68.8667 285.263 68.3481ZM211.875 17.7772C217.343 17.4471 215.362 22.9354 216.569 21.6561C216.569 21.2332 216.745 17.6946 220.087 17.5296C220.912 16.0647 216.435 18.9945 216.074 12C215.826 12 215.826 12.0825 215.795 12.8356C215.383 18.4477 210.576 16.6733 211.875 17.7772ZM215.878 14.8783C215.988 15.5061 216.28 16.0876 216.719 16.5501C217.157 17.0125 217.722 17.3353 218.343 17.478C217.459 17.9115 216.754 18.6417 216.353 19.5413C216.164 18.9897 215.831 18.4987 215.388 18.1195C214.946 17.7402 214.409 17.4867 213.835 17.3852C214.345 17.1558 214.793 16.809 215.142 16.3733C215.492 15.9376 215.733 15.4253 215.847 14.8783H215.878ZM149.557 64.6755C153.074 64.985 152.734 66.9141 153.538 68.5235C154.312 66.388 154.952 65.0881 157.324 64.8405C157.902 63.6541 153.487 65.6143 153.755 60.1156C153.095 59.2078 153.404 60.8894 153.291 61.7766C153.255 62.1432 153.146 62.4987 152.968 62.8215C152.791 63.1443 152.55 63.4276 152.259 63.6541C151.217 64.5929 148.566 63.7883 149.557 64.6755ZM153.569 62.6122C153.751 63.1045 154.045 63.5475 154.428 63.9057C154.812 64.264 155.274 64.5276 155.777 64.6755C154.807 65.0839 154.026 65.8426 153.59 66.8006C153.42 66.2764 153.133 65.7977 152.75 65.4009C152.368 65.0041 151.9 64.6996 151.382 64.5104C151.87 64.3936 152.322 64.1623 152.703 63.8358C153.083 63.5093 153.38 63.0969 153.569 62.6328V62.6122ZM313.89 167.489C315.19 160.938 296.24 160.752 297.56 167.107C295.992 174.803 315.634 174.885 313.89 167.489ZM298.23 165.312C300.294 161.33 315.613 162.743 313.065 166.942C310.362 170.181 296.735 169.16 298.23 165.353V165.312ZM313.374 169.284C312.013 174.442 295.992 173.513 297.9 166.715C300.583 170.367 311.548 169.892 313.57 166.993C313.619 167.776 313.553 168.561 313.374 169.325V169.284ZM247.981 181.57C245.66 177.444 235.602 177.98 232.92 180.075C231.259 181.106 231.404 185.233 232.693 186.605C236.427 189.7 243.587 189.225 246.651 187.348C248.652 185.996 248.157 183.809 247.981 181.57ZM232.507 181.292C234.571 177.32 249.89 178.723 247.352 182.922C244.587 186.13 230.97 185.109 232.507 181.292ZM247.682 185.274C246.186 190.432 230.3 189.504 232.208 182.705C234.89 186.347 245.856 185.883 247.878 182.953C247.87 183.733 247.787 184.51 247.631 185.274H247.682Z" fill="#97ABDF"/>
<path d="M300.469 157.533C302.532 157.224 303.172 152.499 302.893 151.034C306.38 150.229 312.425 148.496 310.63 143.709C310.28 141.718 309.362 140.418 307.041 140.336C309.197 140.068 309.527 137.932 309.723 135.859C310.331 129.669 302.501 131.051 299.056 128.792C302.398 127.523 300.882 123.819 299.861 121.271C298.695 119.528 296.044 119.208 294.053 119.394C292.753 115.329 290.824 113.864 286.563 114.834C286.976 109.81 279.848 108.726 276.124 109.861C275.523 108.949 274.701 108.204 273.734 107.697C272.766 107.189 271.686 106.937 270.594 106.962C270.068 103.95 266.23 103.197 264.601 102.98C264.766 101.949 269.243 68.8536 269.655 66.0063C271.584 55.9169 264.9 54.9472 261 50.7793C257.493 46.137 254.594 40.2773 251.778 39.6995C251.633 39.6376 251.334 39.4726 250.86 39.2559C234.199 31.1473 208.482 23.3687 192.11 20.377C189.768 20.7523 187.452 21.2795 185.178 21.9554C170.529 27.7635 175.563 39.5654 168.321 44.2594C162.359 48.0145 163.566 52.1617 163.844 56.7732C164.814 68.3688 168.373 94.201 168.6 95.3564C164.474 96.1508 164.205 99.4108 165.505 102.32C161.967 101.288 156.633 102.32 155.303 106.189C155.189 106.488 155.303 106.622 154.808 106.57C151.187 106.797 145.688 108.427 147.153 112.956C142.284 112.874 133.804 117.877 137.786 122.984C133.969 123.675 129.657 126.306 131.597 130.535C128.502 131.773 124.716 137.055 126.82 139.645C120.27 139.294 115.235 143.018 119.692 148.991C116.515 152.664 120.239 158.524 124.994 157.75C126.408 166.674 135.94 166.178 140.767 161.319C144.584 163.641 151.218 164.517 154.013 161.484C156.138 163.826 160.636 164.466 162.988 162.031C167.352 164.466 175.367 163.28 177.668 159.38C178.937 163.445 186.478 163.506 189.273 162.227C186.426 165.126 188.438 168.365 191.336 170.295C194.431 171.987 198.826 170.687 201.838 168.912C201.9 169.446 202.12 169.948 202.469 170.356C202.818 170.764 203.281 171.059 203.798 171.202C201.735 172.286 201.539 173.503 201.735 175.989C201.456 183.562 221.573 183.087 218.591 174.39C221.769 178.806 237.16 177.753 234.973 170.79C237.196 172.042 239.781 172.493 242.297 172.069C242.132 175.247 246.775 175.793 249.178 175.381C246.31 183.923 258.607 184.304 263.528 181.87C265.426 180.838 265.209 179.084 265.209 177.062C265.57 173.555 259.432 173.008 257.245 172.812C259.432 171.481 257.854 168.386 257.72 166.044C259.845 170.934 268.665 170.171 271.956 167.396C274.741 172.42 285.542 170.903 288.09 166.818C289.194 165.487 287.946 160.515 286.924 159.432C287.938 158.688 288.802 157.761 289.472 156.698C291.125 157.654 292.972 158.226 294.875 158.37C296.779 158.515 298.691 158.229 300.469 157.533ZM302.532 151.199C303.172 155.676 292.474 154.459 290.71 153.324C292.144 148.249 288.802 144.349 284.026 144.431C287.502 141.718 283.665 139.841 287.285 139.789C285.903 145.288 290.133 147.609 294.795 147.774C295.27 151.56 299.551 151.694 302.512 151.116C302.528 151.141 302.536 151.17 302.532 151.199ZM282.251 158.905C275.102 160.071 276.34 151.859 279.105 148.269C280.931 145.752 286.017 142.657 287.667 146.887C289.132 151.529 286.976 157.451 282.251 158.905ZM271.038 162.918C270.202 166.065 261.691 166.013 259.69 165.188C257.813 164.827 256.595 163.125 257.627 161.402C260.526 157.09 270.501 155.872 273.101 159.597C271.946 160.185 270.728 161.484 271.038 162.918ZM256.998 158.792C257.766 159.009 258.554 159.151 259.35 159.215C258.61 159.658 257.954 160.227 257.41 160.896C257.399 160.159 257.259 159.43 256.998 158.74V158.792ZM256.616 168.685C254.625 170.573 251.798 171.254 248.931 171.512C245 172.224 239.481 170.016 243.649 166.591C246.775 163.971 260.701 162.444 256.616 168.634V168.685ZM249.23 164.125C239.399 166.282 244.072 168.83 238.181 167.912C233.178 167.808 231.662 164.817 236.025 162.609C239.254 160.649 249.642 160.02 249.23 164.074V164.125ZM217.704 169.717C217.704 174.638 219.066 172.11 215.073 170.872C217.921 167.478 215.187 164.187 219.004 162.743C222.728 163.579 223.13 163.083 226.132 161.371C227.102 161.557 228.371 165.374 227.164 165.57C224.255 165.353 217.209 166.313 217.704 169.665V169.717ZM211.267 170.181C213.784 168.19 215.548 163.94 213.33 160.948C217.302 162.557 217.034 167.581 214.681 170.759C213.566 170.439 212.423 170.228 211.267 170.13V170.181ZM204.046 159.235C206.364 157.693 208.037 155.355 208.75 152.664C208.966 154.985 211.535 156.471 213.908 155.872C215.435 155.614 215.651 154.376 217.147 155.315C216.642 156.534 216.56 157.887 216.914 159.159C217.267 160.43 218.035 161.546 219.097 162.33C218.063 162.702 217.198 163.435 216.662 164.394C216.58 162.599 215.228 161.381 213.464 160.556C212.302 159.615 210.838 159.128 209.344 159.183C207.849 159.238 206.425 159.832 205.335 160.855C204.927 160.284 204.479 159.743 203.994 159.235H204.046ZM195.514 160.071C194.761 159.235 193.709 158.575 192.77 157.523C199.073 160.071 206.955 154.067 206.893 147.299C212.288 153.747 202.313 162.836 195.463 160.02L195.514 160.071ZM180.556 126.079C184.683 124.562 186.395 122.592 184.899 118.259C185.912 119.08 187.186 119.511 188.489 119.476C190.068 119.889 188.273 121.653 187.798 122.705C186.766 124.892 187.881 126.244 189.098 128.09C185.539 130.473 181.103 128.833 180.505 126.027L180.556 126.079ZM168.713 137.932C167.187 142.967 152.548 140.202 154.642 134.538C157.19 138.665 166.578 139.294 169.085 136.055C169.044 136.447 168.879 137.189 168.713 137.932ZM185.126 139.707C185.817 145.257 178.71 149.29 173.779 147.114C173.779 146.588 172.747 146.392 172.458 145.649C177.616 148.269 185.611 141.801 183.538 136.993C184.022 137.633 184.487 138.819 185.126 139.707ZM174.655 157.832C171.561 159.896 161.028 160.401 161.719 156.254C162.771 151.23 183.073 152.076 174.655 157.832ZM161.492 158.864C162.441 160.927 157.985 160.525 156.747 160.102C154.013 158.998 154.446 159.39 154.364 156.429C153.487 154.077 150.33 154.583 152.043 151.539C155.004 148.723 160.296 152.262 161.853 154.913C160.915 155.986 161.245 157.389 161.492 158.885V158.864ZM151.434 159.328C147.916 160.473 137.425 157.698 139.664 153.933C142.263 149.683 161.142 156.285 151.434 159.349V159.328ZM138.972 154.108C138.508 155.408 138.704 157.203 138.261 158.668C134.939 161.185 126.212 162.795 125.376 158.255C124.912 153.469 140.303 149.404 138.972 154.129V154.108ZM137.26 146.856C137.043 145.391 137.786 142.884 136.228 141.636C136.791 141.34 137.326 140.995 137.827 140.604C138.075 144.277 140.118 146.711 143.738 146.794C143.647 147.746 143.274 148.65 142.667 149.39C142.06 150.129 141.247 150.672 140.33 150.947C139.414 151.223 138.436 151.219 137.522 150.937C136.608 150.655 135.798 150.107 135.197 149.363C136.156 148.826 137.239 147.991 137.26 146.856ZM130.379 141.966C129.633 141.512 128.913 141.016 128.223 140.48C132.566 141.11 137.755 138.623 139.416 134.342C140.963 134.486 141.789 133.207 142.727 135.116C140.767 136.034 137.838 137.519 137.786 140.15C135.775 141.45 132.731 143.08 130.379 141.966ZM132.783 132.134C132.261 131.313 131.862 130.419 131.597 129.483C135.135 133.434 144.584 130.886 146.761 127.42C148.618 129.132 148.453 128.72 147.04 130.515C143.563 134.476 136.125 135.147 132.731 132.134H132.783ZM161.833 123.128C159.893 125.191 156.468 126.161 153.58 126.357C144.017 126.801 143.687 120.972 151.919 118.537C155.396 117.021 167.084 118.094 161.833 123.128ZM146.493 125.191C151.465 128.647 161.08 126.295 163.483 121.519C166.805 130.226 145.853 132.052 146.493 125.191ZM174.346 114.741C172.489 113.307 175.893 112.678 176.719 111.646C177.853 114.132 181.144 114.741 183.682 114.328C183.424 115.024 183.424 115.789 183.682 116.484C181.093 114.504 177.554 114.617 174.377 114.72L174.346 114.741ZM168.868 112.502C168.547 112.112 168.176 111.765 167.764 111.471C175.481 113.214 175.584 108.128 178.08 109.149C177.698 109.972 177.157 110.712 176.488 111.325C175.819 111.938 175.035 112.413 174.182 112.723C173.329 113.033 172.423 113.171 171.516 113.129C170.61 113.088 169.72 112.868 168.899 112.482L168.868 112.502ZM161.936 113.307C158.48 113.111 155.499 112.698 155.55 108.5C157.16 111.099 160.708 111.182 163.535 110.872C166 110.604 165.309 109.737 167.465 111.677C165.817 112.712 163.913 113.269 161.967 113.286L161.936 113.307ZM165.165 99.9575C169.755 104.084 173.933 99.0703 175.646 101.588C172.964 104.301 165.031 105.074 165.196 99.9369L165.165 99.9575ZM167.517 103.806C169.513 104.193 171.575 104.069 173.51 103.444C172.076 105.683 174.367 107.87 176.44 108.726C171.561 114.143 160.946 110.831 167.517 103.806ZM189.376 110.47C190.645 111.357 191.945 112.213 193.214 113.07C190.841 113.926 188.056 116.082 188.623 119.012C186.086 119.198 183.156 117.207 184.012 114.277C185.111 114.029 186.149 113.565 187.067 112.911C187.984 112.257 188.763 111.428 189.356 110.47H189.376ZM220.128 131.278C221.861 131.526 224.575 129.287 226.421 128.678C228.164 136.22 218.168 139.067 215.868 132.186C216.768 131.581 217.482 130.738 217.931 129.751C218.643 130.277 219.386 130.783 220.128 131.278ZM258.669 109.81C262.125 110.934 266.746 111.625 269.862 109.17C269.284 115.277 260.278 112.894 256.905 111.017C257.524 110.635 258.101 110.222 258.679 109.81H258.669ZM275.525 114.7C274.865 118.826 266.829 117.929 264.508 116.103C264.693 115.525 264.972 114.638 265.25 113.781C268.459 115.133 273.287 115.556 275.752 112.925C275.732 113.369 275.649 114.029 275.536 114.7H275.525ZM280.064 120.528C287.977 121.9 285.563 125.687 279.26 126.192C276.299 126.718 265.632 124.81 271.44 121.302C274.179 120.198 277.183 119.928 280.075 120.528H280.064ZM286.254 126.275C286.35 127.433 286.621 128.571 287.058 129.648C285.759 130.535 285.924 132.268 285.975 133.898C283.468 133.713 281.199 131.969 279.569 130.092C279.569 130.783 280.704 131.691 281.312 132.299C280.869 132.846 277.413 134.26 277.186 132.939C277.042 131.969 277.186 131.216 276.99 130.112C279.971 130.195 285.387 129.927 285.552 126.223C285.777 126.264 286.005 126.281 286.233 126.275H286.254ZM301.924 132.464C302.223 136.416 300.046 137.375 296.621 137.798C292.392 138.18 285.48 137.963 286.305 132.217C288.915 135.89 299.881 135.394 301.903 132.495L301.924 132.464ZM301.759 140.718C299.407 141.048 297.23 142.647 295.157 143.812C291.67 144.225 285.037 140.718 289.07 137.365C290.095 137.743 291.162 137.996 292.247 138.118C295.806 138.953 300.253 136.292 301.738 140.728L301.759 140.718ZM294.713 147.32C290.236 147.155 286.46 145.05 287.492 140.191C288.379 143.121 292.196 144.256 295.043 144.318C294.187 145.442 294.403 146.041 294.692 147.33L294.713 147.32ZM285.233 141.048C285.48 146.299 270.305 150.859 269.759 143.895C273.565 146.381 283.654 142.234 284.562 138.737C284.874 139.481 285.093 140.26 285.212 141.058L285.233 141.048ZM276.526 153.623C276.309 153.984 276.804 155.222 276.309 155.532C275.7 155.604 275.084 155.486 274.545 155.195C274.005 154.903 273.569 154.451 273.297 153.902C274.509 153.323 275.53 152.409 276.239 151.268C276.949 150.128 277.316 148.808 277.3 147.464C278.179 147.253 279.047 146.994 279.899 146.691C277.981 148.53 276.778 150.99 276.505 153.634L276.526 153.623ZM272.987 153.623C269.48 155.037 266.88 153.788 264.539 150.972C265.335 151.676 266.294 152.171 267.329 152.41C268.365 152.65 269.444 152.627 270.468 152.345C271.493 152.062 272.431 151.528 273.197 150.791C273.963 150.054 274.532 149.138 274.855 148.125C275.02 147.403 276.206 147.846 276.918 147.547C276.919 148.835 276.546 150.096 275.845 151.176C275.144 152.257 274.144 153.11 272.967 153.634L272.987 153.623ZM249.333 155.026C245.991 158.204 242.009 158.214 238.14 156.058C242.205 156.945 246.393 153.871 248.673 150.559C249.704 148.187 250.003 149.528 252.18 149.641C251.813 151.696 250.81 153.583 249.312 155.037L249.333 155.026ZM233.085 165.26C233.085 165.26 233.034 165.26 233.085 165.425C231.95 164.456 231.754 162.826 231.754 161.134C233.59 161.792 235.572 161.928 237.48 161.526C235.798 162.093 233.292 163.032 233.065 165.271L233.085 165.26ZM229.629 163.929C230.589 166.962 232.466 166.075 227.979 165.559C228.195 164.528 227.731 161.309 226.153 161.051C229.567 157.894 226.772 158.307 229.887 160.257C229.357 161.412 229.258 162.718 229.609 163.94L229.629 163.929ZM217.807 160.587C217.332 159.807 217.038 158.93 216.947 158.021C216.856 157.112 216.97 156.195 217.281 155.336C221.284 156.491 226.101 155.996 229.464 153.273C229.753 158.771 221.975 166.725 217.787 160.597L217.807 160.587ZM208.935 151.55C208.853 148.733 207.904 147.815 209.575 145.195C210.986 145.251 212.393 145.018 213.709 144.508C215.026 143.999 216.224 143.225 217.23 142.234C220.685 148.341 212.072 144.174 214.351 151.828C214.661 152.767 214.403 153.984 215.569 154.562C212.814 156.729 208.502 155.109 208.915 151.56L208.935 151.55ZM208.213 144.421C207.341 143.936 206.579 143.276 205.975 142.482C210.4 144.947 217.838 140.057 217.116 135.436C221.872 140.594 213.134 146.299 208.162 144.617C208.224 144.566 208.255 144.483 208.193 144.431L208.213 144.421ZM192.451 140.666C192.163 139.897 191.922 139.112 191.728 138.314C194.823 141.491 205.686 139.81 206.79 136.57C208.915 143.245 194.576 144.039 192.451 140.666ZM195.545 133.589C198.939 131.959 210.71 132.733 205.242 137.819C194.689 142.554 186.313 136.539 195.545 133.599V133.589ZM200.27 129.143C201.299 129.567 202.407 129.77 203.52 129.736C204.633 129.702 205.726 129.433 206.728 128.947C206.822 129.603 207.072 130.226 207.459 130.765C207.845 131.304 208.355 131.742 208.946 132.041C208.383 132.122 207.845 132.33 207.375 132.65C206.905 132.97 206.514 133.394 206.233 133.888C204.169 132.258 200.982 132.207 198.362 132.506C198.922 132.138 199.387 131.642 199.719 131.059C200.051 130.476 200.24 129.823 200.27 129.153V129.143ZM215.682 132.32C215.889 133.109 216.266 133.843 216.787 134.47C217.308 135.098 217.961 135.603 218.699 135.95C219.437 136.298 220.242 136.479 221.058 136.481C221.873 136.483 222.68 136.305 223.419 135.962C225.555 134.579 225.193 134.693 226.875 136.127C232.27 142.017 223.533 144.38 219.53 141.213C217.591 140.47 219.2 139.335 218.973 137.819C217.838 136.024 216.518 133.063 213.701 133.094C214.4 132.952 215.069 132.694 215.682 132.33V132.32ZM226.596 132.619C228.918 135.384 229.97 132.372 231.27 136.653C231.732 137.72 232.514 138.618 233.508 139.222C234.973 143.348 227.793 143.451 227.979 141.605C230.197 139.201 227.711 135.962 225.359 134.61C225.896 134.037 226.316 133.364 226.596 132.63V132.619ZM233.9 129.524C235.2 130.69 237.686 130.05 238.676 130.742C241.029 134.806 249.096 134.28 252.087 133.176C252.046 133.613 252.141 134.051 252.359 134.432C252.577 134.812 252.907 135.116 253.305 135.301C252.854 135.484 252.47 135.799 252.201 136.204C251.932 136.608 251.792 137.085 251.798 137.571C251.499 137.427 251.138 137.839 251.107 137.014C248.848 132.836 237.903 133.279 235.633 135.982C235.272 136.622 235.076 136.674 234.251 136.539C227.071 135.889 232.683 128.121 233.9 129.504V129.524ZM242.411 124.531C244.474 123.365 257.524 124.387 253.511 128.503C247.6 132.547 232.105 127.822 242.411 124.511V124.531ZM249.343 117.898C247.28 118.837 246.775 121.519 247.28 123.675C246.326 123.589 245.366 123.589 244.412 123.675C244.226 120.033 246.424 118.104 249.343 117.877V117.898ZM254.171 119.311C254.171 118.919 254.171 117.815 255.306 118.455C256.997 119.011 258.785 119.208 260.557 119.033C259.649 120.58 261.165 122.602 262.321 123.737C255.203 125.996 256.699 121.746 254.171 119.311ZM285.233 124.335C285.563 128.183 283.376 129.287 279.93 129.669C275.618 130.092 268.789 129.731 269.614 124.088C272.255 127.709 283.221 127.255 285.212 124.335H285.233ZM281.529 132.495C282.192 133.016 282.929 133.433 283.716 133.733C282.767 134.577 281.643 135.2 280.425 135.556C279.207 135.913 277.924 135.995 276.67 135.797C277.09 135.108 277.264 134.297 277.165 133.496C277.915 133.712 278.707 133.733 279.467 133.558C280.226 133.383 280.929 133.017 281.508 132.495H281.529ZM282.086 136.725C290.339 139.345 272.358 146.701 269.975 143.462C267.799 139.149 279.827 136.137 282.024 136.725H282.086ZM269.789 144.731C270.254 146.887 272.214 148.022 274.535 147.826C274.233 148.887 273.649 149.846 272.845 150.601C272.041 151.357 271.047 151.88 269.97 152.115C268.892 152.35 267.77 152.288 266.725 151.936C265.68 151.584 264.749 150.955 264.033 150.116C266.251 149.26 266.096 146.392 266.437 144.256C267.46 144.76 268.638 144.852 269.728 144.514C269.735 144.587 269.749 144.66 269.769 144.731H269.789ZM264.632 145.814C263.721 146.558 262.647 147.076 261.497 147.325C260.348 147.574 259.156 147.548 258.019 147.248C261.475 140.759 256.307 139.129 252.19 137.241C252.203 136.961 252.278 136.687 252.41 136.44C252.541 136.193 252.727 135.979 252.952 135.812C253.178 135.646 253.438 135.533 253.713 135.48C253.988 135.427 254.271 135.437 254.542 135.508C254.46 140.119 262.641 140.315 265.488 139.923C266.051 140.856 266.271 141.956 266.109 143.034C265.947 144.111 265.413 145.098 264.601 145.824L264.632 145.814ZM238.697 156.615C241.482 160.742 230.444 158.998 229.299 156.398C229.668 155.353 229.836 154.247 229.794 153.138C233.126 153.108 235.943 154.603 238.697 156.615ZM230.517 151.457C228.453 147.258 235.819 141.543 238.635 144.968C236.51 147.372 234.303 151.158 235.901 154.335C229.836 151.56 229.258 154.438 230.527 151.447L230.517 151.457ZM227.422 150.425C223.966 152.489 215.6 152.726 214.516 149.796C213.309 143.627 236.19 144.235 227.401 150.394L227.422 150.425ZM229.712 147.722C228.763 143.843 220.427 145.267 218.251 145.731C218.407 144.931 218.358 144.104 218.106 143.328C220.262 145.04 223.945 145.865 226.359 144.101C227.721 145.133 230.589 145.7 231.837 143.885C231.992 144.124 232.204 144.32 232.455 144.456C232.705 144.591 232.986 144.661 233.271 144.658C231.767 145.575 230.596 146.949 229.929 148.579C229.836 148.331 229.815 148.156 229.691 147.691L229.712 147.722ZM218.065 141.11C218.148 140.975 218.23 140.81 218.313 140.645C220.603 142.801 224.698 143.957 227.597 141.966C225.637 147.031 215.466 143.761 218.065 141.11ZM235.004 140.006C235.004 142.306 237.769 143.41 239.842 143.823C239.424 144.169 239.024 144.537 238.646 144.927C238.264 142.688 235.004 143.513 233.488 144.462C229.898 143.874 235.056 141.636 233.9 139.304C234.23 139.634 235.138 139.18 235.004 140.006ZM231.992 143.245C230.826 144.958 228.402 145.123 226.514 143.905C226.964 143.36 227.354 142.769 227.68 142.141C228.371 142.644 229.182 142.954 230.032 143.041C230.882 143.128 231.739 142.988 232.518 142.636C232.357 142.851 232.181 143.055 231.992 143.245ZM237.15 155.13C233.642 151.89 237.366 146.443 240.1 143.936C240.956 144.019 242.287 144.235 243.422 144.235C244.113 146.67 246.795 148.022 249.085 148.909C247.218 153.046 241.049 157.471 237.16 155.109L237.15 155.13ZM238.006 142.936C235.324 141.667 235.272 141.192 235.241 138.128C237.923 141.78 248.889 141.306 250.911 138.376C251.943 145.04 241.792 144.349 238.016 142.936H238.006ZM249.219 135.559C256.08 140.862 236.675 141.615 235.54 137.767C235.004 132.991 247.352 134.26 249.23 135.559H249.219ZM251.283 137.881C254.625 137.829 259.711 140.975 258.659 144.318C256.533 147.413 249.591 146.01 247.579 143.771C251.076 142.801 251.386 141.419 251.252 137.881H251.283ZM265.519 139.511C261.392 139.964 253.965 139.872 254.8 133.981C257.483 137.633 268.448 137.158 270.47 134.229C270.811 137.798 268.686 139.16 265.519 139.511ZM265.302 130.442C273.204 131.866 270.8 135.601 264.497 136.116C261.537 136.663 250.87 134.734 256.678 131.216C259.408 130.105 262.408 129.836 265.292 130.442H265.302ZM270.656 136.632C270.763 136.075 270.811 135.508 270.8 134.94C273.039 135.497 275.886 134.672 276.794 132.289C277.702 136.416 273.751 137.901 270.47 137.447C270.604 137.189 270.675 136.903 270.677 136.612L270.656 136.632ZM276.681 131.02C276.959 133.589 272.368 135.91 270.8 134.28C271.151 131.02 267.149 130.381 264.611 129.916C264.941 129.091 264.25 128.173 264.301 127.286C265.054 125.047 267.592 126.79 269.387 126.625C269.616 127.208 269.971 127.732 270.425 128.162C270.88 128.591 271.424 128.916 272.018 129.112C274.102 130.35 276.753 129.318 276.67 131L276.681 131.02ZM256.399 123.799C258.308 125.346 260.907 124.294 262.867 124.211C263.669 124.878 264.562 125.427 265.519 125.841C265.159 125.912 264.826 126.081 264.558 126.331C264.29 126.581 264.098 126.901 264.002 127.255C262.424 125.037 259.216 124.934 256.678 125.955C256.648 125.225 256.552 124.5 256.389 123.788L256.399 123.799ZM269.325 126.223C263.713 126.502 257.08 119.002 262.692 118.568C263.383 121.333 266.416 123.18 269.263 123.85C269.23 124.642 269.251 125.434 269.325 126.223ZM256.234 125.718C256.987 129.535 253.222 132.299 255.296 130.876C255.833 130.217 256.231 129.455 256.465 128.638C256.699 127.82 256.765 126.964 256.657 126.12C259.639 124.985 264.662 125.707 264.198 129.823C260.495 129.493 253.531 129.689 254.439 135.136C254.161 135.149 253.882 135.105 253.621 135.007C253.36 134.909 253.122 134.759 252.92 134.566C252.718 134.373 252.558 134.141 252.449 133.885C252.339 133.628 252.283 133.352 252.283 133.073C252.944 132.809 253.539 132.404 254.027 131.887C255.058 130.339 254.749 128.678 254.604 126.729C253.779 124.82 251.159 124.325 249.106 123.881C245.929 124.18 247.476 119.435 249.106 118.352C253.346 116.33 256.234 122.437 256.234 125.718ZM239.605 128.812C243.804 131.082 251.675 131.165 254.419 128.121C256.183 136.086 236.479 135.002 238.883 128.121C239.109 128.381 239.365 128.613 239.646 128.812H239.605ZM235.045 136.942C234.955 137.602 234.906 138.267 234.901 138.933C234.901 139.129 235.014 139.211 234.519 139.149C232.58 138.984 231.889 137.354 231.063 135.673C232.204 136.575 233.635 137.026 235.087 136.942H235.045ZM207.079 136.055C207.295 135.425 206.253 134.425 206.522 133.795C206.853 133.357 207.28 132.999 207.769 132.749C208.259 132.499 208.799 132.363 209.348 132.351C210.308 132.351 211.411 133.29 212.546 133.156C210.426 133.571 208.513 134.704 207.13 136.364C207.1 136.264 207.096 136.157 207.12 136.055H207.079ZM207.079 139.789C207.216 138.762 207.216 137.721 207.079 136.694C208.905 134.848 211.587 132.991 214.485 133.599C219.489 135.064 215.043 140.924 212.03 142.059C210.596 143.09 204.809 143.359 205.614 141.285C206.254 140.93 206.791 140.414 207.171 139.789H207.079ZM214.97 153.603C214.847 152.587 214.654 151.58 214.393 150.59C217.766 153.912 227.958 152.53 229.567 148.434C232.848 155.707 217.983 157.172 214.97 153.603ZM228.268 158.524C228.636 157.927 228.95 157.299 229.206 156.646C230.454 158.002 232.093 158.935 233.896 159.316C235.699 159.697 237.575 159.507 239.264 158.771C239.254 163.3 229.836 161.041 228.288 158.524H228.268ZM238.883 160.814C239.914 159.937 239.739 158.41 239.295 156.925C240.055 157.37 240.904 157.641 241.782 157.719C241.856 158.3 242.051 158.86 242.355 159.361C242.659 159.862 243.064 160.294 243.546 160.628C241.669 160.552 239.793 160.793 237.996 161.34C238.318 161.201 238.623 161.024 238.903 160.814H238.883ZM251.262 149.105C248.415 148.496 245.072 147.042 243.638 144.204C244.742 144.431 246.29 143.606 247.455 144.039C249.849 146.815 255.976 147.341 258.555 144.978C257.266 149.517 255.502 149.652 251.303 149.105H251.262ZM257.844 147.495C260.711 148.383 264.477 147.495 265.993 144.566C266.127 150.869 260.495 152.004 256.152 149.352C256.554 149.18 256.916 148.926 257.214 148.607C257.512 148.287 257.741 147.908 257.885 147.495H257.844ZM285.336 140.068C284.449 133.238 273.699 137.272 270.749 139.954C267.376 142.575 270.749 144.081 268.84 144.401C264.642 144.844 267.592 141.997 265.88 139.841C269.81 139.428 269.449 137.468 271.038 137.777C275.267 138.19 275.236 135.714 277.692 136.23C278.856 136.311 280.025 136.145 281.12 135.741C282.216 135.337 283.213 134.706 284.046 133.888C284.49 134.301 286.109 133.775 286.037 134.848C286.268 135.423 286.623 135.94 287.078 136.361C287.533 136.782 288.076 137.097 288.668 137.282C287.636 137.509 287.781 139.16 287.12 139.469C286.489 139.471 285.876 139.681 285.377 140.068H285.336ZM269.253 123.479C267.757 123.479 261.712 119.724 263.259 118.321C264.229 118.022 263.951 117.382 264.394 116.257C266.457 118.156 269.697 117.774 272.131 118.104C272.799 119.015 273.78 119.647 274.886 119.878C272.668 120.24 269.253 121.189 269.294 123.479H269.253ZM256.657 111.182C258.978 112.874 261.991 113.245 264.807 113.565C262.744 117.268 255.605 115.329 252.954 113.565L256.657 111.182ZM252.696 113.781C255.543 116.051 261.98 117.072 264.528 114.813C264.054 121.116 253.057 118.651 250.88 114.927C251.499 114.555 252.108 114.174 252.737 113.781H252.696ZM250.633 115.081C251.464 116.459 252.742 117.511 254.254 118.063C254.127 118.202 254.03 118.364 253.968 118.542C253.906 118.719 253.88 118.907 253.893 119.094C251.489 116.66 246.486 116.918 244.67 120.229C243.473 121.859 245.083 123.964 242.607 123.964C242.609 123.349 242.469 122.742 242.197 122.19C241.925 121.639 241.528 121.158 241.039 120.786C244.34 119.002 247.548 117.072 250.695 115.081H250.633ZM240.853 120.941C245.299 125.996 237.954 123.128 238.419 127.874C237.446 127.797 236.506 127.485 235.68 126.966C234.853 126.447 234.165 125.735 233.673 124.892C236.056 123.675 238.511 122.323 240.915 120.941H240.853ZM238.48 130.03C237.014 130.228 235.522 129.972 234.207 129.294C232.891 128.617 231.816 127.552 231.125 126.244C231.899 125.862 232.673 125.449 233.446 125.026C233.927 125.948 234.638 126.73 235.508 127.297C236.379 127.864 237.381 128.198 238.419 128.266C238.419 128.266 238.305 129.906 238.542 130.03H238.48ZM230.929 126.357C231.43 127.433 232.193 128.366 233.147 129.07C232.302 129.568 231.594 130.268 231.086 131.107C230.578 131.946 230.287 132.898 230.238 133.878C229.578 133.96 226.37 133.29 226.731 131.99C227.453 130.7 226.235 129.07 227.061 128.317C228.381 127.709 229.64 127.079 230.991 126.357H230.929ZM214.3 132.547C213.146 132.959 211.884 132.959 210.73 132.547C211.934 132.553 213.112 132.199 214.112 131.53C215.112 130.86 215.889 129.907 216.342 128.792C218.973 129.731 215.806 132.041 214.362 132.578L214.3 132.547ZM211.288 132.134C210.274 132.202 209.27 131.905 208.458 131.295C207.646 130.685 207.08 129.804 206.862 128.812C207.671 128.366 208.374 127.749 208.923 127.004C209.471 126.26 209.852 125.406 210.039 124.5C211.618 125.945 215.043 127.182 215.868 128.812C215.474 129.718 214.849 130.504 214.056 131.092C213.263 131.681 212.33 132.051 211.349 132.165L211.288 132.134ZM206.728 128.451C205.456 129.209 203.972 129.531 202.5 129.367C201.029 129.203 199.652 128.563 198.578 127.544C201.941 129.37 208.079 126.821 208.275 123.314C211.267 124.366 208.471 127.461 206.79 128.482L206.728 128.451ZM189.872 128.596C189.533 128.06 189.165 127.543 188.768 127.048C191.14 128.286 195.06 128.482 197.082 126.244C197.495 126.739 197.825 127.152 198.547 127.905C197.378 128.931 195.91 129.554 194.359 129.684C192.809 129.814 191.258 129.444 189.933 128.627L189.872 128.596ZM189.232 121.127C190.594 127.048 196.453 123.84 196.886 125.914C192.76 129.586 184.229 126.625 189.18 120.962C189.201 121.036 189.24 121.103 189.294 121.158L189.232 121.127ZM208.028 123.128C207.285 127.585 198.743 129.648 197.01 125.191C198.496 125.061 199.925 124.563 201.17 123.742C202.414 122.92 203.435 121.802 204.139 120.487C208.636 123.53 208.028 123.046 208.028 123.128ZM203.2 121.302C200.105 125.614 190.377 126.914 189.376 120.343C192.832 123.242 198.444 121.374 201.652 118.764C202.426 119.507 204.582 119.951 203.2 121.323V121.302ZM193.08 121.302C185.941 120.848 189.273 114.225 193.658 113.338C196.237 115.081 198.661 116.742 201.26 118.496C198.972 120.406 196.059 121.406 193.08 121.302ZM184.899 121.993C182.413 127.688 169.425 127.574 169.044 121.302C172.603 125.222 183.795 124.118 184.796 119.177C184.95 120.108 184.984 121.054 184.899 121.993ZM168.879 129.215C166.815 129.153 160.471 126.863 164.319 125.284C165.305 125.721 166.389 125.891 167.461 125.775C168.533 125.659 169.556 125.262 170.426 124.624C171.538 125.471 172.836 126.04 174.212 126.285C173.706 128.565 171.086 129.566 168.879 129.235V129.215ZM175.532 115.143C186.261 114.112 187.612 121.859 177.358 123.242C167.383 124.088 165.536 116.144 175.532 115.164V115.143ZM168.652 121.529C168.826 122.651 169.371 123.682 170.199 124.459C169.287 125.004 168.262 125.332 167.203 125.418C166.144 125.504 165.08 125.345 164.092 124.954C164.505 124.149 164.092 123.046 163.906 121.859C164.679 122.123 165.495 122.232 166.31 122.178C167.124 122.125 167.92 121.912 168.652 121.55V121.529ZM165.309 137.643C161.853 137.891 152.156 136.312 155.561 131.557C160.296 127.688 176.368 134.538 165.309 137.664V137.643ZM162.359 130.226C156.272 129.782 154.178 129.844 154.178 136.168C153.667 135.526 152.972 135.055 152.187 134.817C150.124 132.434 151.001 130.535 153.817 129.751C155.643 130.03 157.737 129.256 159.615 128.978C161.376 129.245 163.072 129.836 164.618 130.721C163.877 130.507 163.122 130.341 162.359 130.226ZM172.417 146.144C172.603 146.423 173.273 146.722 173.603 147.33C170.426 150.539 160.306 151.199 160.636 145.174C164.783 148.383 168.879 146.949 172.417 146.144ZM170.508 152.499C167.795 152.664 164.505 152.777 162.183 154.624C161.936 153.933 160.698 153.221 160.502 152.385C160.642 151.759 160.964 151.188 161.426 150.742C161.888 150.296 162.471 149.996 163.102 149.879C165.165 149.765 167.352 150.57 169.539 149.879C169.559 150.836 169.901 151.759 170.508 152.499ZM154.921 150.178C152.858 149.848 150.609 151.643 151.434 153.933C149.249 152.966 146.915 152.38 144.533 152.2C144.862 151.169 145.462 150.246 146.271 149.527C147.079 148.808 148.066 148.32 149.128 148.113C150.19 147.906 151.288 147.989 152.307 148.352C153.326 148.715 154.229 149.346 154.921 150.178ZM155.53 150.229C153.466 148.579 153.931 147.083 156.685 146.227C157.717 147.196 159.976 146.443 160.636 147.258C160.832 148.424 162.049 149.053 163.215 149.497C162.476 149.607 161.791 149.946 161.254 150.466C160.718 150.986 160.357 151.661 160.223 152.396C158.871 151.283 157.254 150.536 155.53 150.229ZM160.296 143.689C160.203 144.631 160.266 145.583 160.481 146.505C159.249 146.642 158.004 146.423 156.893 145.875C155.781 145.327 154.85 144.471 154.209 143.41C155.736 141.76 155.457 139.985 154.849 137.746C156.005 138.859 157.382 139.717 158.891 140.264C160.399 140.812 162.006 141.036 163.607 140.924C162.871 141.079 162.185 141.412 161.607 141.894C161.03 142.376 160.58 142.992 160.296 143.689ZM142.521 146.257C141.386 146.072 140.349 145.504 139.58 144.649C138.811 143.793 138.356 142.702 138.292 141.553C141.747 145.896 153.435 143.616 154.797 139.098C156.169 145.319 146.967 147.093 142.511 146.257H142.521ZM142.965 135.002C142.8 134.786 142.583 134.486 142.139 133.971C144.708 133.249 147.555 131.649 148.608 128.936C149.947 129.366 151.332 129.636 152.734 129.741C152.236 129.9 151.79 130.191 151.445 130.583C151.1 130.976 150.869 131.455 150.775 131.97C150.682 132.484 150.731 133.014 150.916 133.503C151.101 133.992 151.416 134.421 151.826 134.744C148.919 133.867 145.806 133.958 142.954 135.002H142.965ZM144.378 135.002C147.38 134.332 151.785 133.785 153.827 136.632C156.695 142.079 146.111 143.792 143.016 143.297C134.165 141.997 139.241 136.086 144.368 134.951L144.378 135.002ZM134.98 149.445C135.495 150.137 136.176 150.686 136.961 151.042C137.747 151.397 138.609 151.548 139.468 151.479C140.327 151.41 141.155 151.123 141.873 150.647C142.591 150.17 143.176 149.519 143.573 148.754C144.265 148.001 143.573 146.598 144.842 146.815C148.216 146.68 151.723 146.206 154.044 143.586C154.542 144.562 155.299 145.383 156.231 145.958C155.624 146.14 155.078 146.482 154.649 146.949C154.221 147.416 153.926 147.989 153.797 148.61C148.711 145.762 146.09 148.919 143.852 152.148C143.109 152.014 142.346 152.037 141.613 152.215C140.879 152.392 140.191 152.721 139.591 153.18C137.384 150.467 134.867 152.85 134.537 150.632C134.506 150.26 133.918 149.683 134.97 149.435L134.98 149.445ZM134.206 150.58C134.318 150.988 134.466 151.385 134.65 151.766C134.196 151.814 133.745 151.887 133.299 151.983C133.712 151.595 134.021 151.109 134.196 150.57L134.206 150.58ZM176.925 154.995C176.265 152.643 172.974 152.643 170.849 152.509C168.033 148.589 172.479 149.909 173.944 147.506C175.091 147.967 176.327 148.165 177.561 148.085C178.794 148.005 179.994 147.648 181.072 147.042C181.072 147.568 182.423 148.919 181.598 149.445C180.444 149.947 179.422 150.708 178.61 151.668C177.797 152.629 177.217 153.764 176.915 154.985L176.925 154.995ZM183.465 137.571C184.373 144.452 171.746 149.507 170.673 142.275C170.426 136.632 182.031 132.021 183.465 137.571ZM171.86 145.587C170.404 146.319 168.804 146.719 167.175 146.756C165.546 146.794 163.929 146.468 162.441 145.804C156.056 142.575 167.94 139.789 170.447 140.728C169.704 143.028 170.735 144.122 171.86 145.535V145.587ZM169.58 134.703C168.775 131.443 161.812 128.926 159.708 128.73C160.851 128.227 161.898 127.529 162.802 126.667C164.236 129.297 169.209 129.927 171.396 129.462C171.822 130.674 172.602 131.73 173.634 132.495C173.129 134.043 171.22 135.446 169.58 134.703ZM171.571 129.452C172.302 129.27 172.969 128.891 173.5 128.356C174.031 127.821 174.406 127.151 174.583 126.419C176.486 126.761 178.443 126.655 180.298 126.11C180.381 127.554 181.743 128.678 183.146 129.204C184.002 129.483 183.146 131.03 182.784 131.722C179.793 135.508 173.325 133.537 171.561 129.452H171.571ZM189.304 128.42C191.017 130.484 194.699 130.597 197.072 129.524C198.537 129.019 198.589 127.698 199.95 128.967C199.868 131.845 197.815 132.784 195.03 133.31C193.4 133.857 192.316 134.775 190.387 134.548C186.808 134.208 185.9 129.586 189.294 128.379L189.304 128.42ZM188.799 134.476C189.832 134.961 190.998 135.084 192.11 134.827C190.46 136.436 191.336 139.119 192.368 141.017C187.21 142.121 185.621 138.087 188.242 134.084C188.417 134.229 188.603 134.373 188.799 134.476ZM190.986 141.605C191.667 141.77 192.451 140.934 193.049 141.739C196.773 143.895 201.58 143.204 205.232 141.46C205.424 142.142 205.763 142.773 206.227 143.308C206.691 143.843 207.267 144.269 207.914 144.555C208.017 144.947 208.822 145.05 209.431 145.164C208.565 146.083 208.098 147.307 208.131 148.568C204.871 141.574 197.877 142.956 193.482 147.042C193.07 147.434 193.131 147.712 192.451 147.382C189.655 146.856 187.932 140.862 190.986 141.615V141.605ZM196.979 145.143C209.276 140.501 208.75 152.571 200.208 156.491C188.149 161.299 188.417 149.208 196.979 145.154V145.143ZM218.065 169.16C218.767 164.507 234.839 165.126 234.406 169.573C233.312 174.081 217.405 173.678 218.065 169.16ZM231.889 166.426C229.97 165.724 229.175 162.299 230.032 160.37C232.683 161.123 230.362 164.187 233.044 165.848C233.044 166.096 233.126 166.478 233.209 167.004C232.787 166.796 232.353 166.613 231.909 166.457L231.889 166.426ZM244.433 160.711C243.809 160.498 243.258 160.111 242.847 159.595C242.436 159.08 242.181 158.457 242.112 157.802C243.025 158.009 243.977 157.981 244.876 157.719C244.618 159.411 248.095 161.371 244.453 160.711H244.433ZM246.393 160.02C246.036 159.743 245.739 159.396 245.521 159C245.302 158.605 245.167 158.169 245.124 157.719C247.451 157.121 249.482 155.699 250.839 153.716C250.988 154.689 251.443 155.589 252.139 156.285C250.97 156.452 249.852 156.873 248.863 157.519C247.874 158.164 247.038 159.017 246.413 160.02H246.393ZM251.066 153.386C251.808 152.251 252.287 150.964 252.469 149.621C253.439 149.961 255.069 149.125 256.152 149.621C257.223 150.399 258.486 150.872 259.805 150.988C261.124 151.105 262.45 150.86 263.641 150.281C263.961 156.677 252.551 160.845 251.076 153.386H251.066ZM264.074 150.9C264.625 151.662 265.266 152.355 265.983 152.963C261.856 156.368 266.953 155.924 259.659 159.019C258.029 158.772 256.433 158.336 254.904 157.719C258.689 158.42 263.641 155.202 264.095 150.9H264.074ZM264.074 156.594C264.105 156.827 264.16 157.055 264.239 157.275C262.579 157.544 263.29 157.801 264.126 156.594H264.074ZM273.163 159.462C269.377 154.098 262.661 160.123 264.652 154.624C264.962 154.211 265.818 152.561 266.54 153.355C267.479 153.979 268.556 154.365 269.677 154.48C270.798 154.595 271.931 154.435 272.977 154.015C273.269 154.671 273.775 155.209 274.412 155.541C275.049 155.872 275.78 155.978 276.485 155.841C276.618 156.731 277.001 157.564 277.588 158.245C276.048 158.256 274.539 158.676 273.214 159.462H273.163ZM310.393 144.514C311.941 150.374 294.857 154.356 294.919 147.114C298.478 149.879 308.897 146.423 310.063 143.049C310.166 143.379 310.3 143.854 310.445 144.514H310.393ZM309.475 143.214C307.102 147.557 292.124 149.796 295.249 144.679C297.498 140.975 311.053 138.603 309.527 143.214H309.475ZM309.145 136.859C309.062 140.779 305.163 140.511 301.924 140.233C301.647 139.601 301.221 139.046 300.682 138.617C300.142 138.187 299.506 137.895 298.829 137.767C299.376 137.767 300.098 136.89 300.841 137.241C303.657 138.077 307.03 138.077 309.32 135.951C309.31 136.251 309.248 136.539 309.197 136.859H309.145ZM308.289 132.877C311.91 137.22 303.533 137.664 300.83 136.828C302.574 135.508 302.574 132.516 301.707 130.442C304.111 130.638 306.628 131.113 308.34 132.877H308.289ZM301.46 130.814C302.873 135.673 288.224 134.796 286.759 132.33C284.242 127.1 300.407 127.791 301.511 130.834L301.46 130.814ZM300.521 125.037C301.491 127.409 299.056 129.297 296.518 128.214C293.375 127.546 290.098 127.976 287.234 129.431C286.906 128.556 286.664 127.651 286.512 126.729C290.463 129.101 298.726 127.853 300.108 123.273C300.273 123.737 300.407 124.315 300.593 125.057L300.521 125.037ZM298.53 120.642C304.049 126.11 289.462 129.421 286.481 126.244C289.627 126.079 294.734 123.211 294.104 119.724C295.637 119.598 297.173 119.917 298.53 120.642ZM293.64 119.507C295.126 123.004 288.224 126.326 285.511 125.862C285.612 124.828 285.557 123.785 285.346 122.767C288.276 122.767 292.062 121.106 293.052 118.094C293.196 118.424 293.372 118.888 293.671 119.507H293.64ZM288.111 115.081C297.343 115.824 290.174 122.406 285.098 122.375C284.325 121.343 282.726 120.828 281.364 120.415C289.576 118.733 284.356 114.782 288.142 115.081H288.111ZM286.151 114.421C287.781 122.21 273.771 120.611 272.193 117.877C273.225 117.877 274.019 116.711 275.205 117.237C279.218 118.042 284.603 117.898 286.151 114.421ZM277.196 110.078C291.639 109.696 285.924 119.61 274.989 116.66C276.175 115.824 276.423 111.79 276.175 110.16C276.528 110.2 276.885 110.172 277.227 110.078H277.196ZM271.811 107.654C274.659 108.066 277.671 111.058 274.741 113.297C271.976 114.896 268.438 114.535 265.395 113.431C269.872 113.317 269.686 111.079 270.553 107.488C271.007 107.592 271.399 107.592 271.811 107.654ZM268.49 104.724C274.679 110.583 262.548 111.11 259.071 109.562C261.227 107.767 264.766 106.859 264.518 103.537C265.918 103.622 267.279 104.036 268.49 104.744V104.724ZM263.878 105.497C248.074 117.382 221.583 130.484 220.489 130.979C220.489 131.639 219.633 86.4018 219.582 86.4637C219.53 86.5256 265.519 67.8014 269.047 66.388C268.387 71.3915 263.878 104.858 263.878 105.518V105.497ZM253.325 41.2676C254.759 42.5573 255.972 44.0733 256.915 45.7553C261.475 54.0084 263.765 52.9767 267.231 56.7216C268.239 57.9768 268.933 59.4542 269.256 61.0311C269.579 62.6081 269.521 64.2393 269.088 65.7897C268.975 65.7897 223.625 84.225 219.674 86.1852C216.58 75.0435 224.409 72.8358 226.339 66.0888C228.051 61.3124 228.546 56.3914 230.733 51.6459C235.602 41.6287 243.154 36.2436 253.325 41.2676ZM248.043 38.8123C239.667 37.6259 234.199 44.0943 230.888 50.4183C228.206 55.5042 227.793 60.9719 225.854 66.223C224.884 69.3798 222.594 71.67 220.696 74.3729C219.674 76.0752 219.018 77.972 218.772 79.942C218.525 81.9121 218.692 83.912 219.262 85.8138C216.084 83.6886 212.133 81.8935 208.843 79.985C206.914 69.1528 215.228 66.5737 218.127 59.2078C222.501 48.9533 223.543 34.0358 237.996 34.6961C240.224 35.3563 248.126 38.8949 248.043 38.8123ZM236.634 34.1184C223.223 33.8605 221.542 49.7787 217.456 59.2594C213.144 67.9149 206.46 70.04 208.471 79.8922C206.563 78.9224 198.774 74.734 198.475 74.6205C200.353 73.4032 201.508 67.8736 196.092 66.192C197.97 61.1267 203.633 58.0627 205.686 52.7807C210.246 41.0613 214.166 30.4561 225.286 30.0331C226.493 30.4148 233.539 32.9217 236.634 34.1184ZM213.309 115.391C213.309 115.391 206.903 111.182 205.985 110.604C205.985 104.053 205.934 87.0621 205.851 85.1226C207.202 85.8447 212.288 88.4445 213.475 88.9912C213.423 89.4142 213.309 114.999 213.309 115.391ZM205.542 110.325C203.726 109.026 198.63 106.498 198.578 105.879C198.279 99.1116 197.97 84.6583 197.887 80.377C199.765 81.6769 204.995 84.6583 205.624 85.0194C205.459 88.5579 205.542 109.026 205.542 110.325ZM195.679 74.6411C192.915 72.516 194.741 66.388 198.248 67.9767C201.147 69.7924 199.135 76.3124 195.679 74.6411ZM181.361 82.7911C180.402 83.5631 179.662 84.5734 179.215 85.7209C178.753 86.7214 178.48 87.7987 178.41 88.8984C178.02 89.2043 177.613 89.4901 177.193 89.7546C176.946 86.8764 175.202 68.3894 175.13 67.6157C175.635 67.9252 178.813 69.8543 179.917 70.4939C180.051 72.5572 180.711 82.5744 180.948 82.9871C181.691 82.7601 180.226 72.6707 180.205 70.6074C181.165 71.1645 182.104 71.7216 183.104 72.2168C183.187 74.1459 183.3 76.0854 183.403 78.0146C182.249 79.3438 181.536 80.9981 181.361 82.7498V82.7911ZM180.814 66.7904C180.475 66.4534 180.219 66.0424 180.065 65.5898C179.912 65.1371 179.865 64.655 179.929 64.1813C179.993 63.7076 180.166 63.2551 180.434 62.8594C180.702 62.4637 181.058 62.1354 181.474 61.9004C183.249 61.0751 186.147 62.2821 188.933 63.5304C192.306 65.0263 195.545 66.7594 196.814 67.234C193.915 67.9252 193.028 71.9073 194.751 74.2285C189.922 72.0926 185.263 69.5922 180.814 66.7491V66.7904ZM211.267 25.5248C215.6 26.7628 219.912 28.1142 224.172 29.5792C207.254 32.0448 209.389 52.3577 199.414 60.3633C197.918 62.0551 195.989 63.9018 196.01 66.1404C195.927 66.0888 186.901 61.8075 184.435 61.1163C183.403 61.1989 184.683 58.465 185.157 57.5159C187.416 53.7092 191.12 51.3261 193.338 47.5194C198.743 36.4705 198.052 28.0111 211.267 25.5248ZM210.411 25.2669C197.701 27.7841 197.361 37.7601 193.719 45.8997C190.295 52.6363 184.187 54.9472 183.579 61.0132C182.656 60.903 181.726 61.1476 180.978 61.6973C180.229 62.2471 179.717 63.0609 179.545 63.974C179.102 63.3653 172.83 60.7656 173.242 59.9403C172.912 48.747 178.957 50.346 182.527 43.5269C187.086 33.0764 188.603 25.4217 200.064 23.1314C202.591 22.5331 207.037 24.5757 210.411 25.2669ZM164.205 50.2223C165.051 45.6211 170.673 44.672 172.221 40.3598C174.15 35.769 174.655 30.5489 178.493 26.9485C182.165 22.8838 188.221 21.3673 193.224 21.0063C194.38 21.0888 199.765 22.4712 200.291 22.6156C186.065 25.4836 186.313 35.6039 181.722 43.9705C175.285 52.4815 172.85 49.5001 172.85 60.0538C171.138 59.0221 165.278 55.7209 164.092 55.0503C163.924 53.4427 163.962 51.8202 164.205 50.2223ZM164.205 55.4733C167.073 57.2168 179.04 64.1494 179.566 64.397C179.566 67.2237 182.186 67.8839 182.96 68.3791C182.991 69.4829 182.991 70.6177 182.991 71.7525C180.783 70.8447 169.095 62.932 169.838 64.8406C170.085 67.7498 172.737 89.4658 173.129 91.8695C174.016 92.3647 175.831 93.5511 176.223 93.7264V92.0861C176.223 92.0861 174.511 91.4568 174.511 91.0545C174.119 88.1246 171.88 68.0386 171.695 65.6349C172.221 65.9031 174.284 67.1205 174.79 67.4506C174.79 67.4506 176.646 88.2072 176.853 89.8062C176.716 89.8907 176.585 89.9837 176.461 90.0848C176.378 90.1673 176.461 90.2808 176.605 90.3117C178.349 90.6934 192.131 97.461 192.162 97.5332C192.193 97.6054 195.618 95.7691 196.288 95.3255C196.144 95.243 194.019 93.974 194.019 93.9431C192.44 97.4197 188.861 95.604 189.892 91.952C189.531 91.952 182.238 88.4135 181.639 88.0318C181.554 88.7335 181.427 89.4294 181.258 90.1157C179.896 92.179 177.688 89.9816 178.441 89.2285C178.487 89.4863 178.599 89.7274 178.768 89.9272C178.937 90.1269 179.157 90.2782 179.403 90.3653C179.65 90.4525 179.915 90.4724 180.172 90.4231C180.429 90.3738 180.669 90.257 180.866 90.0848C181.258 88.9809 181.34 87.1859 182.661 86.7422C182.31 89.2285 189.882 91.1886 189.882 88.8984C185.157 90.9616 180.876 86.2471 181.897 81.7388C182.423 78.1796 187.148 74.2801 190.15 76.5806C190.35 76.8537 190.469 77.1778 190.493 77.5155C190.516 77.8532 190.444 78.1908 190.284 78.4891C189.592 78.5959 188.931 78.8492 188.345 79.2319C185.394 80.6453 183.981 84.483 186.828 86.2574C187.272 86.5256 188.438 86.8041 188.345 86.2574C187.883 86.2136 187.435 86.0757 187.029 85.8521C186.623 85.6286 186.266 85.3241 185.982 84.9575C187.077 85.2062 188.076 85.766 188.859 86.5696C189.643 87.3731 190.177 88.3861 190.398 89.4864C191.006 91.5497 189.572 93.7161 190.955 95.0985C193.018 96.4293 194.215 93.4376 194.132 91.6219C194.38 87.0002 190.707 82.1411 186.395 81.4706C187.468 80.2654 188.87 79.401 190.429 78.9843C192.492 74.342 185.343 75.1466 183.548 77.7154C183.465 75.8688 183.135 69.7615 183.022 68.5957C186.764 70.9379 190.67 73.0065 194.71 74.7856C194.607 77.3028 195.04 92.8289 195.04 94.1804C195.153 94.2629 195.298 94.3248 195.401 94.4073C195.401 89.2491 195.04 76.3021 194.988 74.899C195.122 74.899 196.257 75.8585 197.34 75.3117C197.34 77.6019 197.505 88.2175 197.619 94.1288C197.433 96.3055 198.465 99.6893 196.402 98.6164C196.051 99.3592 197.815 99.2457 197.701 98.9672C197.701 99.3076 198.011 104.889 198.062 106.024C196.845 105.332 195.628 104.641 194.442 103.96C194.359 104.373 193.472 104.992 193.41 105.477C193.688 105.704 194.813 106.416 196.422 107.416C202.024 110.676 213.959 118.764 213.547 117.413C213.547 115.814 213.722 91.168 213.691 89.115C213.99 88.7024 212.587 88.2588 211.453 87.6294C206.728 85.1948 199.373 80.996 197.856 80.0882C197.639 79.7787 197.134 74.5586 198.104 74.8371C199.238 75.5283 217.642 85.4424 219.107 86.3812C219.107 86.3812 219.85 129.277 219.912 130.742C216.043 128.111 191.801 111.729 187.932 109.129C187.736 109.129 187.241 108.438 187.293 109.046C187.819 109.686 189.356 110.078 188.675 110.542C186.22 114.545 179.205 115.597 176.822 111.398C177.482 110.758 177.999 109.984 178.338 109.129C179.06 109.129 181.495 108.912 181.433 107.994C179.607 108.665 177.482 109.211 175.687 108.138C175.388 108.303 180.989 108.85 180.742 107.303C178.534 107.911 175.409 108.551 173.727 106.343C172.18 103.826 174.501 103.052 175.79 101.784C176.151 101.918 177.853 103.682 177.678 102.691C170.612 97.4403 169.064 96.5841 168.961 95.9341C168.683 91.5394 164.422 58.2897 164.154 55.4733H164.205ZM165.753 97.3372C166.545 96.5356 167.551 95.9803 168.652 95.7381C169.095 97.4713 172.499 99.0187 173.902 100.267C171.365 101.814 163.215 101.649 165.753 97.3372ZM155.612 106.787C156.644 102.124 163.865 101.257 167.249 103.692C165.505 105.074 164.154 107.922 165.557 109.882C162.266 110.996 155.808 111.048 155.612 106.818V106.787ZM147.741 109.995C149.371 107.705 152.486 107.231 155.2 106.9C155.396 108.861 155.086 111.821 157.603 112.729C155.034 114.617 145.11 114.535 147.741 110.026V109.995ZM158.129 113.008C159.199 113.365 160.314 113.569 161.441 113.616C158.759 117.155 146.905 119.033 147.463 112.812C149.206 114.586 154.488 115.246 158.129 113.039V113.008ZM139.086 116.763C141.325 114.732 144.196 113.533 147.215 113.369C147.215 113.781 147.318 114.473 147.463 115.195C149.753 118.176 155.942 117.485 158.81 116.051C158.697 116.185 157.954 117.083 158.367 117.258C161.018 112.616 167.651 113.73 171.323 115.659C169.147 113.204 164.36 113.121 161.43 114.328C162.844 112.863 166.021 113.585 167.816 111.842C169.064 113.255 171.767 113.751 173.706 113.224C173.557 113.5 173.514 113.821 173.584 114.127C173.654 114.433 173.833 114.702 174.088 114.885C171.767 115.411 168.26 116.68 168.456 119.775C168.29 120.27 169.064 120.962 168.26 121.271C167.042 121.766 163.865 122.458 163.731 120.91C162.483 115.494 151.63 117.454 148.804 119.28C145.492 120.776 146.895 122.375 144.677 122.819C139.994 123.871 134.134 121.199 139.086 116.794V116.763ZM137.291 121.519C139.354 123.582 142.903 123.922 145.668 123.015C145.306 123.51 146.524 124.727 145.668 125.078C144.081 125.6 142.359 125.53 140.819 124.881C139.28 124.233 138.026 123.05 137.291 121.55V121.519ZM131.514 127.709C132.339 125.14 135.527 124.067 138.034 123.345C139.043 124.43 140.347 125.196 141.785 125.55C143.224 125.903 144.735 125.829 146.132 125.336C148.618 130.865 130.936 133.445 131.514 127.709ZM127.893 134.476C128.821 132.985 130.118 131.759 131.658 130.917C132.618 133.651 136.125 134.476 138.88 134.425C136.466 140.666 122.539 143.451 127.893 134.476ZM119.001 142.729C120.682 140.666 123.643 140.109 126.294 140.057C128.502 140.14 129.502 143.152 132.257 142.76C133.493 142.664 134.702 142.346 135.826 141.821C138.178 143.761 135.413 146.165 133.392 146.825C129.75 148.517 115.761 148.022 119.032 142.657L119.001 142.729ZM119.135 147.733C118.865 147.01 118.634 146.273 118.444 145.525C122.281 149.775 134.805 148.816 136.878 144.72C138.756 152.086 120.765 151.643 119.135 147.66V147.733ZM119.826 149.26C123.952 151.55 129.523 151.189 133.98 149.889C133.887 154.954 114.606 156.398 119.826 149.187V149.26ZM124.19 157.502C121.59 157.368 118.887 155.625 118.887 152.55C120.816 154.985 125.015 154.903 127.893 154.263C125.128 155.759 125.716 157.698 124.19 157.502ZM134.506 164.218C130.255 165.023 128.419 163.991 126.181 160.463C129.802 162.784 135.661 161.288 138.426 159.081C138.885 159.93 139.561 160.642 140.386 161.144C138.75 162.697 136.714 163.761 134.506 164.218ZM138.838 159.235C138.364 158.204 139.034 157.11 138.952 155.697C141.242 159.906 151.331 161.505 154.065 158.08C154.011 159.081 153.891 160.077 153.704 161.061C152.404 163.445 143.573 164.445 138.838 159.235ZM154.312 159.153C155.342 159.99 156.577 160.534 157.889 160.73C159.201 160.926 160.542 160.766 161.771 160.267C161.771 160.601 161.857 160.93 162.022 161.221C162.186 161.512 162.423 161.756 162.71 161.928C162.71 163.414 152.703 164.528 154.312 159.235V159.153ZM162.565 161.392C161.895 160.515 162.142 159.328 161.709 158.018C165.072 161.34 175.274 159.958 176.873 155.872C176.956 156.811 177.565 157.936 177.286 159.101C176.048 161.907 168.177 164.827 162.524 161.423L162.565 161.392ZM181.495 162.083C178.472 161.051 178.008 160.401 177.565 157.306C180.659 160.979 189.5 159.215 191.77 156.78C182.485 160.907 174.336 158.524 178.586 152.416C181.846 147.991 187.571 148.073 191.574 149.012C188.578 147.873 185.264 147.902 182.289 149.094C182.083 148.322 181.756 147.588 181.32 146.918C187.097 143.823 186.653 138.097 181.701 134.889C179.562 134.453 177.339 134.72 175.363 135.65C173.387 136.579 171.764 138.121 170.735 140.047C170.158 140.738 168.301 139.717 167.197 140.16C169.384 139.552 169.26 137.066 169.632 135.002C170.063 135.136 170.517 135.182 170.966 135.137C171.416 135.092 171.851 134.957 172.248 134.741C172.644 134.525 172.993 134.231 173.274 133.877C173.554 133.523 173.761 133.116 173.882 132.681C177.255 135.25 183.775 134.311 183.888 129.39C185.057 129.65 186.271 129.622 187.427 129.308C186.978 130.028 186.798 130.884 186.919 131.724C187.04 132.563 187.453 133.334 188.087 133.898C186.24 136.302 185.931 140.563 189.5 141.44C189.254 142.076 189.143 142.758 189.177 143.439C189.21 144.121 189.386 144.789 189.693 145.398C190 146.008 190.432 146.546 190.96 146.979C191.489 147.411 192.102 147.728 192.76 147.908C188.861 152.942 189.799 154.985 193.534 158.658C192.077 160.35 190.157 161.579 188.011 162.193C185.864 162.807 183.585 162.779 181.454 162.114L181.495 162.083ZM190.305 161.784C191.69 161.117 192.888 160.118 193.792 158.874C196.133 161.753 200.641 161.01 203.674 159.38C204.974 162 201.941 164.187 200.064 165.786C194.019 170.584 183.744 167.943 190.264 161.815L190.305 161.784ZM195.669 170.625C192.75 170.976 190.583 170.326 189.057 167.726C194.895 171.368 205.222 164.352 204.427 160.071C209.059 165.023 199.94 170.46 195.628 170.656L195.669 170.625ZM203.922 170.872C202.096 170.233 201.24 168.809 203.375 167.777C205.139 166.127 207.347 163.383 205.438 161.092C214.011 155.377 216.961 166.818 210.225 170.099C208.059 169.934 206.068 170.584 203.912 170.903L203.922 170.872ZM202.89 172.286C207.017 168.634 222.645 170.759 216.982 175.731C213.939 178.145 198.217 177.454 202.839 172.317L202.89 172.286ZM216.507 179.435C212.102 181.787 201.229 181.622 202.003 175.236C205.098 178.527 216.817 178.145 218.282 175.02C218.478 176.546 218.065 178.589 216.456 179.466L216.507 179.435ZM234.117 174.184C230.527 177.341 219.551 177.784 218.282 173.152C218.529 172.513 218.055 171.718 218.086 170.666C221.181 174.617 232.673 173.596 234.591 170.532C234.364 171.543 235.004 173.173 234.065 174.215L234.117 174.184ZM242.153 171.78C239.676 172.106 237.159 171.674 234.932 170.542C235.272 169.129 234.323 167.943 233.611 166.756C235.675 168.582 239.192 168.335 241.864 168.304C241.897 169.473 242.038 170.637 242.287 171.78H242.153ZM264.621 179.6C263.259 184.758 247.239 183.83 249.147 177.031C251.829 180.683 262.795 180.209 264.817 177.289C264.833 178.077 264.75 178.864 264.57 179.631L264.621 179.6ZM263.125 174.442C270.12 179.6 250.581 180.498 249.446 176.65C248.817 171.956 261.207 173.152 263.074 174.524L263.125 174.442ZM258.04 171.264C257.245 173.534 253.913 172.502 251.963 173.451C249.281 174.689 248.064 175.711 245.227 174.741C242.132 174.029 242.844 172.317 242.349 170.295C245.774 173.72 256.472 171.481 257.627 167.53C257.667 168.809 257.788 170.083 257.988 171.347L258.04 171.264ZM256.668 164.683C254.604 163.651 252.046 163.651 249.611 163.909C250.034 162.114 247.878 161.041 246.248 160.814C247.713 158.111 251.551 154.923 254.646 157.719C255.749 158.462 256.967 158.049 257.101 159.731C257.462 162.33 255.976 162.609 257.544 165.704C257.299 165.333 256.984 165.014 256.616 164.765L256.668 164.683ZM257.41 164.383C261.196 167.169 267.303 166.447 271.172 164.053C271.299 165.002 271.482 165.942 271.719 166.87C267.345 170.264 258.535 170.387 257.359 164.466L257.41 164.383ZM287.915 164.074C288.812 170.367 276.031 171.295 272.853 168.2C271.822 167.097 271.884 165.467 271.45 163.806C274.205 168.448 286.563 166.684 287.585 162.011C287.616 162.557 287.76 163.445 287.863 164.156L287.915 164.074ZM287.058 160.597C287.75 166.209 277.557 166.57 274.401 165.456C267.829 162.588 273.771 158.606 277.857 158.328C283.912 162.97 286.347 158.204 287.007 160.68L287.058 160.597ZM287.275 158.472C286.313 159.253 285.154 159.754 283.925 159.92C282.697 160.085 281.447 159.909 280.312 159.411C286.728 159.628 290.71 150.735 287.471 145.504C292.454 147.97 290.669 155.408 287.182 158.555L287.275 158.472ZM295.528 157.946C293.417 157.905 291.344 157.375 289.472 156.398C289.996 155.511 290.389 154.552 290.638 153.551C294.342 155.13 299.726 155.398 302.605 152.891C301.934 157.884 299.438 157.719 295.518 158.028L295.528 157.946Z" fill="#97ABDF"/>
<path d="M188.148 108.685C193.533 106.921 196.164 101.175 196.463 95.7275C195.834 96.1196 192.595 97.7908 192.461 97.7908C193.162 101.629 191.677 106.622 188.148 108.685Z" fill="#97ABDF"/>
<path d="M185.322 108.923C190.594 109.17 192.832 101.598 191.976 97.8431C190.429 97.1725 178.772 91.4263 176.801 90.5391C175.77 97.3995 177.658 108.562 185.322 108.923ZM181.887 103.837C182.145 102.981 183.3 100.515 183.218 100.298C181.671 98.916 181.454 95.3259 184.157 96.7289C185.622 97.5026 186.612 101.021 184.6 100.99C184.683 101.382 186.034 105.766 185.57 105.828C185.322 105.828 181.753 104.28 181.887 103.837Z" fill="#97ABDF"/>
</g>
</g>
</svg>
