<svg width="54" height="53" viewBox="0 0 54 53" fill="none" xmlns="http://www.w3.org/2000/svg">
<g filter="url(#filter0_d_1135_328)">
<rect x="6" y="2" width="42" height="42" rx="21" fill="#97ABDF" fill-opacity="0.25"/>
</g>
<path d="M30 30.128C30.853 30.3757 31.7368 30.5009 32.625 30.5C34.0534 30.5021 35.4633 30.1764 36.746 29.548C36.7839 28.6517 36.5286 27.7675 36.0188 27.0293C35.509 26.2912 34.7724 25.7394 33.9207 25.4575C33.0691 25.1757 32.1487 25.1791 31.2992 25.4674C30.4497 25.7557 29.7173 26.313 29.213 27.055M30 30.128V30.125C30 29.012 29.714 27.965 29.213 27.055M30 30.128V30.234C28.0755 31.3931 25.8706 32.0038 23.624 32C21.293 32 19.112 31.355 17.25 30.234L17.249 30.125C17.2483 28.7095 17.7186 27.3339 18.586 26.2153C19.4534 25.0966 20.6684 24.2984 22.0395 23.9466C23.4106 23.5948 24.8598 23.7093 26.1587 24.2721C27.4575 24.8349 28.5321 25.814 29.213 27.055M27 17.375C27 18.2701 26.6444 19.1285 26.0115 19.7615C25.3786 20.3944 24.5201 20.75 23.625 20.75C22.7299 20.75 21.8715 20.3944 21.2385 19.7615C20.6056 19.1285 20.25 18.2701 20.25 17.375C20.25 16.4799 20.6056 15.6214 21.2385 14.9885C21.8715 14.3556 22.7299 14 23.625 14C24.5201 14 25.3786 14.3556 26.0115 14.9885C26.6444 15.6214 27 16.4799 27 17.375ZM35.25 19.625C35.25 20.3212 34.9735 20.9889 34.4812 21.4812C33.9889 21.9734 33.3212 22.25 32.625 22.25C31.9288 22.25 31.2612 21.9734 30.7689 21.4812C30.2766 20.9889 30 20.3212 30 19.625C30 18.9288 30.2766 18.2611 30.7689 17.7688C31.2612 17.2766 31.9288 17 32.625 17C33.3212 17 33.9889 17.2766 34.4812 17.7688C34.9735 18.2611 35.25 18.9288 35.25 19.625Z" stroke="#2D3748" stroke-width="1.5" stroke-linecap="round" stroke-linejoin="round"/>
<defs>
<filter id="filter0_d_1135_328" x="0.5" y="-2.38419e-07" width="53" height="53" filterUnits="userSpaceOnUse" color-interpolation-filters="sRGB">
<feFlood flood-opacity="0" result="BackgroundImageFix"/>
<feColorMatrix in="SourceAlpha" type="matrix" values="0 0 0 0 0 0 0 0 0 0 0 0 0 0 0 0 0 0 127 0" result="hardAlpha"/>
<feOffset dy="3.5"/>
<feGaussianBlur stdDeviation="2.75"/>
<feColorMatrix type="matrix" values="0 0 0 0 0 0 0 0 0 0 0 0 0 0 0 0 0 0 0.02 0"/>
<feBlend mode="normal" in2="BackgroundImageFix" result="effect1_dropShadow_1135_328"/>
<feBlend mode="normal" in="SourceGraphic" in2="effect1_dropShadow_1135_328" result="shape"/>
</filter>
</defs>
</svg>
