<svg width="32" height="32" viewBox="0 0 32 32" fill="none" xmlns="http://www.w3.org/2000/svg">
<circle cx="16" cy="16" r="16" fill="white"/>
<path fill-rule="evenodd" clip-rule="evenodd" d="M24.4 15.9999C24.4 16.2386 24.3052 16.4675 24.1364 16.6363C23.9676 16.805 23.7387 16.8999 23.5 16.8999H10.7344L15.724 21.6519C15.8132 21.7328 15.8853 21.8308 15.9359 21.9401C15.9866 22.0494 16.0148 22.1677 16.0188 22.2881C16.0229 22.4085 16.0028 22.5284 15.9596 22.6409C15.9165 22.7533 15.8512 22.856 15.7676 22.9428C15.6841 23.0295 15.584 23.0986 15.4732 23.146C15.3625 23.1933 15.2433 23.218 15.1229 23.2185C15.0025 23.2189 14.8831 23.1952 14.772 23.1488C14.6609 23.1023 14.5602 23.034 14.476 22.9479L7.87601 16.6479C7.78891 16.5639 7.71962 16.4633 7.6723 16.3519C7.62498 16.2406 7.60059 16.1208 7.60059 15.9999C7.60059 15.8789 7.62498 15.7591 7.6723 15.6478C7.71962 15.5365 7.78891 15.4358 7.87601 15.3519L14.476 9.05186C14.5602 8.96576 14.6609 8.89745 14.772 8.85097C14.8831 8.80449 15.0025 8.78078 15.1229 8.78126C15.2433 8.78173 15.3625 8.80638 15.4732 8.85374C15.584 8.9011 15.6841 8.97021 15.7676 9.05697C15.8512 9.14373 15.9165 9.24638 15.9596 9.35884C16.0028 9.47129 16.0229 9.59126 16.0188 9.71164C16.0148 9.83202 15.9866 9.95036 15.9359 10.0596C15.8853 10.1689 15.8132 10.2669 15.724 10.3479L10.7344 15.0999H23.5C23.7387 15.0999 23.9676 15.1947 24.1364 15.3635C24.3052 15.5322 24.4 15.7612 24.4 15.9999Z" fill="#97ABDF"/>
</svg>
