<svg width="13" height="8" viewBox="0 0 13 8" fill="none" xmlns="http://www.w3.org/2000/svg">
<path fill-rule="evenodd" clip-rule="evenodd" d="M0.276411 0.651943C0.448322 0.486547 0.678865 0.396169 0.917379 0.400669C1.15589 0.405169 1.38286 0.50418 1.54841 0.675943L6.00041 5.40154L10.4524 0.675943C10.5333 0.58673 10.6313 0.514667 10.7406 0.464026C10.8499 0.413385 10.9683 0.385196 11.0886 0.381129C11.209 0.377061 11.329 0.397198 11.4414 0.440347C11.5539 0.483496 11.6565 0.548779 11.7433 0.632327C11.8301 0.715875 11.8992 0.815988 11.9465 0.926734C11.9939 1.03748 12.0185 1.15661 12.019 1.27705C12.0195 1.3975 11.9958 1.51682 11.9493 1.62794C11.9028 1.73905 11.8345 1.83971 11.7484 1.92394L6.64841 7.32394C6.56446 7.41105 6.4638 7.48033 6.35246 7.52765C6.24113 7.57498 6.12139 7.59937 6.00041 7.59937C5.87943 7.59937 5.7597 7.57498 5.64836 7.52765C5.53702 7.48033 5.43637 7.41105 5.35241 7.32394L0.252411 1.92394C0.0870152 1.75203 -0.00336334 1.52149 0.00113692 1.28298C0.00563718 1.04446 0.104648 0.817492 0.276411 0.651943Z" fill="#A0AEC0"/>
</svg>
