<svg width="186" height="188" viewBox="0 0 186 188" fill="none" xmlns="http://www.w3.org/2000/svg">
<g opacity="0.1" filter="url(#filter0_f_1016_515)">
<path d="M13.7051 174.159V13.6255H171.766V120.22C171.766 120.22 171.766 140.768 155.328 157.464C138.889 174.159 121.186 174.159 121.186 174.159H13.7051Z" fill="#97ABDF"/>
</g>
<path fill-rule="evenodd" clip-rule="evenodd" d="M12.7289 10.1893H10.1992V12.719V175.078V177.608H12.7289H117.374V177.594C124.831 177.564 132.222 176.049 139.136 173.122C146.121 170.165 152.492 165.82 157.874 160.319C163.202 154.874 167.9 148.336 170.855 141.045C173.783 133.82 175.293 126.068 175.293 118.233H175.265V12.719V10.1893H172.735H12.7289ZM170.233 118.503H170.205V15.2488H15.2586V172.549H117.148V172.535C124.002 172.535 130.801 171.156 137.163 168.463C143.527 165.769 149.34 161.807 154.257 156.781C159.23 151.699 163.51 145.7 166.166 139.145C168.815 132.608 170.199 125.596 170.233 118.503Z" fill="#97ABDF"/>
<path d="M32.7212 41.5079C32.3502 41.5079 31.9859 41.4842 31.6284 41.437C31.2776 41.3965 30.937 41.3358 30.6064 41.2549C30.2826 41.1672 29.9655 41.0694 29.6552 40.9614C29.3449 40.8535 29.0515 40.7388 28.7749 40.6174L29.0177 38.2091C29.3011 38.371 29.5878 38.5194 29.8778 38.6543C30.1747 38.7825 30.4715 38.8904 30.7683 38.9781C31.0719 39.0591 31.3721 39.1232 31.6689 39.1704C31.9725 39.2109 32.2659 39.2311 32.5492 39.2311C33.3655 39.2311 34.0198 39.0389 34.5123 38.6543C35.0047 38.2698 35.3623 37.693 35.5849 36.924C35.8075 36.1482 35.9188 35.1768 35.9188 34.0098C35.9188 32.9372 35.8041 32.0535 35.5748 31.3586C35.3522 30.6638 35.0283 30.1511 34.6034 29.8206C34.1784 29.49 33.6657 29.3248 33.0653 29.3248C32.4919 29.3248 32.0197 29.4462 31.6486 29.689C31.2844 29.9319 31.0145 30.2523 30.8391 30.6503C30.6637 31.0416 30.576 31.4666 30.576 31.9253C30.576 32.3773 30.6604 32.7854 30.829 33.1497C31.0044 33.5072 31.2709 33.7939 31.6284 34.0098C31.9859 34.2257 32.4447 34.3336 33.0046 34.3336C33.2407 34.3336 33.4768 34.3133 33.7129 34.2729C33.9557 34.2324 34.202 34.1616 34.4516 34.0604C34.7079 33.9592 34.9609 33.8209 35.2105 33.6455C35.4668 33.4634 35.7232 33.234 35.9795 32.9574C36.1752 33.234 36.3033 33.4701 36.364 33.6657C36.4315 33.8546 36.4315 34.0503 36.364 34.2526C36.3033 34.455 36.1819 34.7114 35.9998 35.0217L35.6658 35.0014C35.4432 35.2173 35.2037 35.4129 34.9474 35.5883C34.6978 35.7637 34.428 35.9121 34.1379 36.0336C33.8546 36.1482 33.5476 36.2393 33.2171 36.3068C32.8933 36.3675 32.556 36.3978 32.2052 36.3978C31.3485 36.3978 30.5997 36.2191 29.9588 35.8615C29.3179 35.4973 28.8187 34.9913 28.4612 34.3437C28.1104 33.6894 27.935 32.9237 27.935 32.0467C27.935 31.19 28.1138 30.3839 28.4713 29.6283C28.8356 28.866 29.3888 28.2488 30.1308 27.7766C30.8729 27.3044 31.8139 27.0682 32.954 27.0682C34.1682 27.0682 35.1869 27.3347 36.0099 27.8676C36.8396 28.3938 37.4636 29.1797 37.8819 30.2253C38.3001 31.2642 38.5092 32.5493 38.5092 34.0806C38.5092 35.3421 38.3709 36.4417 38.0944 37.3794C37.8245 38.3103 37.4366 39.0827 36.9307 39.6966C36.4247 40.3037 35.8142 40.7591 35.0992 41.0626C34.3909 41.3594 33.5982 41.5079 32.7212 41.5079ZM46.2053 41.4977C45.1799 41.4977 44.2995 41.3156 43.5642 40.9513C42.8357 40.587 42.2387 40.0777 41.7732 39.4234C41.3145 38.769 40.9738 38.0067 40.7512 37.1365C40.5353 36.2595 40.4274 35.3117 40.4274 34.2931C40.4274 32.8697 40.6331 31.615 41.0446 30.5289C41.4561 29.4428 42.0835 28.5962 42.9267 27.9891C43.77 27.3752 44.8392 27.0682 46.1344 27.0682C47.1193 27.0682 47.9727 27.2436 48.6945 27.5944C49.4163 27.9452 50.0133 28.441 50.4855 29.0819C50.9577 29.7228 51.3085 30.485 51.5379 31.3688C51.7673 32.2525 51.8819 33.2239 51.8819 34.283C51.8819 35.7401 51.6694 37.0117 51.2444 38.0978C50.8262 39.1771 50.1955 40.0136 49.3522 40.6073C48.509 41.2009 47.46 41.4977 46.2053 41.4977ZM46.1648 39.2615C46.8866 39.2615 47.4634 39.0456 47.8951 38.6139C48.3336 38.1821 48.6506 37.5919 48.8463 36.8431C49.0487 36.0943 49.1498 35.2409 49.1498 34.283C49.1498 33.2711 49.0419 32.3941 48.826 31.6521C48.6169 30.91 48.2931 30.3366 47.8546 29.9319C47.4161 29.5204 46.8529 29.3146 46.1648 29.3146C45.4632 29.3146 44.8898 29.5271 44.4446 29.9521C44.0061 30.3704 43.6823 30.9539 43.4732 31.7027C43.2708 32.4447 43.1696 33.3048 43.1696 34.283C43.1696 35.2544 43.2674 36.1145 43.463 36.8633C43.6587 37.6121 43.9757 38.199 44.4142 38.624C44.8594 39.049 45.443 39.2615 46.1648 39.2615Z" fill="#97ABDF"/>
<path d="M27.9654 159.307V157.496C28.3499 157.165 28.7344 156.838 29.1189 156.514C29.5035 156.184 29.8846 155.853 30.2624 155.523C31.1663 154.754 31.9387 154.035 32.5796 153.367C33.2272 152.699 33.723 152.055 34.0671 151.435C34.4111 150.814 34.5831 150.193 34.5831 149.573C34.5831 148.844 34.3807 148.298 33.976 147.933C33.578 147.569 32.9742 147.387 32.1647 147.387C31.8409 147.387 31.5104 147.421 31.1731 147.488C30.8358 147.556 30.4951 147.653 30.1511 147.782C29.8138 147.903 29.4731 148.055 29.1291 148.237C28.7918 148.412 28.4612 148.608 28.1374 148.824L27.8946 146.274C28.1981 146.119 28.5354 145.974 28.9064 145.839C29.2775 145.697 29.6687 145.572 30.0802 145.464C30.4985 145.356 30.9235 145.272 31.3552 145.211C31.7937 145.151 32.2322 145.12 32.6707 145.12C33.669 145.12 34.5123 145.286 35.2004 145.616C35.8952 145.947 36.4214 146.419 36.7789 147.033C37.1364 147.647 37.3152 148.379 37.3152 149.229C37.3152 149.964 37.1567 150.692 36.8396 151.414C36.5293 152.136 36.0571 152.865 35.423 153.6C34.7889 154.335 33.9962 155.087 33.0451 155.856L30.9606 157.546L30.6165 157.02H33.2272C33.9423 157.02 34.6573 157.02 35.3724 157.02C36.0875 157.02 36.8025 157.02 37.5176 157.02V159.307H27.9654ZM44.1141 159.56C43.6487 159.56 43.1899 159.53 42.738 159.469C42.286 159.415 41.8509 159.341 41.4326 159.246C41.0144 159.145 40.6231 159.027 40.2588 158.892C39.9013 158.757 39.5775 158.619 39.2874 158.477L39.4999 156.039C39.8642 156.234 40.2319 156.41 40.6029 156.565C40.9807 156.72 41.3517 156.851 41.716 156.959C42.087 157.067 42.4513 157.152 42.8088 157.212C43.1663 157.273 43.5104 157.303 43.8409 157.303C44.8191 157.303 45.5207 157.118 45.9456 156.747C46.3706 156.369 46.5831 155.89 46.5831 155.31C46.5831 154.629 46.3032 154.109 45.7433 153.752C45.1834 153.394 44.3907 153.215 43.3653 153.215C43.0955 153.215 42.8324 153.215 42.5761 153.215C42.3197 153.215 42.06 153.215 41.7969 153.215V151.151C42.0263 151.151 42.259 151.151 42.4951 151.151C42.738 151.151 42.9774 151.151 43.2136 151.151C43.9084 151.151 44.4717 151.067 44.9034 150.898C45.3419 150.723 45.6623 150.487 45.8647 150.19C46.0671 149.893 46.1683 149.549 46.1683 149.158C46.1683 148.564 45.9456 148.122 45.5004 147.832C45.0619 147.535 44.4919 147.387 43.7903 147.387C43.4733 147.387 43.1461 147.421 42.8088 147.488C42.4715 147.549 42.1308 147.64 41.7868 147.761C41.4495 147.876 41.1122 148.018 40.7749 148.186C40.4444 148.355 40.1172 148.544 39.7934 148.753L39.5404 146.284C39.844 146.122 40.1745 145.97 40.5321 145.829C40.8963 145.687 41.2809 145.566 41.6856 145.464C42.0904 145.356 42.5052 145.272 42.9302 145.211C43.3552 145.144 43.7836 145.11 44.2153 145.11C45.1867 145.11 46.0232 145.255 46.7248 145.545C47.4264 145.835 47.9627 146.244 48.3337 146.77C48.7115 147.296 48.9004 147.92 48.9004 148.642C48.9004 149.222 48.7823 149.728 48.5462 150.16C48.3101 150.591 47.9964 150.945 47.6051 151.222C47.2139 151.492 46.7788 151.681 46.2998 151.789V152.001C46.6641 152.069 47.0216 152.187 47.3724 152.355C47.7299 152.524 48.0537 152.753 48.3438 153.043C48.6406 153.327 48.8734 153.674 49.042 154.086C49.2174 154.497 49.3051 154.976 49.3051 155.523C49.3051 156.292 49.1162 156.98 48.7384 157.587C48.3674 158.194 47.7974 158.676 47.0284 159.034C46.2661 159.385 45.2947 159.56 44.1141 159.56ZM50.9897 159.307V157.496C51.3743 157.165 51.7588 156.838 52.1433 156.514C52.5278 156.184 52.9089 155.853 53.2867 155.523C54.1907 154.754 54.9631 154.035 55.6039 153.367C56.2515 152.699 56.7474 152.055 57.0914 151.435C57.4354 150.814 57.6075 150.193 57.6075 149.573C57.6075 148.844 57.4051 148.298 57.0003 147.933C56.6023 147.569 55.9986 147.387 55.1891 147.387C54.8653 147.387 54.5347 147.421 54.1974 147.488C53.8601 147.556 53.5195 147.653 53.1754 147.782C52.8381 147.903 52.4974 148.055 52.1534 148.237C51.8161 148.412 51.4856 148.608 51.1618 148.824L50.9189 146.274C51.2225 146.119 51.5598 145.974 51.9308 145.839C52.3018 145.697 52.6931 145.572 53.1046 145.464C53.5228 145.356 53.9478 145.272 54.3796 145.211C54.818 145.151 55.2565 145.12 55.695 145.12C56.6934 145.12 57.5366 145.286 58.2247 145.616C58.9195 145.947 59.4457 146.419 59.8033 147.033C60.1608 147.647 60.3396 148.379 60.3396 149.229C60.3396 149.964 60.181 150.692 59.864 151.414C59.5537 152.136 59.0814 152.865 58.4473 153.6C57.8132 154.335 57.0206 155.087 56.0694 155.856L53.9849 157.546L53.6409 157.02H56.2515C56.9666 157.02 57.6817 157.02 58.3967 157.02C59.1118 157.02 59.8269 157.02 60.5419 157.02V159.307H50.9897Z" fill="#97ABDF"/>
<path d="M55.0052 130.566C55.0052 126.754 55.0052 123.061 55.0052 119.485C55.0052 115.876 55.0052 111.795 55.0052 107.242V85.9414C55.0052 81.1855 55.0052 76.9525 55.0052 73.2422C55.0052 69.4983 55.0052 65.67 55.0052 61.7573L62.7968 76.4803H52.6779C49.0014 76.4803 45.7465 76.4803 42.9132 76.4803C40.1137 76.4803 37.449 76.4803 34.9193 76.4803V58.4181H95.8854V76.4803C93.3557 76.4803 90.6742 76.4803 87.8409 76.4803C85.0414 76.4803 81.8033 76.4803 78.1268 76.4803H68.008L75.7995 61.7573C75.7995 65.67 75.7995 69.4983 75.7995 73.2422C75.7995 76.9525 75.7995 81.1855 75.7995 85.9414V107.242C75.7995 111.795 75.7995 115.876 75.7995 119.485C75.7995 123.061 75.7995 126.754 75.7995 130.566H55.0052ZM100.028 130.566C100.028 126.99 100.028 123.533 100.028 120.194C100.028 116.855 100.028 113.077 100.028 108.861V80.6796C100.028 76.5983 100.028 72.5508 100.028 68.537C100.028 64.4894 100.028 60.425 100.028 56.3437L118.899 54.8765C118.899 58.7891 118.899 62.8873 118.899 67.1709C118.899 71.4208 118.899 75.9237 118.899 80.6796V86.1944H120.417C121.429 84.744 122.61 83.4285 123.959 82.248C125.308 81.0675 126.843 80.1399 128.563 79.4653C130.317 78.757 132.273 78.4028 134.432 78.4028C139.356 78.4028 143.151 79.8869 145.816 82.8551C148.48 85.7896 149.813 90.2588 149.813 96.2626C149.813 98.4888 149.813 100.631 149.813 102.688C149.813 104.712 149.813 106.769 149.813 108.861C149.813 113.043 149.813 116.821 149.813 120.194C149.813 123.533 149.813 126.99 149.813 130.566H130.941C130.941 126.99 130.941 123.567 130.941 120.295C130.941 117.023 130.941 113.566 130.941 109.923V102.638C130.941 100.276 130.587 98.5056 129.878 97.3251C129.17 96.1108 127.888 95.5037 126.033 95.5037C125.021 95.5037 124.077 95.7061 123.2 96.1108C122.357 96.5156 121.564 97.0721 120.822 97.7805C120.114 98.4888 119.473 99.2646 118.899 100.108V109.923C118.899 113.6 118.899 117.074 118.899 120.346C118.899 123.584 118.899 126.99 118.899 130.566H100.028Z" fill="black"/>
<defs>
<filter id="filter0_f_1016_515" x="0.21327" y="0.13368" width="185.044" height="187.517" filterUnits="userSpaceOnUse" color-interpolation-filters="sRGB">
<feFlood flood-opacity="0" result="BackgroundImageFix"/>
<feBlend mode="normal" in="SourceGraphic" in2="BackgroundImageFix" result="shape"/>
<feGaussianBlur stdDeviation="6.7459" result="effect1_foregroundBlur_1016_515"/>
</filter>
</defs>
</svg>
