<svg width="20" height="20" viewBox="0 0 12 14" fill="none" xmlns="http://www.w3.org/2000/svg">
<path fill-rule="evenodd" clip-rule="evenodd" d="M8.80003 3.45045C9.78844 4.02143 10.5788 4.88082 11.0651 5.91349C11.5515 6.94617 11.7106 8.10281 11.5213 9.22847C11.3319 10.3541 10.8031 11.395 10.0057 12.2118C9.20821 13.0285 8.18022 13.582 7.0594 13.7982C5.93858 14.0144 4.77847 13.8829 3.73448 13.4213C2.69048 12.9597 1.81247 12.1902 1.21806 11.2157C0.623649 10.2412 0.341232 9.1083 0.408641 7.96882C0.47605 6.82934 0.890067 5.73767 1.59523 4.84005C1.75683 4.63445 2.06723 4.66565 2.22963 4.87125C2.45203 5.15285 2.70483 5.40885 2.98403 5.63445C3.24963 5.84965 3.61283 5.59525 3.60243 5.25365C3.57688 4.49197 3.73378 3.73521 4.06003 3.04645C4.48701 2.14755 5.18173 1.40281 6.04883 0.914454C6.24643 0.802454 6.48883 0.901654 6.59043 1.10485C7.07994 2.08723 7.84861 2.9032 8.80003 3.45045ZM9.20003 9.10005C9.20003 9.94875 8.86289 10.7627 8.26277 11.3628C7.66265 11.9629 6.84872 12.3001 6.00003 12.3001C4.46963 12.3001 3.18403 11.1817 2.87203 9.75445C2.79763 9.41125 3.22403 9.24005 3.52323 9.42405C3.91342 9.66339 4.34998 9.81718 4.80403 9.87525C5.04643 9.90565 5.22883 9.68325 5.21203 9.44005C5.12407 8.22915 5.50019 7.03015 6.26403 6.08645C6.30452 6.03589 6.35798 5.99727 6.41871 5.97473C6.47944 5.95218 6.54515 5.94656 6.60883 5.95845C7.33824 6.09996 7.9957 6.49083 8.46848 7.06402C8.94125 7.63722 9.19989 8.35704 9.20003 9.10005Z" fill="white"/>
</svg>
