<svg width="160" height="71" viewBox="0 0 160 71" fill="none" xmlns="http://www.w3.org/2000/svg">
<g opacity="0.1" filter="url(#filter0_f_749_609)">
<path fill-rule="evenodd" clip-rule="evenodd" d="M5.30566 5.29883V65.037H45.223C45.223 65.037 51.7976 65.037 57.9026 58.8242C59.5263 57.1719 60.7181 55.4182 61.5929 53.7338H60.342V24.9636H64.0076V5.29883H5.30566Z" fill="#97ABDF"/>
</g>
<path fill-rule="evenodd" clip-rule="evenodd" d="M4.00391 4.02051H4.94255H64.367H65.3057V4.95915V25.2764H63.4284V5.89779H5.88119V64.438H43.7227V64.4331C46.2679 64.4331 48.7931 63.92 51.1558 62.9177C53.5191 61.9153 55.6781 60.4409 57.5046 58.5704C59.1469 56.8886 60.5857 54.9369 61.5782 52.8099H63.6277C62.5285 55.4824 60.8024 57.8803 58.8478 59.882C56.8491 61.9288 54.4831 63.5455 51.8889 64.646C49.3211 65.7352 46.576 66.2991 43.8064 66.3102V66.3153H4.94255H4.00391V65.3766V4.95915V4.02051Z" fill="#97ABDF"/>
<path d="M12.3604 15.8483C12.2227 15.8483 12.0875 15.8395 11.9549 15.822C11.8247 15.807 11.6983 15.7844 11.5757 15.7544C11.4555 15.7219 11.3379 15.6856 11.2227 15.6455C11.1076 15.6055 10.9987 15.5629 10.8961 15.5179L10.9862 14.6243C11.0913 14.6843 11.1977 14.7394 11.3053 14.7895C11.4155 14.837 11.5256 14.8771 11.6357 14.9096C11.7484 14.9397 11.8598 14.9634 11.9699 14.981C12.0825 14.996 12.1914 15.0035 12.2965 15.0035C12.5994 15.0035 12.8422 14.9321 13.0249 14.7895C13.2077 14.6468 13.3403 14.4328 13.4229 14.1474C13.5055 13.8596 13.5468 13.4991 13.5468 13.0661C13.5468 12.6681 13.5043 12.3402 13.4192 12.0824C13.3366 11.8246 13.2164 11.6344 13.0587 11.5117C12.901 11.3891 12.7108 11.3278 12.488 11.3278C12.2753 11.3278 12.1001 11.3728 11.9624 11.4629C11.8272 11.553 11.7271 11.6719 11.662 11.8196C11.5969 11.9648 11.5644 12.1225 11.5644 12.2927C11.5644 12.4604 11.5957 12.6118 11.6583 12.747C11.7233 12.8796 11.8222 12.986 11.9549 13.0661C12.0875 13.1462 12.2577 13.1863 12.4655 13.1863C12.5531 13.1863 12.6407 13.1788 12.7283 13.1637C12.8184 13.1487 12.9098 13.1224 13.0024 13.0849C13.0975 13.0473 13.1914 12.996 13.284 12.931C13.3791 12.8634 13.4742 12.7783 13.5693 12.6756C13.6419 12.7783 13.6895 12.8659 13.712 12.9385C13.737 13.0086 13.737 13.0811 13.712 13.1562C13.6895 13.2313 13.6444 13.3264 13.5769 13.4416L13.453 13.4341C13.3704 13.5142 13.2815 13.5868 13.1864 13.6518C13.0938 13.7169 12.9936 13.772 12.886 13.817C12.7809 13.8596 12.667 13.8934 12.5443 13.9184C12.4242 13.9409 12.299 13.9522 12.1689 13.9522C11.851 13.9522 11.5732 13.8859 11.3354 13.7532C11.0976 13.618 10.9124 13.4303 10.7797 13.19C10.6495 12.9472 10.5845 12.6631 10.5845 12.3377C10.5845 12.0198 10.6508 11.7207 10.7835 11.4404C10.9186 11.1575 11.1239 10.9285 11.3992 10.7533C11.6745 10.5781 12.0237 10.4905 12.4467 10.4905C12.8973 10.4905 13.2752 10.5894 13.5806 10.7871C13.8885 10.9823 14.12 11.2739 14.2752 11.6619C14.4304 12.0474 14.508 12.5242 14.508 13.0924C14.508 13.5605 14.4567 13.9685 14.354 14.3164C14.2539 14.6618 14.11 14.9484 13.9223 15.1762C13.7345 15.4015 13.508 15.5704 13.2427 15.6831C12.9799 15.7932 12.6858 15.8483 12.3604 15.8483ZM17.3636 15.8445C16.9831 15.8445 16.6565 15.7769 16.3836 15.6418C16.1133 15.5066 15.8918 15.3176 15.7191 15.0748C15.5489 14.832 15.4225 14.5492 15.3399 14.2263C15.2598 13.9009 15.2197 13.5492 15.2197 13.1712C15.2197 12.6431 15.2961 12.1775 15.4487 11.7745C15.6014 11.3716 15.8342 11.0574 16.1471 10.8322C16.46 10.6044 16.8567 10.4905 17.3373 10.4905C17.7027 10.4905 18.0194 10.5556 18.2872 10.6857C18.555 10.8159 18.7765 10.9999 18.9518 11.2376C19.127 11.4754 19.2571 11.7583 19.3422 12.0862C19.4273 12.4141 19.4699 12.7745 19.4699 13.1675C19.4699 13.7082 19.391 14.18 19.2333 14.583C19.0782 14.9835 18.8441 15.2938 18.5312 15.5141C18.2184 15.7344 17.8291 15.8445 17.3636 15.8445ZM17.3486 15.0147C17.6164 15.0147 17.8304 14.9346 17.9906 14.7745C18.1533 14.6143 18.2709 14.3952 18.3435 14.1174C18.4186 13.8396 18.4562 13.5229 18.4562 13.1675C18.4562 12.792 18.4161 12.4666 18.336 12.1913C18.2584 11.916 18.1383 11.7032 17.9756 11.553C17.8129 11.4003 17.6039 11.324 17.3486 11.324C17.0882 11.324 16.8755 11.4028 16.7103 11.5605C16.5476 11.7157 16.4274 11.9322 16.3498 12.2101C16.2747 12.4854 16.2372 12.8046 16.2372 13.1675C16.2372 13.5279 16.2735 13.8471 16.3461 14.1249C16.4187 14.4027 16.5363 14.6205 16.699 14.7782C16.8642 14.9359 17.0807 15.0147 17.3486 15.0147Z" fill="#97ABDF"/>
<path d="M10.5957 59.5581V58.886C10.7384 58.7634 10.8811 58.642 11.0237 58.5218C11.1664 58.3992 11.3078 58.2765 11.448 58.1539C11.7834 57.8685 12.07 57.602 12.3078 57.3542C12.5481 57.1064 12.7321 56.8673 12.8597 56.637C12.9874 56.4068 13.0512 56.1765 13.0512 55.9462C13.0512 55.6759 12.9761 55.4731 12.8259 55.338C12.6783 55.2028 12.4542 55.1352 12.1539 55.1352C12.0337 55.1352 11.9111 55.1477 11.7859 55.1728C11.6608 55.1978 11.5344 55.2341 11.4067 55.2816C11.2816 55.3267 11.1552 55.383 11.0275 55.4506C10.9023 55.5157 10.7797 55.5883 10.6596 55.6684L10.5694 54.7222C10.6821 54.6646 10.8072 54.6108 10.9449 54.5608C11.0826 54.5082 11.2277 54.4619 11.3804 54.4219C11.5356 54.3818 11.6933 54.3505 11.8535 54.328C12.0162 54.3055 12.1789 54.2942 12.3416 54.2942C12.7121 54.2942 13.0249 54.3555 13.2802 54.4782C13.5381 54.6008 13.7333 54.776 13.866 55.0038C13.9986 55.2316 14.0649 55.5032 14.0649 55.8186C14.0649 56.0914 14.0061 56.3617 13.8885 56.6295C13.7733 56.8974 13.5981 57.1677 13.3628 57.4405C13.1276 57.7134 12.8334 57.9924 12.4805 58.2778L11.7071 58.9048L11.5794 58.7096H12.5481C12.8134 58.7096 13.0787 58.7096 13.3441 58.7096C13.6094 58.7096 13.8747 58.7096 14.14 58.7096V59.5581H10.5957ZM16.5877 59.652C16.415 59.652 16.2447 59.6407 16.077 59.6182C15.9093 59.5982 15.7479 59.5706 15.5927 59.5356C15.4375 59.498 15.2923 59.4542 15.1572 59.4042C15.0245 59.3541 14.9044 59.3028 14.7967 59.2502L14.8756 58.3454C15.0107 58.418 15.1472 58.483 15.2848 58.5406C15.425 58.5982 15.5627 58.647 15.6978 58.687C15.8355 58.7271 15.9707 58.7584 16.1033 58.7809C16.236 58.8034 16.3636 58.8147 16.4863 58.8147C16.8492 58.8147 17.1096 58.7459 17.2672 58.6082C17.4249 58.468 17.5038 58.2903 17.5038 58.075C17.5038 57.8222 17.3999 57.6295 17.1922 57.4968C16.9844 57.3642 16.6903 57.2979 16.3098 57.2979C16.2097 57.2979 16.1121 57.2979 16.017 57.2979C15.9219 57.2979 15.8255 57.2979 15.7279 57.2979V56.5319C15.813 56.5319 15.8993 56.5319 15.9869 56.5319C16.077 56.5319 16.1659 56.5319 16.2535 56.5319C16.5113 56.5319 16.7203 56.5006 16.8805 56.4381C17.0432 56.373 17.1621 56.2854 17.2372 56.1752C17.3123 56.0651 17.3498 55.9374 17.3498 55.7923C17.3498 55.572 17.2672 55.4081 17.102 55.3004C16.9393 55.1903 16.7278 55.1352 16.4675 55.1352C16.3499 55.1352 16.2285 55.1477 16.1033 55.1728C15.9782 55.1953 15.8518 55.2291 15.7241 55.2741C15.599 55.3167 15.4738 55.3693 15.3487 55.4318C15.226 55.4944 15.1046 55.5645 14.9845 55.6421L14.8906 54.726C15.0032 54.6659 15.1259 54.6096 15.2585 54.557C15.3937 54.5045 15.5364 54.4594 15.6866 54.4219C15.8368 54.3818 15.9907 54.3505 16.1484 54.328C16.3061 54.303 16.465 54.2904 16.6252 54.2904C16.9857 54.2904 17.296 54.3443 17.5563 54.4519C17.8167 54.5595 18.0157 54.711 18.1533 54.9062C18.2935 55.1014 18.3636 55.333 18.3636 55.6008C18.3636 55.816 18.3198 56.0038 18.2322 56.164C18.1446 56.3242 18.0282 56.4556 17.883 56.5582C17.7378 56.6583 17.5764 56.7284 17.3987 56.7685V56.8473C17.5338 56.8723 17.6665 56.9161 17.7966 56.9787C17.9293 57.0413 18.0494 57.1264 18.1571 57.234C18.2672 57.3392 18.3536 57.4681 18.4161 57.6207C18.4812 57.7734 18.5138 57.9511 18.5138 58.1539C18.5138 58.4392 18.4437 58.6946 18.3035 58.9198C18.1658 59.1451 17.9543 59.3241 17.669 59.4567C17.3861 59.5869 17.0257 59.652 16.5877 59.652ZM19.1388 59.5581V58.886C19.2815 58.7634 19.4242 58.642 19.5669 58.5218C19.7095 58.3992 19.851 58.2765 19.9911 58.1539C20.3265 57.8685 20.6131 57.602 20.8509 57.3542C21.0912 57.1064 21.2752 56.8673 21.4028 56.637C21.5305 56.4068 21.5943 56.1765 21.5943 55.9462C21.5943 55.6759 21.5192 55.4731 21.3691 55.338C21.2214 55.2028 20.9974 55.1352 20.697 55.1352C20.5768 55.1352 20.4542 55.1477 20.329 55.1728C20.2039 55.1978 20.0775 55.2341 19.9498 55.2816C19.8247 55.3267 19.6983 55.383 19.5706 55.4506C19.4455 55.5157 19.3228 55.5883 19.2027 55.6684L19.1126 54.7222C19.2252 54.6646 19.3503 54.6108 19.488 54.5608C19.6257 54.5082 19.7709 54.4619 19.9235 54.4219C20.0787 54.3818 20.2364 54.3505 20.3966 54.328C20.5593 54.3055 20.722 54.2942 20.8847 54.2942C21.2552 54.2942 21.568 54.3555 21.8234 54.4782C22.0812 54.6008 22.2764 54.776 22.4091 55.0038C22.5417 55.2316 22.6081 55.5032 22.6081 55.8186C22.6081 56.0914 22.5492 56.3617 22.4316 56.6295C22.3165 56.8974 22.1412 57.1677 21.906 57.4405C21.6707 57.7134 21.3766 57.9924 21.0236 58.2778L20.2502 58.9048L20.1225 58.7096H21.0912C21.3565 58.7096 21.6219 58.7096 21.8872 58.7096C22.1525 58.7096 22.4178 58.7096 22.6832 58.7096V59.5581H19.1388Z" fill="#97ABDF"/>
<path d="M20.6281 48.7246C20.6281 47.3104 20.6281 45.94 20.6281 44.6134C20.6281 43.2742 20.6281 41.7599 20.6281 40.0703V32.167C20.6281 30.4023 20.6281 28.8316 20.6281 27.455C20.6281 26.0658 20.6281 24.6453 20.6281 23.1935L23.5191 28.6564H19.7645C18.4003 28.6564 17.1926 28.6564 16.1413 28.6564C15.1026 28.6564 14.1139 28.6564 13.1752 28.6564V21.9545H35.7965V28.6564C34.8579 28.6564 33.8629 28.6564 32.8116 28.6564C31.7729 28.6564 30.5714 28.6564 29.2073 28.6564H25.4527L28.3437 23.1935C28.3437 24.6453 28.3437 26.0658 28.3437 27.455C28.3437 28.8316 28.3437 30.4023 28.3437 32.167V40.0703C28.3437 41.7599 28.3437 43.2742 28.3437 44.6134C28.3437 45.94 28.3437 47.3104 28.3437 48.7246H20.6281ZM37.3336 48.7246C37.3336 47.398 37.3336 46.1152 37.3336 44.8762C37.3336 43.6372 37.3336 42.2355 37.3336 40.6711V30.2146C37.3336 28.7002 37.3336 27.1984 37.3336 25.7091C37.3336 24.2073 37.3336 22.6992 37.3336 21.1848L44.3358 20.6404C44.3358 22.0922 44.3358 23.6128 44.3358 25.2022C44.3358 26.7791 44.3358 28.4499 44.3358 30.2146V32.2608H44.899C45.2745 31.7227 45.7125 31.2346 46.2131 30.7965C46.7137 30.3585 47.2832 30.0143 47.9214 29.764C48.5722 29.5012 49.2981 29.3698 50.0991 29.3698C51.9263 29.3698 53.3343 29.9205 54.323 31.0218C55.3117 32.1106 55.806 33.7689 55.806 35.9966C55.806 36.8226 55.806 37.6173 55.806 38.3808C55.806 39.1317 55.806 39.8951 55.806 40.6711C55.806 42.2229 55.806 43.6247 55.806 44.8762C55.806 46.1152 55.806 47.398 55.806 48.7246H48.8038C48.8038 47.398 48.8038 46.1277 48.8038 44.9137C48.8038 43.6997 48.8038 42.4169 48.8038 41.0653V38.362C48.8038 37.4859 48.6724 36.8289 48.4095 36.3908C48.1467 35.9403 47.6711 35.715 46.9828 35.715C46.6073 35.715 46.2569 35.7901 45.9315 35.9403C45.6186 36.0905 45.3245 36.297 45.0492 36.5598C44.7864 36.8226 44.5486 37.1105 44.3358 37.4234V41.0653C44.3358 42.4294 44.3358 43.7185 44.3358 44.9325C44.3358 46.134 44.3358 47.398 44.3358 48.7246H37.3336Z" fill="black"/>
<path d="M68.459 49.269C66.6568 49.269 65.1049 48.9999 63.8033 48.4618C62.5017 47.9236 61.4254 47.1915 60.5744 46.2654C59.7358 45.3267 59.1163 44.2629 58.7158 43.074C58.3154 41.8725 58.1151 40.6147 58.1151 39.3006C58.1151 37.4234 58.4906 35.7401 59.2415 34.2507C59.9924 32.7489 61.1188 31.56 62.6206 30.6839C64.1349 29.8078 66.031 29.3698 68.3088 29.3698C70.0609 29.3698 71.5815 29.6264 72.8706 30.1395C74.1596 30.6401 75.2297 31.3472 76.0807 32.2608C76.9318 33.1619 77.5638 34.2132 77.9768 35.4147C78.3898 36.6161 78.5963 37.9114 78.5963 39.3006C78.5963 41.203 78.2083 42.905 77.4324 44.4069C76.6689 45.9087 75.5301 47.0976 74.0157 47.9737C72.5139 48.8372 70.6616 49.269 68.459 49.269ZM68.4402 43.6372C69.116 43.6372 69.6792 43.4369 70.1297 43.0364C70.5803 42.6234 70.9119 42.0915 71.1247 41.4407C71.35 40.7774 71.4626 40.0641 71.4626 39.3006C71.4626 38.3745 71.3312 37.5923 71.0684 36.954C70.8056 36.3158 70.4426 35.8339 69.9796 35.5085C69.529 35.1831 69.0034 35.0204 68.4026 35.0204C67.7268 35.0204 67.1511 35.2082 66.6755 35.5836C66.2125 35.9591 65.8558 36.4722 65.6055 37.123C65.3677 37.7613 65.2488 38.4871 65.2488 39.3006C65.2488 40.0641 65.3677 40.7774 65.6055 41.4407C65.8558 42.0915 66.2187 42.6234 66.6943 43.0364C67.1699 43.4369 67.7518 43.6372 68.4402 43.6372ZM89.8489 49.269C88.3846 49.269 87.1205 49.0688 86.0567 48.6683C85.0055 48.2553 84.1982 47.5795 83.635 46.6408C83.0844 45.6897 82.809 44.4194 82.809 42.8299C82.809 42.1541 82.809 41.447 82.809 40.7086C82.809 39.9702 82.809 39.163 82.809 38.2869C82.809 37.3983 82.809 36.4096 82.809 35.3208C82.809 34.232 82.809 32.9992 82.809 31.6225C82.809 30.1207 82.809 28.7628 82.809 27.5488C82.809 26.3349 82.809 25.0958 82.809 23.8318L89.7174 22.6491C89.7174 23.6503 89.7174 24.614 89.7174 25.5401C89.7174 26.4537 89.7174 27.3986 89.7174 28.3748C89.7174 29.351 89.7174 30.4336 89.7174 31.6225V40.4833C89.7174 41.4971 89.8864 42.2793 90.2243 42.8299C90.5622 43.3681 91.1379 43.6372 91.9514 43.6372C92.3144 43.6372 92.7086 43.5683 93.1341 43.4307C93.5721 43.293 94.0164 43.0802 94.467 42.7924L94.8237 48.3679C94.4607 48.5682 94.0039 48.7371 93.4532 48.8748C92.9151 49.0125 92.3269 49.1126 91.6886 49.1752C91.0628 49.2377 90.4496 49.269 89.8489 49.269ZM80.0682 35.1331V29.933H94.7673V35.1331C93.641 35.1331 92.5083 35.1331 91.3695 35.1331C90.2431 35.1331 89.1543 35.1331 88.103 35.1331H84.9304H80.0682ZM97.4401 48.7246C97.4401 47.398 97.4401 46.1152 97.4401 44.8762C97.4401 43.6372 97.4401 42.2355 97.4401 40.6711V30.2146C97.4401 28.7002 97.4401 27.1984 97.4401 25.7091C97.4401 24.2073 97.4401 22.6992 97.4401 21.1848L104.442 20.6404C104.442 22.0922 104.442 23.6128 104.442 25.2022C104.442 26.7791 104.442 28.4499 104.442 30.2146V32.2608H105.006C105.381 31.7227 105.819 31.2346 106.32 30.7965C106.82 30.3585 107.39 30.0143 108.028 29.764C108.679 29.5012 109.405 29.3698 110.206 29.3698C112.033 29.3698 113.441 29.9205 114.43 31.0218C115.418 32.1106 115.913 33.7689 115.913 35.9966C115.913 36.8226 115.913 37.6173 115.913 38.3808C115.913 39.1317 115.913 39.8951 115.913 40.6711C115.913 42.2229 115.913 43.6247 115.913 44.8762C115.913 46.1152 115.913 47.398 115.913 48.7246H108.91C108.91 47.398 108.91 46.1277 108.91 44.9137C108.91 43.6997 108.91 42.4169 108.91 41.0653V38.362C108.91 37.4859 108.779 36.8289 108.516 36.3908C108.253 35.9403 107.778 35.715 107.089 35.715C106.714 35.715 106.363 35.7901 106.038 35.9403C105.725 36.0905 105.431 36.297 105.156 36.5598C104.893 36.8226 104.655 37.1105 104.442 37.4234V41.0653C104.442 42.4294 104.442 43.7185 104.442 44.9325C104.442 46.134 104.442 47.398 104.442 48.7246H97.4401ZM129.187 49.269C126.659 49.269 124.6 48.8435 123.011 47.9925C121.434 47.1414 120.276 45.9713 119.538 44.4819C118.799 42.9801 118.43 41.253 118.43 39.3006C118.43 37.3608 118.768 35.6462 119.444 34.1569C120.132 32.655 121.165 31.4849 122.541 30.6464C123.918 29.7953 125.658 29.3698 127.76 29.3698C129.55 29.3698 131.071 29.6764 132.322 30.2897C133.586 30.8904 134.55 31.8165 135.213 33.068C135.889 34.3071 136.227 35.9028 136.227 37.8551C136.227 38.3683 136.208 38.8251 136.171 39.2255C136.146 39.626 136.102 40.0203 136.039 40.4082L130.107 38.3432C130.132 38.193 130.151 38.0366 130.163 37.8739C130.176 37.6987 130.182 37.5422 130.182 37.4046C130.182 36.3533 129.963 35.5273 129.525 34.9266C129.087 34.3133 128.524 34.0067 127.835 34.0067C127.322 34.0067 126.859 34.1694 126.446 34.4948C126.046 34.8077 125.72 35.277 125.47 35.9028C125.232 36.516 125.113 37.2857 125.113 38.2118V39.3945C125.113 40.2956 125.282 41.059 125.62 41.6848C125.971 42.298 126.509 42.7674 127.235 43.0928C127.961 43.4181 128.905 43.5808 130.069 43.5808C130.52 43.5808 131.071 43.537 131.721 43.4494C132.385 43.3493 133.067 43.2054 133.768 43.0177C134.468 42.8299 135.113 42.5921 135.701 42.3043L135.927 48.1051C135.438 48.3179 134.863 48.5119 134.199 48.6871C133.536 48.8623 132.785 48.9999 131.947 49.1001C131.108 49.2127 130.188 49.269 129.187 49.269ZM121.096 40.4082V37.367L132.003 37.0667L136.039 37.7425V40.4082H121.096ZM137.78 48.7246C138.231 47.836 138.625 47.0663 138.963 46.4155C139.313 45.7648 139.639 45.1453 139.939 44.557C140.252 43.9688 140.583 43.3431 140.934 42.6798L143.243 38.2494L143.262 39.6761L140.896 35.6024C140.533 34.9766 140.189 34.3822 139.864 33.819C139.538 33.2558 139.194 32.6676 138.831 32.0543C138.481 31.4286 138.08 30.7214 137.63 29.933L145.402 29.7265C145.69 30.4148 145.959 31.0656 146.209 31.6789C146.459 32.2796 146.716 32.9116 146.979 33.5749L147.992 35.9966H148.481L149.438 33.6125C149.688 32.9492 149.926 32.3359 150.151 31.7727C150.377 31.2095 150.614 30.5963 150.865 29.933H158.749C158.249 30.759 157.811 31.4724 157.435 32.0731C157.072 32.6613 156.728 33.2245 156.403 33.7626C156.077 34.3008 155.714 34.8953 155.314 35.5461L152.817 39.6385L152.442 38.2306L155.22 42.7548C155.796 43.6935 156.353 44.6071 156.891 45.4957C157.441 46.3717 158.111 47.4481 158.9 48.7246H150.564C150.314 48.0988 150.083 47.5294 149.87 47.0163C149.67 46.4906 149.438 45.9149 149.175 45.2892L148.124 42.661H147.692L146.772 45.1578C146.534 45.8086 146.315 46.3968 146.115 46.9224C145.915 47.4481 145.69 48.0488 145.439 48.7246H137.78Z" fill="black"/>
<defs>
<filter id="filter0_f_749_609" x="0.29957" y="0.292734" width="68.7143" height="69.7505" filterUnits="userSpaceOnUse" color-interpolation-filters="sRGB">
<feFlood flood-opacity="0" result="BackgroundImageFix"/>
<feBlend mode="normal" in="SourceGraphic" in2="BackgroundImageFix" result="shape"/>
<feGaussianBlur stdDeviation="2.50305" result="effect1_foregroundBlur_749_609"/>
</filter>
</defs>
</svg>
