<svg width="134" height="60" viewBox="0 0 134 60" fill="none" xmlns="http://www.w3.org/2000/svg">
<g opacity="0.1" filter="url(#filter0_f_78_553)">
<path fill-rule="evenodd" clip-rule="evenodd" d="M5.08884 5.0835V54.9168H38.3877C38.3877 54.9168 43.8722 54.9168 48.965 49.7342C50.3195 48.3558 51.3137 46.8928 52.0435 45.4878H51V21.4878H54.0578V5.0835H5.08884Z" fill="#97ABDF"/>
</g>
<path fill-rule="evenodd" clip-rule="evenodd" d="M4.00323 4.01697H4.78625H54.3579H55.1409V4.79998V21.7484H53.5749V5.58299H5.56926V54.417H37.1364V54.4129C39.2597 54.4129 41.3662 53.9849 43.3371 53.1488C45.3086 52.3125 47.1097 51.0827 48.6333 49.5223C50.0033 48.1193 51.2036 46.4912 52.0315 44.7168H53.7412C52.8243 46.9462 51.3843 48.9466 49.7538 50.6164C48.0864 52.3239 46.1128 53.6725 43.9487 54.5905C41.8066 55.4992 39.5167 55.9695 37.2063 55.9788V55.983H4.78625H4.00323V55.2V4.79998V4.01697Z" fill="#97ABDF"/>
<path d="M10.9738 14.2104C10.8589 14.2104 10.7462 14.2031 10.6355 14.1885C10.5269 14.1759 10.4215 14.1571 10.3192 14.1321C10.2189 14.1049 10.1208 14.0747 10.0248 14.0413C9.92871 14.0078 9.83788 13.9723 9.75227 13.9348L9.82744 13.1893C9.91513 13.2394 10.0039 13.2854 10.0937 13.3271C10.1855 13.3668 10.2774 13.4002 10.3693 13.4274C10.4632 13.4524 10.5562 13.4723 10.648 13.4869C10.742 13.4994 10.8328 13.5057 10.9205 13.5057C11.1732 13.5057 11.3757 13.4462 11.5281 13.3271C11.6806 13.2081 11.7912 13.0296 11.8601 12.7916C11.929 12.5514 11.9635 12.2508 11.9635 11.8895C11.9635 11.5575 11.928 11.284 11.857 11.0689C11.7881 10.8539 11.6879 10.6952 11.5563 10.5929C11.4248 10.4906 11.2661 10.4394 11.0803 10.4394C10.9028 10.4394 10.7566 10.477 10.6418 10.5521C10.529 10.6273 10.4455 10.7265 10.3912 10.8497C10.3369 10.9708 10.3098 11.1023 10.3098 11.2443C10.3098 11.3842 10.3359 11.5106 10.3881 11.6233C10.4424 11.734 10.5248 11.8227 10.6355 11.8895C10.7462 11.9563 10.8882 11.9898 11.0615 11.9898C11.1345 11.9898 11.2076 11.9835 11.2807 11.971C11.3559 11.9584 11.4321 11.9365 11.5093 11.9052C11.5887 11.8739 11.667 11.8311 11.7442 11.7768C11.8236 11.7204 11.9029 11.6494 11.9823 11.5638C12.0428 11.6494 12.0825 11.7225 12.1013 11.783C12.1222 11.8415 12.1222 11.9021 12.1013 11.9647C12.0825 12.0273 12.0449 12.1067 11.9885 12.2027L11.8852 12.1965C11.8163 12.2633 11.7422 12.3238 11.6628 12.3781C11.5856 12.4324 11.502 12.4784 11.4123 12.5159C11.3246 12.5514 11.2295 12.5796 11.1272 12.6005C11.027 12.6193 10.9226 12.6287 10.814 12.6287C10.5489 12.6287 10.3171 12.5734 10.1187 12.4627C9.92035 12.3499 9.76584 12.1933 9.65517 11.9929C9.5466 11.7904 9.49231 11.5534 9.49231 11.2819C9.49231 11.0167 9.54764 10.7672 9.6583 10.5334C9.77106 10.2974 9.94228 10.1064 10.172 9.96019C10.4016 9.81403 10.6929 9.74095 11.0458 9.74095C11.4216 9.74095 11.7369 9.82342 11.9917 9.98838C12.2485 10.1512 12.4417 10.3945 12.5711 10.7181C12.7006 11.0397 12.7653 11.4375 12.7653 11.9115C12.7653 12.3019 12.7225 12.6423 12.6369 12.9325C12.5534 13.2207 12.4333 13.4597 12.2767 13.6497C12.1201 13.8377 11.9311 13.9786 11.7098 14.0726C11.4906 14.1644 11.2452 14.2104 10.9738 14.2104ZM15.1474 14.2072C14.83 14.2072 14.5575 14.1509 14.33 14.0381C14.1044 13.9254 13.9197 13.7677 13.7756 13.5652C13.6336 13.3626 13.5281 13.1267 13.4592 12.8573C13.3924 12.5859 13.359 12.2925 13.359 11.9772C13.359 11.5367 13.4227 11.1483 13.5501 10.8121C13.6774 10.4759 13.8716 10.2139 14.1326 10.026C14.3936 9.83595 14.7246 9.74095 15.1255 9.74095C15.4303 9.74095 15.6945 9.79524 15.9179 9.90381C16.1413 10.0124 16.3261 10.1659 16.4723 10.3642C16.6184 10.5626 16.727 10.7985 16.798 11.0721C16.869 11.3456 16.9045 11.6463 16.9045 11.9741C16.9045 12.4251 16.8387 12.8187 16.7072 13.1549C16.5777 13.489 16.3825 13.7479 16.1215 13.9316C15.8605 14.1154 15.5358 14.2072 15.1474 14.2072ZM15.1349 13.5151C15.3583 13.5151 15.5368 13.4482 15.6705 13.3146C15.8062 13.181 15.9043 12.9983 15.9649 12.7665C16.0275 12.5347 16.0588 12.2706 16.0588 11.9741C16.0588 11.6609 16.0254 11.3894 15.9586 11.1598C15.8939 10.9301 15.7937 10.7526 15.6579 10.6273C15.5222 10.4999 15.3479 10.4363 15.1349 10.4363C14.9177 10.4363 14.7403 10.502 14.6024 10.6336C14.4667 10.763 14.3665 10.9437 14.3018 11.1754C14.2391 11.4051 14.2078 11.6713 14.2078 11.9741C14.2078 12.2748 14.2381 12.541 14.2986 12.7728C14.3592 13.0045 14.4573 13.1862 14.593 13.3177C14.7309 13.4493 14.9115 13.5151 15.1349 13.5151Z" fill="#97ABDF"/>
<path d="M9.5017 50.6726V50.112C9.62072 50.0097 9.73974 49.9084 9.85876 49.8082C9.97777 49.7058 10.0957 49.6035 10.2127 49.5012C10.4925 49.2632 10.7316 49.0408 10.9299 48.8341C11.1304 48.6274 11.2838 48.428 11.3903 48.2359C11.4968 48.0438 11.5501 47.8517 11.5501 47.6596C11.5501 47.4341 11.4874 47.2649 11.3621 47.1522C11.2389 47.0394 11.0521 46.9831 10.8015 46.9831C10.7013 46.9831 10.599 46.9935 10.4946 47.0144C10.3902 47.0353 10.2847 47.0655 10.1782 47.1052C10.0738 47.1428 9.96838 47.1898 9.86189 47.2461C9.75749 47.3004 9.65517 47.361 9.55495 47.4278L9.47978 46.6385C9.57374 46.5905 9.67814 46.5456 9.79298 46.5038C9.90782 46.46 10.0289 46.4214 10.1563 46.388C10.2858 46.3546 10.4173 46.3285 10.5509 46.3097C10.6867 46.2909 10.8224 46.2815 10.9581 46.2815C11.2671 46.2815 11.5281 46.3326 11.7411 46.4349C11.9562 46.5373 12.1191 46.6834 12.2297 46.8734C12.3404 47.0634 12.3957 47.29 12.3957 47.5531C12.3957 47.7807 12.3466 48.0062 12.2485 48.2296C12.1525 48.453 12.0063 48.6785 11.81 48.9061C11.6137 49.1337 11.3684 49.3665 11.074 49.6046L10.4288 50.1276L10.3223 49.9648H11.1304C11.3517 49.9648 11.573 49.9648 11.7944 49.9648C12.0157 49.9648 12.237 49.9648 12.4584 49.9648V50.6726H9.5017ZM14.5002 50.7509C14.3561 50.7509 14.2141 50.7415 14.0742 50.7227C13.9343 50.706 13.7996 50.683 13.6702 50.6538C13.5407 50.6225 13.4196 50.586 13.3068 50.5442C13.1962 50.5024 13.096 50.4596 13.0062 50.4158L13.0719 49.661C13.1847 49.7215 13.2985 49.7758 13.4133 49.8238C13.5303 49.8718 13.6451 49.9126 13.7579 49.946C13.8727 49.9794 13.9855 50.0055 14.0961 50.0243C14.2068 50.0431 14.3133 50.0525 14.4156 50.0525C14.7184 50.0525 14.9355 49.995 15.0671 49.8802C15.1986 49.7633 15.2644 49.615 15.2644 49.4354C15.2644 49.2246 15.1777 49.0638 15.0044 48.9531C14.8311 48.8424 14.5858 48.7871 14.2684 48.7871C14.1849 48.7871 14.1034 48.7871 14.0241 48.7871C13.9447 48.7871 13.8644 48.7871 13.7829 48.7871V48.1482C13.8539 48.1482 13.926 48.1482 13.999 48.1482C14.0742 48.1482 14.1483 48.1482 14.2214 48.1482C14.4365 48.1482 14.6108 48.1221 14.7445 48.0699C14.8802 48.0156 14.9794 47.9425 15.042 47.8506C15.1046 47.7588 15.136 47.6523 15.136 47.5312C15.136 47.3474 15.0671 47.2106 14.9292 47.1209C14.7935 47.029 14.6171 46.9831 14.3999 46.9831C14.3018 46.9831 14.2005 46.9935 14.0961 47.0144C13.9917 47.0332 13.8863 47.0614 13.7798 47.0989C13.6754 47.1344 13.571 47.1783 13.4666 47.2305C13.3643 47.2827 13.263 47.3412 13.1628 47.4059L13.0845 46.6417C13.1784 46.5915 13.2807 46.5446 13.3914 46.5007C13.5042 46.4569 13.6232 46.4193 13.7485 46.388C13.8737 46.3546 14.0022 46.3285 14.1337 46.3097C14.2653 46.2888 14.3978 46.2783 14.5315 46.2783C14.8322 46.2783 15.0911 46.3232 15.3082 46.413C15.5254 46.5028 15.6914 46.6291 15.8062 46.792C15.9232 46.9549 15.9816 47.148 15.9816 47.3714C15.9816 47.551 15.9451 47.7076 15.872 47.8412C15.7989 47.9749 15.7018 48.0845 15.5807 48.1701C15.4596 48.2536 15.3249 48.3121 15.1767 48.3455V48.4113C15.2894 48.4321 15.4001 48.4687 15.5087 48.5209C15.6193 48.5731 15.7196 48.6441 15.8094 48.7339C15.9012 48.8216 15.9733 48.9291 16.0255 49.0565C16.0798 49.1838 16.1069 49.3321 16.1069 49.5012C16.1069 49.7393 16.0484 49.9522 15.9315 50.1402C15.8167 50.3281 15.6402 50.4774 15.4022 50.588C15.1662 50.6966 14.8656 50.7509 14.5002 50.7509ZM16.6283 50.6726V50.112C16.7474 50.0097 16.8664 49.9084 16.9854 49.8082C17.1044 49.7058 17.2224 49.6035 17.3393 49.5012C17.6191 49.2632 17.8582 49.0408 18.0566 48.8341C18.257 48.6274 18.4105 48.428 18.517 48.2359C18.6235 48.0438 18.6767 47.8517 18.6767 47.6596C18.6767 47.4341 18.6141 47.2649 18.4888 47.1522C18.3656 47.0394 18.1787 46.9831 17.9281 46.9831C17.8279 46.9831 17.7256 46.9935 17.6212 47.0144C17.5168 47.0353 17.4113 47.0655 17.3049 47.1052C17.2005 47.1428 17.095 47.1898 16.9885 47.2461C16.8841 47.3004 16.7818 47.361 16.6816 47.4278L16.6064 46.6385C16.7004 46.5905 16.8048 46.5456 16.9196 46.5038C17.0345 46.46 17.1556 46.4214 17.2829 46.388C17.4124 46.3546 17.5439 46.3285 17.6776 46.3097C17.8133 46.2909 17.949 46.2815 18.0847 46.2815C18.3938 46.2815 18.6548 46.3326 18.8678 46.4349C19.0828 46.5373 19.2457 46.6834 19.3564 46.8734C19.467 47.0634 19.5224 47.29 19.5224 47.5531C19.5224 47.7807 19.4733 48.0062 19.3751 48.2296C19.2791 48.453 19.1329 48.6785 18.9367 48.9061C18.7404 49.1337 18.495 49.3665 18.2006 49.6046L17.5554 50.1276L17.4489 49.9648H18.257C18.4783 49.9648 18.6997 49.9648 18.921 49.9648C19.1423 49.9648 19.3637 49.9648 19.585 49.9648V50.6726H16.6283Z" fill="#97ABDF"/>
<path d="M17.8714 40.7755C17.8714 39.5958 17.8714 38.4526 17.8714 37.3459C17.8714 36.2288 17.8714 34.9656 17.8714 33.5561V26.9632C17.8714 25.4911 17.8714 24.1809 17.8714 23.0325C17.8714 21.8736 17.8714 20.6886 17.8714 19.4776L20.2831 24.0347H17.1511C16.0131 24.0347 15.0056 24.0347 14.1286 24.0347C13.2621 24.0347 12.4373 24.0347 11.6543 24.0347V18.444H30.5249V24.0347C29.7419 24.0347 28.9119 24.0347 28.0349 24.0347C27.1684 24.0347 26.1661 24.0347 25.0282 24.0347H21.8961L24.3078 19.4776C24.3078 20.6886 24.3078 21.8736 24.3078 23.0325C24.3078 24.1809 24.3078 25.4911 24.3078 26.9632V33.5561C24.3078 34.9656 24.3078 36.2288 24.3078 37.3459C24.3078 38.4526 24.3078 39.5958 24.3078 40.7755H17.8714ZM31.8071 40.7755C31.8071 39.6689 31.8071 38.5987 31.8071 37.5652C31.8071 36.5316 31.8071 35.3623 31.8071 34.0573V25.3345C31.8071 24.0713 31.8071 22.8184 31.8071 21.5761C31.8071 20.3232 31.8071 19.0652 31.8071 17.8019L37.6484 17.3478C37.6484 18.5588 37.6484 19.8273 37.6484 21.1532C37.6484 22.4687 37.6484 23.8624 37.6484 25.3345V27.0415H38.1182C38.4314 26.5926 38.7968 26.1854 39.2144 25.82C39.632 25.4546 40.107 25.1675 40.6395 24.9587C41.1824 24.7394 41.7879 24.6298 42.4561 24.6298C43.9803 24.6298 45.1548 25.0892 45.9796 26.0079C46.8044 26.9162 47.2168 28.2995 47.2168 30.1579C47.2168 30.8469 47.2168 31.5099 47.2168 32.1467C47.2168 32.7731 47.2168 33.41 47.2168 34.0573C47.2168 35.3518 47.2168 36.5211 47.2168 37.5652C47.2168 38.5987 47.2168 39.6689 47.2168 40.7755H41.3755C41.3755 39.6689 41.3755 38.6092 41.3755 37.5965C41.3755 36.5838 41.3755 35.5137 41.3755 34.3861V32.1311C41.3755 31.4002 41.2659 30.8521 41.0466 30.4867C40.8274 30.1109 40.4307 29.923 39.8565 29.923C39.5433 29.923 39.2509 29.9856 38.9795 30.1109C38.7185 30.2362 38.4731 30.4084 38.2435 30.6277C38.0242 30.8469 37.8258 31.087 37.6484 31.348V34.3861C37.6484 35.5241 37.6484 36.5994 37.6484 37.6121C37.6484 38.6144 37.6484 39.6689 37.6484 40.7755H31.8071Z" fill="black"/>
<path d="M57.7711 41.2297C56.2677 41.2297 54.9731 41.0052 53.8873 40.5563C52.8016 40.1073 51.9037 39.4966 51.1938 38.724C50.4943 37.941 49.9775 37.0536 49.6434 36.0618C49.3093 35.0595 49.1423 34.0103 49.1423 32.9141C49.1423 31.348 49.4555 29.9438 50.0819 28.7015C50.7083 27.4486 51.6479 26.4568 52.9007 25.726C54.164 24.9952 55.7457 24.6298 57.6458 24.6298C59.1074 24.6298 60.3759 24.8438 61.4512 25.2719C62.5266 25.6895 63.4192 26.2793 64.1291 27.0415C64.8391 27.7932 65.3663 28.6701 65.7108 29.6724C66.0553 30.6747 66.2276 31.7552 66.2276 32.9141C66.2276 34.501 65.904 35.9208 65.2567 37.1737C64.6198 38.4265 63.6698 39.4183 62.4065 40.1491C61.1537 40.8695 59.6085 41.2297 57.7711 41.2297ZM57.7554 36.5316C58.3192 36.5316 58.789 36.3645 59.1648 36.0305C59.5407 35.6859 59.8173 35.2422 59.9948 34.6993C60.1828 34.146 60.2767 33.5509 60.2767 32.9141C60.2767 32.1415 60.1671 31.489 59.9479 30.9565C59.7286 30.4241 59.4258 30.0221 59.0396 29.7507C58.6637 29.4793 58.2252 29.3435 57.7241 29.3435C57.1603 29.3435 56.6801 29.5001 56.2834 29.8133C55.8971 30.1265 55.5995 30.5546 55.3907 31.0975C55.1924 31.6299 55.0932 32.2355 55.0932 32.9141C55.0932 33.5509 55.1924 34.146 55.3907 34.6993C55.5995 35.2422 55.9023 35.6859 56.299 36.0305C56.6957 36.3645 57.1812 36.5316 57.7554 36.5316ZM75.6145 41.2297C74.393 41.2297 73.3385 41.0626 72.4511 40.7285C71.5741 40.384 70.9007 39.8202 70.4309 39.0372C69.9715 38.2438 69.7419 37.1841 69.7419 35.8582C69.7419 35.2944 69.7419 34.7046 69.7419 34.0886C69.7419 33.4726 69.7419 32.7992 69.7419 32.0684C69.7419 31.3272 69.7419 30.5024 69.7419 29.5941C69.7419 28.6858 69.7419 27.6574 69.7419 26.509C69.7419 25.2562 69.7419 24.1235 69.7419 23.1108C69.7419 22.0981 69.7419 21.0645 69.7419 20.01L75.5048 19.0234C75.5048 19.8586 75.5048 20.6625 75.5048 21.4351C75.5048 22.1972 75.5048 22.9855 75.5048 23.7998C75.5048 24.6141 75.5048 25.5172 75.5048 26.509V33.9007C75.5048 34.7463 75.6458 35.3988 75.9277 35.8582C76.2095 36.3071 76.6898 36.5316 77.3684 36.5316C77.6712 36.5316 78 36.4742 78.355 36.3593C78.7204 36.2445 79.091 36.067 79.4669 35.8269L79.7644 40.478C79.4617 40.645 79.0806 40.786 78.6212 40.9008C78.1723 41.0156 77.6816 41.0992 77.1492 41.1514C76.6272 41.2036 76.1156 41.2297 75.6145 41.2297ZM67.4555 29.4375V25.0996H79.7174V29.4375C78.7778 29.4375 77.833 29.4375 76.8829 29.4375C75.9433 29.4375 75.035 29.4375 74.1581 29.4375H71.5115H67.4555ZM81.9471 40.7755C81.9471 39.6689 81.9471 38.5987 81.9471 37.5652C81.9471 36.5316 81.9471 35.3623 81.9471 34.0573V25.3345C81.9471 24.0713 81.9471 22.8184 81.9471 21.5761C81.9471 20.3232 81.9471 19.0652 81.9471 17.8019L87.7883 17.3478C87.7883 18.5588 87.7883 19.8273 87.7883 21.1532C87.7883 22.4687 87.7883 23.8624 87.7883 25.3345V27.0415H88.2581C88.5714 26.5926 88.9368 26.1854 89.3544 25.82C89.772 25.4546 90.247 25.1675 90.7794 24.9587C91.3223 24.7394 91.9279 24.6298 92.596 24.6298C94.1203 24.6298 95.2948 25.0892 96.1196 26.0079C96.9444 26.9162 97.3567 28.2995 97.3567 30.1579C97.3567 30.8469 97.3567 31.5099 97.3567 32.1467C97.3567 32.7731 97.3567 33.41 97.3567 34.0573C97.3567 35.3518 97.3567 36.5211 97.3567 37.5652C97.3567 38.5987 97.3567 39.6689 97.3567 40.7755H91.5155C91.5155 39.6689 91.5155 38.6092 91.5155 37.5965C91.5155 36.5838 91.5155 35.5137 91.5155 34.3861V32.1311C91.5155 31.4002 91.4059 30.8521 91.1866 30.4867C90.9674 30.1109 90.5706 29.923 89.9964 29.923C89.6832 29.923 89.3909 29.9856 89.1195 30.1109C88.8585 30.2362 88.6131 30.4084 88.3834 30.6277C88.1642 30.8469 87.9658 31.087 87.7883 31.348V34.3861C87.7883 35.5241 87.7883 36.5994 87.7883 37.6121C87.7883 38.6144 87.7883 39.6689 87.7883 40.7755H81.9471ZM108.43 41.2297C106.321 41.2297 104.604 40.8747 103.278 40.1648C101.963 39.4548 100.997 38.4787 100.381 37.2363C99.7649 35.9835 99.4569 34.5427 99.4569 32.9141C99.4569 31.2958 99.7388 29.8655 100.303 28.6232C100.877 27.3703 101.738 26.3942 102.887 25.6947C104.035 24.9848 105.486 24.6298 107.24 24.6298C108.733 24.6298 110.001 24.8856 111.046 25.3972C112.1 25.8983 112.904 26.6709 113.457 27.7149C114.021 28.7484 114.303 30.0796 114.303 31.7082C114.303 32.1363 114.287 32.5173 114.256 32.8514C114.235 33.1855 114.198 33.5144 114.146 33.838L109.198 32.1154C109.218 31.9901 109.234 31.8596 109.245 31.7239C109.255 31.5777 109.26 31.4472 109.26 31.3324C109.26 30.4554 109.078 29.7664 108.712 29.2652C108.347 28.7537 107.877 28.4979 107.303 28.4979C106.875 28.4979 106.488 28.6336 106.144 28.905C105.81 29.1661 105.538 29.5576 105.33 30.0796C105.131 30.5911 105.032 31.2332 105.032 32.0058V32.9924C105.032 33.7441 105.173 34.3809 105.455 34.9029C105.747 35.4145 106.196 35.806 106.802 36.0774C107.407 36.3489 108.195 36.4846 109.166 36.4846C109.542 36.4846 110.001 36.4481 110.544 36.375C111.098 36.2915 111.667 36.1714 112.251 36.0148C112.836 35.8582 113.374 35.6598 113.864 35.4197L114.052 40.2587C113.645 40.4362 113.165 40.598 112.612 40.7442C112.058 40.8904 111.432 41.0052 110.732 41.0887C110.033 41.1827 109.265 41.2297 108.43 41.2297ZM101.681 33.838V31.3011L110.779 31.0505L114.146 31.6143V33.838H101.681ZM115.598 40.7755C115.974 40.0343 116.303 39.3922 116.585 38.8493C116.877 38.3064 117.149 37.7896 117.399 37.2989C117.66 36.8083 117.937 36.2862 118.229 35.7329L120.156 32.0371L120.171 33.2273L118.198 29.829C117.895 29.307 117.608 28.8111 117.337 28.3413C117.065 27.8715 116.778 27.3808 116.475 26.8692C116.183 26.3472 115.849 25.7573 115.473 25.0996L121.957 24.9273C122.197 25.5016 122.421 26.0444 122.63 26.556C122.839 27.0571 123.053 27.5844 123.272 28.1377L124.118 30.1579H124.525L125.323 28.169C125.532 27.6157 125.731 27.1041 125.919 26.6343C126.107 26.1645 126.305 25.6529 126.514 25.0996H133.091C132.673 25.7887 132.308 26.3837 131.995 26.8849C131.692 27.3756 131.405 27.8454 131.133 28.2943C130.862 28.7432 130.559 29.2391 130.225 29.782L128.142 33.196L127.829 32.0214L130.147 35.7956C130.627 36.5786 131.092 37.3407 131.541 38.082C132 38.8128 132.559 39.7106 133.216 40.7755H126.263C126.054 40.2535 125.861 39.7785 125.684 39.3504C125.517 38.9119 125.323 38.4317 125.104 37.9097L124.227 35.7173H123.867L123.1 37.8001C122.901 38.343 122.719 38.8336 122.552 39.2721C122.385 39.7106 122.197 40.2117 121.988 40.7755H115.598Z" fill="black"/>
<defs>
<filter id="filter0_f_78_553" x="0.912771" y="0.907431" width="57.3211" height="58.1855" filterUnits="userSpaceOnUse" color-interpolation-filters="sRGB">
<feFlood flood-opacity="0" result="BackgroundImageFix"/>
<feBlend mode="normal" in="SourceGraphic" in2="BackgroundImageFix" result="shape"/>
<feGaussianBlur stdDeviation="2.08803" result="effect1_foregroundBlur_78_553"/>
</filter>
</defs>
</svg>
