<svg width="20" height="20" viewBox="0 0 12 12" fill="none" xmlns="http://www.w3.org/2000/svg">
<path fill-rule="evenodd" clip-rule="evenodd" d="M1.80005 2.54995C1.80005 2.19191 1.94228 1.84853 2.19545 1.59536C2.44863 1.34218 2.79201 1.19995 3.15005 1.19995H6.45005C6.80809 1.19995 7.15147 1.34218 7.40464 1.59536C7.65782 1.84853 7.80005 2.19191 7.80005 2.54995V3.74995C7.80005 3.8693 7.75264 3.98376 7.66825 4.06815C7.58386 4.15254 7.4694 4.19995 7.35005 4.19995C7.2307 4.19995 7.11624 4.15254 7.03185 4.06815C6.94746 3.98376 6.90005 3.8693 6.90005 3.74995V2.54995C6.90005 2.4306 6.85264 2.31614 6.76825 2.23175C6.68386 2.14736 6.5694 2.09995 6.45005 2.09995H3.15005C3.0307 2.09995 2.91624 2.14736 2.83185 2.23175C2.74746 2.31614 2.70005 2.4306 2.70005 2.54995V9.44995C2.70005 9.69835 2.90165 9.89995 3.15005 9.89995H6.45005C6.5694 9.89995 6.68386 9.85254 6.76825 9.76815C6.85264 9.68376 6.90005 9.5693 6.90005 9.44995V8.24995C6.90005 8.1306 6.94746 8.01615 7.03185 7.93175C7.11624 7.84736 7.2307 7.79995 7.35005 7.79995C7.4694 7.79995 7.58386 7.84736 7.66825 7.93175C7.75264 8.01615 7.80005 8.1306 7.80005 8.24995V9.44995C7.80005 9.80799 7.65782 10.1514 7.40464 10.4045C7.15147 10.6577 6.80809 10.8 6.45005 10.8H3.15005C2.79201 10.8 2.44863 10.6577 2.19545 10.4045C1.94228 10.1514 1.80005 9.80799 1.80005 9.44995V2.54995Z" fill="white"/>
<path fill-rule="evenodd" clip-rule="evenodd" d="M11.4 6.00004C11.4 5.88069 11.3525 5.76623 11.2681 5.68184C11.1838 5.59745 11.0693 5.55004 10.9499 5.55004H5.22235L5.85115 4.98424C5.89647 4.94509 5.93351 4.89728 5.96012 4.84363C5.98672 4.78997 6.00235 4.73154 6.00608 4.67177C6.00981 4.612 6.00158 4.55208 5.98185 4.49554C5.96213 4.43899 5.93132 4.38695 5.89123 4.34246C5.85113 4.29797 5.80256 4.26194 5.74836 4.23646C5.69416 4.21099 5.63542 4.19659 5.57558 4.19411C5.51575 4.19163 5.45602 4.20112 5.39989 4.22202C5.34377 4.24293 5.29239 4.27482 5.24875 4.31584L3.74875 5.66584C3.70196 5.70803 3.66454 5.75958 3.63894 5.81715C3.61333 5.87472 3.6001 5.93703 3.6001 6.00004C3.6001 6.06305 3.61333 6.12535 3.63894 6.18292C3.66454 6.24049 3.70196 6.29204 3.74875 6.33424L5.24875 7.68424C5.29239 7.72526 5.34377 7.75715 5.39989 7.77805C5.45602 7.79896 5.51575 7.80845 5.57558 7.80597C5.63542 7.80349 5.69416 7.78909 5.74836 7.76361C5.80256 7.73814 5.85113 7.70211 5.89123 7.65762C5.93132 7.61313 5.96213 7.56109 5.98185 7.50454C6.00158 7.44799 6.00981 7.38808 6.00608 7.3283C6.00235 7.26853 5.98672 7.21011 5.96012 7.15645C5.93351 7.1028 5.89647 7.05499 5.85115 7.01584L5.22235 6.45004H10.9499C11.009 6.45004 11.0676 6.4384 11.1222 6.41578C11.1768 6.39317 11.2264 6.36002 11.2681 6.31824C11.3099 6.27645 11.3431 6.22684 11.3657 6.17225C11.3883 6.11765 11.4 6.05913 11.4 6.00004Z" fill="white"/>
</svg>
