<svg width="20" height="20" viewBox="0 0 20 20" fill="none" xmlns="http://www.w3.org/2000/svg">
<path d="M9.61299 8C10.4086 8 11.1717 7.68393 11.7343 7.12132C12.2969 6.55871 12.613 5.79565 12.613 5C12.613 4.20435 12.2969 3.44129 11.7343 2.87868C11.1717 2.31607 10.4086 2 9.61299 2C8.81734 2 8.05428 2.31607 7.49167 2.87868C6.92906 3.44129 6.61299 4.20435 6.61299 5C6.61299 5.79565 6.92906 6.55871 7.49167 7.12132C8.05428 7.68393 8.81734 8 9.61299 8ZM3.07799 14.493C2.98516 14.7411 2.97491 15.0126 3.04879 15.267C3.12266 15.5214 3.2767 15.7452 3.48799 15.905C5.23933 17.266 7.39497 18.0034 9.61299 18C11.923 18 14.051 17.216 15.744 15.9C16.174 15.567 16.348 14.997 16.152 14.49C15.6442 13.168 14.7476 12.0311 13.5803 11.2292C12.4131 10.4274 11.0301 9.99829 9.61396 9.99861C8.19782 9.99894 6.81507 10.4287 5.64819 11.231C4.48131 12.0334 3.58515 13.1708 3.07799 14.493Z" fill="white"/>
</svg>
