<svg width="20" height="20" viewBox="0 0 20 20" fill="none" xmlns="http://www.w3.org/2000/svg">
<path d="M11 5C11 5.79565 10.6839 6.55871 10.1213 7.12132C9.55871 7.68393 8.79565 8 8 8C7.20435 8 6.44128 7.68393 5.87868 7.12132C5.31607 6.55871 5 5.79565 5 5C5 4.20435 5.31607 3.44129 5.87868 2.87868C6.44128 2.31607 7.20435 2 8 2C8.79565 2 9.55871 2.31607 10.1213 2.87868C10.6839 3.44129 11 4.20435 11 5ZM2.615 16.428C2.41893 16.3058 2.26145 16.1306 2.16076 15.9227C2.06007 15.7148 2.02028 15.4826 2.046 15.253C2.23035 13.8041 2.93675 12.4721 4.03281 11.5066C5.12887 10.5412 6.53937 10.0086 8 10.0086C9.46062 10.0086 10.8711 10.5412 11.9672 11.5066C13.0632 12.4721 13.7696 13.8041 13.954 15.253C14.012 15.72 13.782 16.173 13.384 16.427C11.7772 17.4566 9.90835 18.0027 8 18C6.0914 18.0032 4.22214 17.4575 2.615 16.428ZM16.25 5.75C16.25 5.55109 16.171 5.36032 16.0303 5.21967C15.8897 5.07902 15.6989 5 15.5 5C15.3011 5 15.1103 5.07902 14.9697 5.21967C14.829 5.36032 14.75 5.55109 14.75 5.75V7.75H12.75C12.5511 7.75 12.3603 7.82902 12.2197 7.96967C12.079 8.11032 12 8.30109 12 8.5C12 8.69891 12.079 8.88968 12.2197 9.03033C12.3603 9.17098 12.5511 9.25 12.75 9.25H14.75V11.25C14.75 11.4489 14.829 11.6397 14.9697 11.7803C15.1103 11.921 15.3011 12 15.5 12C15.6989 12 15.8897 11.921 16.0303 11.7803C16.171 11.6397 16.25 11.4489 16.25 11.25V9.25H18.25C18.4489 9.25 18.6397 9.17098 18.7803 9.03033C18.921 8.88968 19 8.69891 19 8.5C19 8.30109 18.921 8.11032 18.7803 7.96967C18.6397 7.82902 18.4489 7.75 18.25 7.75H16.25V5.75Z" fill="white"/>
</svg>
