<svg width="150" height="150" viewBox="0 0 291 327" fill="none" xmlns="http://www.w3.org/2000/svg">
<g clip-path="url(#clip0_221_1850)">
<path d="M65.6303 261.35C68.5375 260.321 71.5159 259.507 74.5419 258.912L74.9081 260.253C74.9491 260.411 75.0456 260.549 75.1801 260.641C75.3146 260.734 75.4781 260.775 75.6406 260.757L87.6215 259.365C90.9175 251.86 96.969 240.49 97.0562 240.316C96.969 237.478 97.0562 235.093 97.0562 232.376C90.2025 234.919 77.524 239.742 70.8971 242.823C70.7472 242.92 70.6314 243.061 70.5657 243.226C70.5 243.392 70.4878 243.574 70.5308 243.746C70.5308 243.746 70.6529 244.182 70.8099 244.808C67.5661 244.808 57.8524 244.338 55.5155 246.55C55.1522 247.055 54.9736 247.67 55.0097 248.291C54.8702 250.694 56.0735 269.359 57.9919 274.844C58.9859 277.716 61.0787 277.403 62.5087 274.652C64.1638 270.509 65.2264 266.154 65.6652 261.715C65.6652 261.489 65.6129 261.506 65.6303 261.35ZM63.6248 245.766C65.7524 245.592 66.4151 245.627 70.9843 245.487C71.8039 248.587 73.4955 254.959 74.3675 258.215C71.2906 258.691 68.2536 259.395 65.2816 260.322C64.3555 255.52 63.8016 250.653 63.6248 245.766Z" fill="#97ABDF"/>
<path d="M226.143 93.3786C226.579 92.7692 226.021 91.9857 225.55 91.3763C226.883 90.0065 228.363 88.7863 229.962 87.7373C232.66 86.3947 235.127 84.6314 237.269 82.5138C238.159 81.5909 239.833 79.6931 239.205 78.5787C238.577 77.4644 237.461 77.3947 235.944 78.0389C236.601 77.3499 237.138 76.5553 237.531 75.6884C238.019 74.3303 236.868 73.2333 234.374 74.2432C235.281 72.798 235.49 71.2832 233.956 70.5519C232.717 69.9599 230.904 71.3703 229.857 72.2931C227.803 74.0855 225.874 76.0169 224.085 78.0738C222.986 75.7754 221.242 73.1289 219.062 73.9646C216.882 74.8004 218.574 78.5439 219.69 80.5811L215.731 83.3147C215.133 82.9922 214.457 82.8415 213.778 82.8794C209.279 83.6455 188.613 99.3509 186.52 99.3509C184.916 99.3509 162 88.3815 142.189 85.2126C142.151 85.0939 142.08 84.9885 141.984 84.9084C141.889 84.8283 141.772 84.7768 141.649 84.7599C138.193 84.1712 134.69 83.9088 131.185 83.9763C131.079 83.9835 130.975 84.0137 130.882 84.0648C130.789 84.1159 130.708 84.1867 130.644 84.2723H129.179C128.831 82.862 127.54 79.606 127.087 78.3524C128.273 77.3251 129.912 76.8027 130.766 75.1486C132.336 72.0842 132.266 66.7562 131.83 63.3435C133.801 61.8461 133.853 59.4433 133.4 56.9882C133.225 55.9957 132.685 53.7496 131.848 53.1925C131.377 52.8791 130.383 53.1925 129.528 53.5059C128.674 51.5209 128.674 52.4264 129.023 51.6254C129.184 51.2563 129.279 50.8612 129.302 50.4588C130.226 50.7374 132.144 48.8918 131.481 46.4541C131.134 45.5815 130.708 44.7423 130.208 43.9469C130.453 43.3549 130.976 42.641 129.336 40.4645C128.63 39.7042 127.714 39.1708 126.703 38.9323H125.901C125.322 38.0935 124.473 37.4788 123.494 37.1911C122.017 36.8151 120.451 37.034 119.134 37.8005C118.786 38.0617 118.507 38.4099 118.158 38.6537C117.369 38.1756 116.464 37.9228 115.542 37.9228C114.619 37.9228 113.714 38.1756 112.926 38.6537C112.464 38.8346 112.044 39.1067 111.69 39.4538C111.337 39.8009 111.057 40.2157 110.868 40.6735C110.014 40.3791 109.107 40.2658 108.206 40.3407C107.305 40.4157 106.43 40.6773 105.636 41.1088C102.624 42.7398 100.37 45.4834 99.358 48.7525C99.3298 49.2454 99.3298 49.7396 99.358 50.2325H99.1662C96.5503 49.8494 93.2193 56.048 95.8876 60.871C96.2015 61.4456 96.6026 61.9854 96.9863 62.6122C98.1024 64.3534 97.6664 64.8757 100.16 66.9999C100.893 67.6268 101.015 67.5745 101.468 67.9576C101.922 68.3406 101.747 68.1491 102.009 69.1242C102.151 69.6986 102.407 70.239 102.76 70.7142C103.113 71.1894 103.557 71.5899 104.067 71.8926C104.252 73.5957 104.979 75.1946 106.142 76.4545C106.51 76.8658 106.94 77.2182 107.415 77.4992C107.543 77.5714 107.687 77.6131 107.834 77.6211C108.357 80.8596 109.002 85.0733 109.281 86.8667L107.729 87.7024C105.698 88.5182 103.723 89.4663 101.817 90.5405C101.667 90.6439 101.562 90.799 101.521 90.9758C99.6719 91.9509 97.928 92.8737 96.9339 93.4657C83.087 101.667 43.7611 155.73 43.36 158.202C43.3157 158.344 43.3157 158.496 43.36 158.638C43.9237 159.536 44.6105 160.35 45.4004 161.058C45.157 161.501 44.8645 161.916 44.5284 162.294C41.0405 164.575 35.8087 167.97 33.001 171C32.804 171.175 32.6563 171.399 32.5723 171.648C32.4883 171.898 32.471 172.165 32.5221 172.424C32.5732 172.682 32.6908 172.923 32.8635 173.122C33.0362 173.321 33.2579 173.472 33.5067 173.559C34.0299 173.734 34.1171 173.681 37.5178 171.818C36.5832 172.637 35.8188 173.631 35.2681 174.743C35.0414 175.701 35.9134 176.258 37.012 176.084C37.6302 175.922 38.2188 175.664 38.756 175.318C38.4414 175.803 38.2741 176.368 38.2741 176.946C38.2741 177.524 38.4414 178.089 38.756 178.574C40.4999 180.768 45.0691 173.855 47.4757 172.149C48.4523 173.385 49.7777 176.276 51.8879 175.51C53.719 174.831 51.7135 170.808 51.8879 169.642C52.5975 168.962 53.3551 168.333 54.155 167.761C55.5003 168.757 57.0385 169.463 58.6718 169.833C61.5493 169.833 91.58 139.572 93.8646 137.152C93.0449 144.848 88.9118 177.878 89.7838 184.302C90.1849 187.21 97.1781 187.628 100.125 187.785C99.236 208.679 98.643 240.333 98.4861 240.664C93.8646 250.606 92.609 253.322 91.0569 256.335C88.2317 261.732 76.338 281.651 74.9951 286.178C74.8033 286.892 74.7859 287.171 75.5357 288.494C73.2884 290.853 71.2026 293.36 69.2924 295.998C68.3333 297.74 72.449 313.967 75.3614 319.713C76.0241 321.002 77.1053 322.987 78.5528 322.934C82.9126 322.778 82.8952 307.142 82.7731 302.772C82.7724 302.637 82.7228 302.507 82.6336 302.406C83.4239 301.228 84.2859 300.1 85.2146 299.028C85.769 299.409 86.3521 299.747 86.9586 300.038C87.5515 300.299 88.2142 299.846 88.7025 299.446C94.5099 294.884 125.831 255.917 132.545 237.53C135.597 229.138 139.661 217.541 140.812 209.323C141.515 204.127 141.58 198.864 141.003 193.653C141.003 193.579 141.033 193.508 141.085 193.456C141.137 193.403 141.208 193.374 141.282 193.374C141.356 193.374 141.427 193.403 141.48 193.456C141.532 193.508 141.561 193.579 141.561 193.653C142.435 198.894 142.605 204.228 142.067 209.515C140.777 220.919 131.76 244.686 126.947 253.427C131.098 252.661 139.538 250.989 143.619 249.77C157.222 245.644 169.778 233.334 170.877 219.509C171.233 212.996 171.233 206.469 170.877 199.956C170.759 190.964 169.589 182.018 167.389 173.298C171.086 171.296 174.47 168.945 175.568 166.786C177.923 162.172 171.697 135.619 170.337 128.167C177.783 128.986 190.462 130.466 196.374 125.851C203.14 120.419 217.754 105.132 226.143 93.3786ZM81.8314 301.814C78.6923 299.916 74.2976 295.406 73.6349 291.872C74.3499 290.967 75.0998 290.131 75.7973 289.191C78.1608 292.791 81.1075 295.975 84.5171 298.61C83.5592 299.624 82.6624 300.694 81.8314 301.814ZM220.475 81.0686C220.565 81.0111 220.63 80.9213 220.656 80.8177C220.682 80.7141 220.667 80.6045 220.614 80.5114C220.004 79.3797 218.173 75.3924 219.446 74.9397C220.178 74.6611 220.824 75.1138 221.364 75.7232C222.19 76.7688 222.833 77.9462 223.265 79.2055C223.298 79.3079 223.357 79.3996 223.438 79.4708C223.518 79.542 223.616 79.59 223.722 79.6097C223.828 79.6293 223.937 79.62 224.038 79.5825C224.138 79.5451 224.227 79.4809 224.294 79.3971C226.038 77.4644 230.119 73.0592 232.421 71.8752C234.165 70.9698 234.583 72.6413 230.311 76.5415C229.329 77.2886 228.386 78.0848 227.486 78.9269C227.436 78.9953 227.409 79.0776 227.409 79.162C227.409 79.2464 227.436 79.3287 227.486 79.3971C227.486 79.8498 227.852 80.3547 228.48 79.8846C229.996 78.556 231.598 77.3287 233.275 76.2107C234.132 75.6033 235.127 75.2202 236.17 75.0964C235.647 76.6982 230.782 81.0512 230.363 81.5387C230.23 81.6575 230.15 81.8236 230.138 82.0012C230.127 82.1788 230.186 82.3537 230.303 82.4884C230.419 82.623 230.584 82.7066 230.762 82.7211C230.939 82.7356 231.116 82.6799 231.253 82.566C233.188 81.3123 236.572 78.3872 237.74 78.8225C238.908 79.2578 235.438 82.4963 234.566 83.2625C229.561 87.598 230.851 84.8121 225.061 90.6972C222.541 87.9408 219.647 85.5497 216.464 83.5933L220.475 81.0686ZM144.701 164.349C144.404 161.946 144.038 159.352 143.584 156.653L144.334 155.66C147.822 151.185 148.869 144.064 148.537 138.475C150.403 146.641 151.886 154.668 153.019 162.642L144.701 164.349ZM118.768 104.731C114.182 101.249 106.805 95.2417 102.515 91.1325L109.49 87.6502C115.896 93.6239 121.379 100.512 125.761 108.092C132.462 120.381 137.432 133.535 140.533 147.181L115.664 112.061L118.908 105.34C118.951 105.237 118.96 105.123 118.935 105.014C118.91 104.904 118.852 104.806 118.768 104.731ZM130.557 84.9862C130.662 85.1777 131.865 87.7373 133.696 92.2121C133.696 92.4036 133.365 96.7565 133.208 98.2887C130.982 97.4079 128.883 96.2369 126.965 94.8064C127.348 93.2916 129.075 86.414 129.197 84.8643L130.557 84.9862ZM124.366 103.686C124.488 103.373 124.61 102.955 124.75 102.468L125.918 103.077C126.581 103.512 126.319 102.189 126.912 106.02C126.912 106.664 127.087 107.378 127.122 108.161C126.319 106.716 125.325 105.166 124.384 103.686H124.366ZM123.39 102.224C120.095 97.5581 116.344 93.2304 112.193 89.3043L125.325 94.9979C124.82 96.1993 124.087 99.8732 123.407 102.224H123.39ZM136.8 112.427C135.057 107.674 133.714 102.363 133.051 100.97C133.09 100.536 133.09 100.099 133.051 99.6643C133.303 99.758 133.567 99.8166 133.836 99.8384C134.004 99.8403 134.167 99.7814 134.295 99.6726C134.424 99.5638 134.508 99.4125 134.533 99.2464C134.673 98.6718 134.9 95.764 134.934 95.1198C140.008 107.908 144.243 121.012 147.613 134.348C137.76 113.42 139.277 119.479 136.818 112.427H136.8ZM151.223 145.666C147.247 126.635 140.254 102.903 132.301 85.317C135.222 85.3187 138.137 85.5515 141.021 86.0135C142.503 99.2464 141.265 98.7937 142.259 99.316C143.253 99.8384 149.235 102.241 150.124 102.607C150.037 103.948 151.293 142.288 151.24 145.666H151.223ZM131.15 54.3068C132.059 56.2876 132.38 58.4873 132.074 60.6447C131.932 61.1938 131.641 61.6927 131.231 62.0861C130.822 62.4794 130.312 62.7517 129.757 62.8726C129.202 62.9935 128.624 62.9584 128.088 62.771C127.552 62.5836 127.079 62.2514 126.721 61.8113C125.888 60.0611 125.262 58.2206 124.854 56.3266C125.325 55.7172 130.348 54.4983 131.15 54.3068ZM107.153 71.7185C106.516 71.4289 105.864 71.1732 105.2 70.9524C104.754 70.7695 104.357 70.4871 104.037 70.1268C103.718 69.7666 103.485 69.3381 103.357 68.8742C103.229 68.4102 103.209 67.9232 103.299 67.4505C103.389 66.9777 103.586 66.5317 103.875 66.1468C104.974 65.2239 105.968 65.2762 106.874 66.6517C107.45 67.7138 107.432 67.8009 107.694 67.9053C107.769 67.9384 107.85 67.955 107.932 67.9541C108.014 67.9532 108.095 67.9349 108.17 67.9002C108.244 67.8656 108.31 67.8155 108.363 67.7534C108.417 67.6912 108.456 67.6183 108.479 67.5397C108.737 66.4498 108.779 65.3199 108.601 64.2141C108.392 63.0127 108.357 57.6847 108.392 57.5106C108.901 57.7787 109.473 57.905 110.048 57.8762C113.205 57.7543 113.833 56.135 115.088 54.8118C116.536 54.951 116.832 55.6475 118.472 54.8118C119.239 54.3758 119.943 53.8368 120.564 53.2099C121.066 53.4148 121.55 53.6593 122.012 53.9412C123.057 54.443 124.236 54.5971 125.375 54.3809C126.515 54.1646 127.554 53.5895 128.342 52.7398C128.534 53.1054 128.709 53.4711 128.866 53.8541C127.263 54.3506 125.754 55.1096 124.401 56.1002C124.105 56.4659 124.541 58.4508 124.645 58.9209C123.184 59.1044 121.771 59.5591 120.477 60.2616C120.216 59.3562 119.64 57.6673 118.733 57.1972C118.46 57.1138 118.169 57.1138 117.896 57.1972C116.327 57.4409 110.694 59.1299 110.014 60.0527C109.421 60.6969 111.112 65.6766 111.635 66.495C113.641 69.5943 119.518 68.6889 120.617 65.0672C120.889 63.8518 120.889 62.5914 120.617 61.376C121.122 61.376 122.64 60.8362 122.814 60.784C124.017 63.4828 124.366 63.6395 125.761 66.5472C125.569 66.7039 125.256 66.9651 124.994 67.1392C123.756 67.9576 123.494 67.8183 123.564 68.1665C123.584 68.2356 123.629 68.295 123.69 68.3335C123.751 68.3719 123.824 68.3869 123.895 68.3755C124.627 68.271 125.342 68.072 126.023 67.7835C126.43 67.6318 126.766 67.3337 126.965 66.9477C127.453 65.8508 124.75 61.7242 123.686 60.488C123.895 60.488 124.384 60.1397 124.75 59.9482C125.238 61.8983 125.57 63.4305 127.453 64.1967C127.997 64.4018 128.577 64.4953 129.159 64.4713C129.74 64.4474 130.311 64.3066 130.836 64.0574C131.115 67.1218 131.063 72.1016 129.598 74.8178C128.848 76.2281 127 76.7679 125.814 77.9345C125.465 78.2653 125.692 78.7354 125.814 79.2404C127.749 84.6206 127.784 84.6032 127.68 85.2996C127.166 88.1903 126.45 91.0413 125.535 93.8313C125.099 93.6398 120.198 91.0455 110.606 87.3194C110.31 85.3519 108.723 74.8526 108.217 72.9199C108.252 72.2409 108.165 72.0842 107.153 71.6314V71.7185ZM119.361 64.6145C118.803 66.5124 116.17 67.3308 114.286 66.8084C112.403 66.2861 112.281 65.3284 111.391 63.0649C110.974 62.2002 110.686 61.2792 110.537 60.3313C111.112 59.7044 117.408 58.416 118.193 58.2941C119.293 60.1741 119.706 62.3773 119.361 64.5275V64.6145ZM51.1205 169.154C50.4578 169.799 51.3473 171.905 51.4868 173.734C51.4868 173.89 51.4868 174.569 51.3821 174.622C50.423 174.935 49.5336 173.49 48.9929 172.619C48.4523 171.749 47.9117 170.565 47.0571 170.878C45.3132 171.696 41.2673 177.059 39.6803 177.616C38.8781 176.084 43.4646 171.714 43.6216 171.47C43.6889 171.358 43.7241 171.23 43.7235 171.099C43.7229 170.969 43.6865 170.841 43.6181 170.73C43.5498 170.618 43.4522 170.528 43.336 170.468C43.2197 170.408 43.0893 170.381 42.9589 170.391C42.645 170.391 42.4357 170.669 41.9474 171.104C40.4622 172.552 38.7622 173.762 36.9074 174.691C38.589 172.765 40.3888 170.945 42.2962 169.241C42.3904 169.145 42.4567 169.024 42.488 168.893C42.488 168.893 42.1218 167.97 41.4068 168.336C40.3953 168.893 35.4774 171.731 33.9253 172.463C33.716 172.323 33.8381 172.114 33.9253 171.905C36.3842 168.893 41.7904 165.237 45.1039 162.921C45.4928 162.521 45.8165 162.063 46.0631 161.563C48.3579 163.695 50.806 165.656 53.3877 167.431C52.5923 167.951 51.8347 168.527 51.1205 169.154ZM91.7021 184.982C91.3184 184.738 91.0394 184.511 90.9871 184.198C90.0279 177.094 95.3644 136.838 95.2772 135.254C95.2772 135.161 95.2586 135.069 95.2225 134.983C95.1863 134.897 95.1334 134.82 95.0668 134.755C95.0001 134.69 94.9211 134.639 94.8345 134.605C94.7478 134.571 94.6552 134.555 94.5622 134.557C93.6728 134.557 95.2423 134.557 73.0245 155.8C71.5596 157.175 60.3634 167.866 58.4974 168.58C55.9338 168.388 46.2898 160.71 44.7203 158.289C47.7547 152.161 84.5519 101.736 97.2827 94.0229C98.2593 93.4309 99.9335 92.5081 101.765 91.533C102.398 92.1292 103.08 92.6709 103.805 93.1523C107.851 96.9829 113.484 101.754 117.757 105.34L114.426 111.94C114.375 112.027 114.349 112.126 114.349 112.227C114.349 112.328 114.375 112.427 114.426 112.514C141.474 151.255 141.073 150.82 141.248 150.82C142.982 159.772 144.06 168.839 144.474 177.947C144.474 180.402 144.474 180.193 144.578 180.019C144.683 179.845 144.578 180.141 144.578 180.141C140.358 184.738 98.5907 189.021 91.7021 184.982ZM188.107 127.297C180.207 128.394 171.278 126.757 169.552 126.687C168.592 122.046 166.68 117.653 163.936 113.785C163.894 113.729 163.833 113.69 163.764 113.677C163.694 113.664 163.623 113.678 163.564 113.715C163.504 113.753 163.461 113.811 163.443 113.879C163.424 113.947 163.433 114.019 163.465 114.081C164.477 116.136 167.86 124.998 168.697 127.157C168.436 127.993 176.58 161.615 174.278 166.142C172.22 170.234 160.239 175.388 155.914 176.868C155.059 167.174 153.662 157.537 151.729 147.999C152.322 142.985 151.554 113.176 151.328 102.154C151.321 102.026 151.278 101.903 151.204 101.798C151.13 101.693 151.028 101.611 150.909 101.562L143.079 98.2713C143.043 94.1336 142.781 90.0008 142.294 85.8916C161.844 89.2695 184.619 100.43 186.52 100.448C189.276 100.448 209.75 84.7773 213.987 84.1505C215.871 83.8545 223.963 90.9062 224.905 92.8563C216.638 104.383 202.111 119.531 195.38 124.772C193.211 126.22 190.708 127.089 188.107 127.297Z" fill="#97ABDF"/>
<path d="M117.565 61.1323C117.543 61.018 117.499 60.909 117.435 60.8117C117.371 60.7144 117.289 60.6306 117.192 60.5651C117.096 60.4996 116.988 60.4538 116.873 60.4301C116.759 60.4064 116.642 60.4054 116.527 60.4271C116.413 60.4488 116.303 60.4929 116.206 60.5567C116.109 60.6205 116.025 60.7029 115.959 60.7991C115.893 60.8953 115.847 61.0034 115.824 61.1173C115.8 61.2313 115.799 61.3488 115.821 61.4631C116.17 63.2043 116.239 63.6047 117.007 63.6047C117.152 63.6052 117.295 63.5696 117.422 63.5011C117.55 63.4326 117.659 63.3333 117.738 63.2123C117.818 63.0912 117.866 62.9523 117.879 62.808C117.891 62.6637 117.867 62.5186 117.809 62.3859C117.757 62.1073 117.6 61.289 117.565 61.1323ZM122.901 72.6588C124.035 72.9896 125.116 72.4499 125.081 72.1713C125.046 71.8927 125.081 72.032 123.546 71.4574C122.518 71.0744 121.384 69.7162 120.983 69.9252C120.582 70.1341 121.192 71.2485 121.332 71.4574C121.705 72.0226 122.258 72.4458 122.901 72.6588ZM154.798 56.1177C152.513 65.6767 150.839 73.7906 150.56 75.4099C150.375 76.1144 150.339 76.8498 150.456 77.5689C151.38 79.5364 163.326 83.4192 164.843 82.6531C166.36 81.887 170.302 73.0245 174.888 63.8833C177.698 63.973 180.509 63.7687 183.277 63.2739C186.19 62.7402 189.026 61.8453 191.717 60.6099C197.612 57.8937 204.064 46.2627 204.936 40.4124C205.59 34.0607 204.243 27.6635 201.082 22.1127C186.451 -3.22132 143.532 10.412 147.02 38.5493C148.016 44.9877 150.699 51.0486 154.798 56.1177ZM165.436 76.855C165.436 77.1336 165.122 77.0988 163.692 76.855C160.767 76.488 157.935 75.5849 155.339 74.191C154.118 73.5294 153.786 73.3901 153.909 73.0941C154.031 72.7981 154.292 72.9026 156.176 73.4249C156.35 73.4249 161.756 75.1661 163.308 75.7059C165.314 76.6113 165.436 76.6113 165.436 76.855ZM165.122 48.5262C166.984 48.6226 168.84 48.2389 170.511 47.4119C172.064 48.163 173.743 48.6177 175.464 48.7526C172.534 54.2024 166.587 65.3111 164.669 71.2311L157.274 69.1939C159.018 64.9106 162.872 54.8815 165.087 48.5262H165.122ZM164.512 47.081C163.21 46.8847 162.009 46.2674 161.092 45.3239C160.175 44.3803 159.594 43.1627 159.437 41.8575C158.949 38.3752 161.181 34.475 164.547 35.3978C166.657 35.9724 166.918 37.6439 166.552 39.7507C166.238 41.283 165.105 45.1309 164.477 47.0114L164.512 47.081ZM169.255 42.9022C169.441 41.7629 169.87 40.6765 170.511 39.7159C170.816 39.1923 171.262 38.7646 171.798 38.4814C172.335 38.1982 172.94 38.0709 173.545 38.114C174.836 38.4971 175.394 40.9347 174.33 42.4669C173.308 43.8216 172.035 44.9682 170.581 45.8448C170.08 45.5516 169.682 45.1125 169.438 44.5864C169.195 44.0604 169.119 43.4727 169.22 42.9022H169.255ZM153.228 20.772C161.041 11.3871 175.743 7.66099 186.363 11.5264C192.133 13.5037 196.986 17.5074 200.018 22.7917C203.025 28.0737 204.311 34.1589 203.698 40.2034C202.896 45.6185 196.722 56.8664 191.299 59.3563C186.34 61.6146 180.929 62.7105 175.481 62.56C174.888 62.56 174.26 62.56 174.034 62.9779C173.005 65.0673 171.121 69.1068 169.273 72.9026C167.996 72.2872 166.672 71.7748 165.314 71.3704C167.337 65.5897 173.72 54.2373 176.754 48.7352C179.383 48.9601 182.026 48.5043 184.428 47.4119C185.076 47.0709 185.614 46.5523 185.978 45.9168C186.342 45.2813 186.517 44.5554 186.482 43.8242C186.447 43.0931 186.204 42.387 185.782 41.7888C185.359 41.1906 184.774 40.7252 184.096 40.4472C181.393 39.1239 178.969 42.2928 177.556 44.9568C177.173 45.6533 176.737 46.4716 176.248 47.3945C174.838 47.3019 173.447 47.0148 172.115 46.5413C173.442 45.6107 174.618 44.4834 175.603 43.1982C176.155 42.3657 176.435 41.3827 176.404 40.3847C176.373 39.3867 176.032 38.423 175.429 37.6265C174.955 37.0772 174.297 36.7193 173.578 36.6199C172.859 36.5205 172.128 36.6865 171.522 37.0867C170.301 37.836 169.322 38.9213 168.704 40.2123C168.085 41.5033 167.853 42.9452 168.034 44.3648C168.224 45.1661 168.656 45.8897 169.273 46.4368C168.129 46.9098 166.901 47.1467 165.663 47.1333C166.36 45.0787 167.494 41.37 167.79 39.8552C167.976 38.9916 168.018 38.1031 167.912 37.226C167.777 36.4731 167.428 35.7751 166.905 35.216C166.382 34.6569 165.708 34.2605 164.965 34.0745C160.727 32.8731 157.606 37.5569 158.216 41.9272C158.388 43.4933 159.062 44.9624 160.136 46.1165C161.21 47.2706 162.628 48.0485 164.18 48.3347C161.948 54.6029 158.46 64.7191 156.716 69.0372L152.88 68.0447C155.339 55.7173 155.635 56.0132 155.286 55.8565C151.324 50.8124 148.788 44.7997 147.944 38.4448C147.533 35.2938 147.791 32.0916 148.702 29.0467C149.612 26.0018 151.154 23.1824 153.228 20.772ZM177.434 47.4989C178.655 45.2876 181.097 40.4472 183.468 41.6312C183.943 41.822 184.356 42.1386 184.663 42.5467C184.971 42.9548 185.16 43.439 185.212 43.9469C185.177 47.0114 180.399 47.5512 177.365 47.4989H177.434ZM244.192 55.1775C246.294 53.9435 248.776 53.5222 251.168 53.9935C253.796 54.0404 256.306 55.0893 258.183 56.925C260.061 58.7608 261.164 61.2442 261.266 63.8659C259.686 62.9506 257.838 62.6063 256.034 62.8909C251.657 63.2739 245.936 65.6419 246.704 69.8555C247.332 73.3379 251.936 72.8678 255.423 71.9275C258.911 70.9873 261.684 69.281 262.399 65.9205C266.637 69.0024 267.631 74.4 267.805 79.6757C267.805 79.7496 267.835 79.8205 267.887 79.8727C267.94 79.925 268.01 79.9543 268.085 79.9543C268.159 79.9543 268.229 79.925 268.282 79.8727C268.334 79.8205 268.364 79.7496 268.364 79.6757C268.486 73.7732 267.422 67.9925 262.591 64.632C262.641 63.1203 262.383 61.6142 261.832 60.205C261.282 58.7958 260.451 57.5127 259.39 56.4335C258.328 55.3542 257.059 54.5013 255.657 53.9262C254.256 53.3512 252.753 53.0661 251.238 53.0881C248.817 52.7351 246.349 53.2403 244.262 54.5158C243.617 54.8292 243.913 55.2994 244.192 55.1775ZM260.097 67.6617C258.127 70.2386 252.546 71.5793 249.965 71.144C249.006 70.9873 248.221 70.5868 248.012 69.5944C247.384 66.112 253.4 64.2141 256.993 64.0923C258.456 63.9803 259.915 64.3537 261.144 65.1544C261.012 66.0647 260.652 66.9271 260.097 67.6617ZM236.205 34.8232C238.071 32.5249 236.816 28.5202 231.601 28.5028C229.578 28.5028 228.602 30.5574 228.741 32.5249C229.055 37.2086 234.339 37.0693 236.205 34.8232ZM229.962 32.4378C229.962 31.2886 230.503 29.7912 231.706 29.8087C234.514 29.8087 235.804 31.1145 235.804 32.5597C235.734 35.8505 229.735 37.5569 229.962 32.4378ZM229.247 229.834C213.918 223.723 206.802 253.305 194.281 278.726C194.202 279.795 194.237 280.869 194.385 281.93C194.385 284.594 194.682 302.232 196.234 304.234C196.653 305.035 198.414 304.234 199.234 303.729C206.195 299.427 212.755 294.508 218.836 289.034C218.887 288.975 218.927 288.906 218.951 288.831C218.974 288.756 218.983 288.677 218.975 288.599C222.219 283.984 234.374 259.956 237.321 247.907C239.379 239.376 237.339 233.02 229.247 229.834ZM234.723 251.947C226.516 250.897 218.582 248.31 211.337 244.321C215.417 236.607 220.457 227.814 228.776 231.123C238.036 234.796 237.845 242.405 234.723 251.895V251.947ZM205.704 297.217C205.168 296.769 204.583 296.384 203.96 296.068C201.603 294.872 198.88 294.611 196.339 295.337C196.164 293.265 195.17 279.788 195.17 279.666C208.232 284.437 204.204 282.365 217.144 288.79C215.784 290.079 210.674 293.648 205.704 297.182V297.217ZM214.702 246.828C216.403 247.756 218.149 248.598 219.934 249.353C215.937 255.622 212.405 262.174 209.366 268.958C206.436 275.07 206.541 275.035 203.559 281.704C201.815 281.146 200.071 280.624 198.327 280.102C200.21 276.358 213.604 248.987 214.702 246.793V246.828ZM204.239 281.878C209.907 271.727 215.679 259.103 220.632 249.579C222.376 250.31 224.12 250.902 225.864 251.425C224.939 253.166 222.236 257.797 221.521 259.138C220.806 260.479 213.639 274.582 213.133 275.662C212.331 277.403 210.133 282.261 209.453 283.81C207.674 283.027 205.965 282.435 204.169 281.843L204.239 281.878ZM210.081 284.037C211.145 282.104 215.522 273.99 216.063 272.945C216.882 271.326 226.021 252.678 226.526 251.599C228.131 252.051 229.822 252.434 230.904 252.643C227.712 261.349 218.522 278.117 215.208 286.387C212.191 284.977 211.511 284.629 210.011 284.002L210.081 284.037ZM211.145 244.826L214.266 246.567C207.976 257.263 202.496 268.414 197.873 279.928L195.257 279.127C205.39 257.571 205.861 254.75 211.075 244.791L211.145 244.826ZM218.33 287.902L215.696 286.648C218.539 281.077 227.433 266.782 231.497 252.765C232.473 252.939 233.432 253.096 234.357 253.218C229.875 265.157 224.494 276.74 218.26 287.867L218.33 287.902ZM163.692 299.202C164.387 298.628 164.884 297.85 165.112 296.978C165.341 296.106 165.289 295.185 164.965 294.344C164.817 293.131 164.26 292.004 163.385 291.15C162.51 290.295 161.37 289.763 160.152 289.641C158.934 289.52 157.711 289.816 156.684 290.481C155.657 291.146 154.887 292.14 154.501 293.3C152.269 291.855 149.845 290.322 147.526 288.86C149.27 286.544 154.397 287.571 154.92 289.469C154.932 289.543 154.972 289.609 155.033 289.653C155.093 289.697 155.169 289.716 155.243 289.704C155.317 289.693 155.383 289.652 155.427 289.592C155.471 289.531 155.49 289.456 155.478 289.382C155.216 286.352 148.903 284.576 146.357 288.146C144.108 286.77 141.317 285.099 138.98 283.828C140.986 282.087 145.468 283.062 145.956 284.872C145.979 284.934 146.023 284.986 146.081 285.019C146.139 285.051 146.206 285.062 146.271 285.049C146.336 285.037 146.394 285.002 146.436 284.95C146.477 284.899 146.499 284.834 146.497 284.768C146.27 281.947 140.428 280.049 137.777 283.149C136.666 282.527 135.498 282.014 134.289 281.616C134.068 281.525 133.826 281.499 133.59 281.543C133.355 281.586 133.137 281.696 132.964 281.86C128.552 287.345 113.676 301.588 106.805 303.242C106.632 303.268 106.469 303.339 106.333 303.448C106.196 303.556 106.091 303.699 106.027 303.862C105.963 304.024 105.944 304.2 105.97 304.373C105.996 304.545 106.068 304.708 106.177 304.844C107.686 306.373 109.414 307.669 111.304 308.692C109.56 310.433 108.2 312 107.188 313.132C106.665 313.689 106.386 324.345 106.839 326.695C106.907 326.925 107.056 327.123 107.258 327.253C109.455 328.75 137.76 340.973 140.655 339.336C142.59 338.239 165.698 314.229 166.064 313.497C166.622 312.348 166.43 304.687 166.395 301.622C166.256 300.7 164.529 299.707 163.692 299.202ZM107.886 322.203V318.32C115.123 321.803 131.691 328.907 137.969 330.892C139.573 331.414 139.713 331.344 140.55 330.892C145.346 327.827 162.279 308.779 165.384 305.871V309.545C155.966 318.965 139.974 335.471 139.678 334.531C137.951 334.426 109.386 322.9 107.886 322.203ZM163.256 293.335C163.883 294.389 164.22 295.59 164.233 296.817C164.227 297.207 164.131 297.591 163.952 297.938C163.774 298.285 163.518 298.587 163.204 298.819C161.739 297.844 158.966 296.033 155.687 293.909C157.484 290.375 161.477 290.322 163.186 293.335H163.256ZM107.45 304.478C114.879 302.284 128.988 288.703 133.731 282.818C134.873 283.135 135.973 283.585 137.01 284.159C135.266 287.397 137.132 290.949 137.794 290.444C138.161 290.166 137.498 290.061 137.393 288.355C137.349 287.108 137.631 285.872 138.213 284.768C140.62 286.022 143.445 287.658 145.834 289.034C144.369 292.29 146.131 295.511 146.741 295.041C147.351 294.571 146.462 294.675 146.357 292.969C146.315 291.85 146.529 290.736 146.985 289.713C149.444 291.158 151.955 292.655 154.257 294.066C153.903 294.933 153.762 295.873 153.847 296.807C153.932 297.74 154.24 298.639 154.746 299.429C154.769 299.458 154.797 299.483 154.83 299.502C154.862 299.521 154.898 299.533 154.935 299.538C154.973 299.543 155.01 299.54 155.047 299.53C155.083 299.521 155.117 299.504 155.147 299.481C155.176 299.458 155.201 299.43 155.22 299.397C155.239 299.365 155.251 299.329 155.256 299.291C155.261 299.254 155.258 299.216 155.249 299.18C155.239 299.144 155.222 299.11 155.199 299.08C154.886 298.389 154.731 297.636 154.746 296.877C154.761 296.118 154.946 295.371 155.286 294.693C159.35 297.165 162.628 299.237 163.64 299.916C163.448 300.09 145.259 316.248 139.068 321.054C135.004 319.992 113.676 309.423 107.45 304.478ZM108.113 314.176C116.013 317.659 133.958 325.738 138.091 326.521C138.806 326.66 139.085 326.713 140.445 325.633C146.253 320.984 165.14 301.257 165.314 301.466C165.322 301.518 165.322 301.571 165.314 301.622V305.105C161.425 308.222 139.8 330.892 139.451 329.812C137.707 329.812 109.368 318.268 107.921 317.624C107.886 316.893 108.043 314.942 108.113 314.176ZM139.87 338.17C138.126 339.162 111.566 328.384 108.008 326.19C107.874 325.081 107.81 323.965 107.816 322.847C115.455 326.608 137.672 335.976 139.713 335.889C142.695 335.732 163.779 312.035 165.279 310.381C165.296 311.27 165.209 312.158 165.017 313.027C164.721 313.602 141.021 337.525 139.87 338.17ZM-4.61596 240.02C-4.49388 241.883 -4.40668 243.502 -4.40668 245.017C-4.40668 245.248 -4.31482 245.469 -4.15129 245.633C-3.98776 245.796 -3.76597 245.888 -3.53471 245.888C-3.30345 245.888 -3.08167 245.796 -2.91814 245.633C-2.75461 245.469 -2.66274 245.248 -2.66274 245.017C-2.66274 243.398 -2.74994 241.796 -2.87201 239.898C-2.8882 239.667 -2.9956 239.452 -3.17057 239.3C-3.34554 239.148 -3.57376 239.072 -3.80502 239.088C-4.03629 239.105 -4.25164 239.212 -4.40372 239.386C-4.5558 239.561 -4.63214 239.789 -4.61596 240.02ZM261.109 205.11C260.995 205.116 260.883 205.145 260.781 205.196C260.679 205.246 260.587 205.316 260.513 205.402C260.438 205.488 260.381 205.588 260.346 205.696C260.31 205.805 260.297 205.919 260.306 206.032C260.411 207.634 260.516 209.358 260.516 211.029C260.516 211.26 260.608 211.482 260.771 211.645C260.935 211.808 261.156 211.9 261.388 211.9C261.619 211.9 261.841 211.808 262.004 211.645C262.168 211.482 262.26 211.26 262.26 211.029C262.26 209.288 262.155 207.547 262.033 205.91C262.026 205.797 261.997 205.686 261.947 205.583C261.896 205.481 261.826 205.39 261.74 205.315C261.654 205.241 261.554 205.184 261.445 205.149C261.337 205.113 261.222 205.1 261.109 205.11ZM-9.13277 235.684C-8.90151 235.684 -8.67972 235.593 -8.5162 235.429C-8.35267 235.266 -8.2608 235.045 -8.2608 234.814C-8.2608 234.583 -8.35267 234.362 -8.5162 234.198C-8.67972 234.035 -8.90151 233.943 -9.13277 233.943C-11.2429 233.943 -13.0043 234.1 -14.7483 234.065C-14.9812 234.065 -15.2048 234.156 -15.3711 234.319C-15.5374 234.482 -15.6331 234.703 -15.6377 234.936C-15.6377 235.167 -15.5458 235.388 -15.3823 235.551C-15.2188 235.715 -14.997 235.806 -14.7657 235.806C-12.9694 235.841 -10.9988 235.771 -9.13277 235.684ZM255.702 199.956C253.61 199.956 251.848 200.078 250.087 200.095C249.856 200.095 249.634 200.187 249.47 200.35C249.307 200.513 249.215 200.735 249.215 200.966C249.215 201.196 249.307 201.418 249.47 201.581C249.634 201.744 249.856 201.836 250.087 201.836C251.97 201.836 253.924 201.836 255.807 201.697C256.038 201.683 256.255 201.578 256.408 201.405C256.562 201.232 256.641 201.005 256.627 200.774C256.613 200.543 256.508 200.327 256.334 200.174C256.161 200.02 255.934 199.942 255.702 199.956ZM-5.08682 224.924C-4.98219 226.526 -4.87755 228.25 -4.87755 229.921C-4.87309 230.151 -4.77979 230.37 -4.61721 230.532C-4.45465 230.694 -4.23544 230.787 -4.00558 230.792C-3.77431 230.792 -3.55252 230.7 -3.389 230.537C-3.22547 230.374 -3.13361 230.152 -3.13361 229.921C-3.13361 228.18 -3.23824 226.439 -3.34288 224.802C-3.35907 224.571 -3.46646 224.356 -3.64143 224.204C-3.81641 224.053 -4.04463 223.976 -4.27589 223.993C-4.50715 224.009 -4.72251 224.116 -4.87459 224.291C-5.02667 224.465 -5.10301 224.693 -5.08682 224.924ZM261.789 195.934C261.789 194.192 261.684 192.451 261.562 190.815C261.546 190.584 261.439 190.369 261.264 190.217C261.089 190.065 260.86 189.989 260.629 190.005C260.398 190.021 260.183 190.128 260.03 190.303C259.878 190.478 259.802 190.706 259.818 190.936C259.923 192.538 260.027 194.262 260.027 195.934C260.027 196.164 260.119 196.386 260.283 196.549C260.446 196.712 260.668 196.804 260.899 196.804C261.132 196.804 261.356 196.713 261.522 196.55C261.689 196.387 261.784 196.166 261.789 195.934ZM7.78348 235.458C7.89802 235.454 8.01055 235.427 8.11463 235.379C8.21872 235.331 8.31231 235.263 8.39006 235.179C8.46781 235.095 8.52818 234.996 8.56773 234.889C8.60729 234.781 8.62525 234.667 8.62058 234.553C8.60297 234.325 8.49971 234.112 8.33151 233.957C8.16331 233.802 7.94263 233.716 7.71373 233.717C5.60355 233.804 3.84217 233.874 2.08079 233.839C1.84953 233.839 1.62774 233.931 1.46421 234.094C1.30069 234.257 1.20882 234.478 1.20882 234.709C1.20882 234.94 1.30069 235.162 1.46421 235.325C1.62774 235.488 1.84953 235.58 2.08079 235.58C3.94681 235.615 5.90002 235.545 7.78348 235.458ZM272.619 199.729C270.875 199.816 268.939 199.869 267.003 199.869C266.888 199.864 266.773 199.883 266.666 199.923C266.558 199.964 266.459 200.026 266.376 200.106C266.293 200.186 266.227 200.281 266.182 200.387C266.137 200.493 266.114 200.607 266.114 200.722C266.114 200.954 266.205 201.178 266.368 201.344C266.531 201.51 266.753 201.605 266.986 201.61C268.974 201.61 270.578 201.61 272.689 201.47C272.803 201.466 272.916 201.439 273.02 201.391C273.124 201.343 273.217 201.275 273.295 201.191C273.373 201.107 273.433 201.008 273.473 200.901C273.512 200.794 273.53 200.679 273.526 200.565C273.504 200.339 273.4 200.128 273.232 199.974C273.065 199.82 272.846 199.733 272.619 199.729ZM-32.2923 183.867C-32.0656 184.041 17.1136 176.763 19.2237 175.475C19.3406 175.39 19.4339 175.276 19.4949 175.145C19.5559 175.014 19.5826 174.87 19.5725 174.726C19.5725 172.48 16.6253 151.394 15.2127 146.136C15.0383 145.492 14.8639 144.848 14.4628 144.621C11.7946 143.019 -35.2222 151.865 -38.0299 153.675C-38.106 153.72 -38.1718 153.781 -38.2228 153.853C-38.2739 153.925 -38.3092 154.007 -38.3264 154.093C-38.9193 156.2 -33.8096 182.823 -32.2923 183.867ZM-37.2626 154.511C-33.9142 152.996 8.76009 145.196 13.6431 145.805C14.829 148.852 18.003 171.174 18.2123 174.448C15.7882 175.161 -31.6296 183.293 -31.804 183.327C-31.9784 183.362 -31.9959 183.571 -32.3621 182.474C-33.8968 177.878 -37.3498 158.446 -37.2626 154.511Z" fill="#97ABDF"/>
<path d="M23.0606 177.024C23.1555 176.848 23.1978 176.649 23.1827 176.45C23.1827 173.681 19.2065 142.95 17.7939 140.495C17.6831 140.314 17.5264 140.165 17.3395 140.064C17.1527 139.963 16.9424 139.914 16.7301 139.92C10.8879 139.206 -38.396 148.817 -41.6397 151.064C-42.0931 151.377 -42.0234 152.161 -41.9711 152.996C-41.692 157.576 -36.7392 187.698 -34.9953 187.524C-34.8035 187.524 -34.8732 187.384 -35.3266 188.307C-38.0472 193.896 -43.2093 211.796 -43.1046 215.4C-43.1046 216.915 -42.7558 218.882 -41.2561 218.778C-30.4959 217.454 22.2584 209.097 37.4307 205.98C38.0236 205.858 38.4073 205.318 38.3899 204.43C38.2108 202.951 37.7616 201.517 37.0645 200.199C34.9368 196.212 26.1125 180.42 23.0606 177.024ZM-34.8907 186.984C-36.2509 185.243 -41.2561 155.242 -40.8724 151.917C-37.0357 149.932 11.5854 140.547 16.6778 141.313C18.0729 145.144 21.6829 172.811 21.9096 176.136C15.736 178.261 -27.008 185.156 -34.8907 186.984ZM-34.1233 187.506C-32.6584 187.141 17.2358 178.8 21.8049 177.599C24.2988 179.915 35.5647 199.921 36.2971 201.627C26.2869 203.368 -33.0944 213.276 -41.8316 214.599C-41.7095 209.323 -36.2858 190.884 -34.1233 187.506Z" fill="#97ABDF"/>
<path d="M-27.566 205.562C-26.0488 205.336 6.14442 201.471 17.7765 198.319C17.8482 198.301 17.9096 198.255 17.9472 198.191C17.9848 198.127 17.9956 198.051 17.9771 197.98C17.9586 197.908 17.9124 197.847 17.8486 197.809C17.7848 197.772 17.7087 197.761 17.637 197.779C15.3524 198.249 -12.5158 201.958 -27.6009 205.023C-27.6426 205.015 -27.6854 205.017 -27.7261 205.029C-27.7669 205.04 -27.8045 205.061 -27.8361 205.089C-27.8677 205.117 -27.8924 205.152 -27.9085 205.191C-27.9245 205.23 -27.9315 205.273 -27.9287 205.315C-27.926 205.357 -27.9137 205.398 -27.8927 205.435C-27.8718 205.471 -27.8427 205.503 -27.8078 205.527C-27.7728 205.551 -27.7329 205.566 -27.691 205.572C-27.6491 205.579 -27.6064 205.575 -27.566 205.562ZM-4.04021 84.4119C-4.69168 85.8809 -5.23945 87.3936 -5.67952 88.9389C-5.70546 89.1869 -5.63698 89.4355 -5.48768 89.6354C-3.7263 92.282 14.3235 112.601 19.0322 115.457C19.6774 115.857 20.4448 116.136 20.9156 115.561C24.3361 111.312 28.8001 108.019 33.8731 106.002C38.0021 104.544 42.3311 103.728 46.7085 103.582C50.1964 103.269 50.8068 102.921 52.1497 100.64C53.7337 97.6378 55.8353 94.9383 58.3581 92.665C61.5748 89.8569 65.1453 87.4804 68.9787 85.5959C69.1513 85.4982 69.2862 85.3458 69.362 85.1628C69.4379 84.9799 69.4503 84.7768 69.3973 84.586C68.8077 83.0882 68.0282 81.6721 67.0778 80.3724C67.7056 80.1634 68.4032 79.9719 68.4032 79.3451C68.4032 77.6039 53.196 55.6304 48.9757 51.4864C48.5397 51.0511 47.9119 50.4765 47.3364 50.5113C38.6167 50.9988 30.1236 59.2172 25.2057 66.3908C19.5728 66.1818 15.9279 65.6769 9.51023 68.3757C4.97961 70.2958 0.894882 73.1292 -2.4881 76.6985C-3.01128 77.2383 -6.56893 80.9992 -6.62125 81.2952C-6.67356 81.5912 -6.56893 81.5912 -4.04021 84.4119ZM65.7175 83.9244C58.4453 85.1606 53.8064 91.2024 50.3883 97.7666C48.871 100.692 49.0106 100.831 47.4061 100.796C44.6005 100.638 41.7862 100.743 39.0003 101.11C36.9569 101.415 34.9479 101.916 33.0012 102.607C28.5715 104.174 23.4967 109.189 20.7936 112.915C20.7361 112.991 20.6631 113.055 20.5793 113.102C20.4955 113.148 20.4029 113.176 20.3073 113.185C20.2118 113.193 20.1157 113.181 20.0251 113.149C19.9346 113.118 19.8518 113.068 19.7821 113.002C14.1142 107.169 4.08657 96.9309 -0.95343 91.0457C-1.19758 90.7846 -0.779034 90.4015 -0.534882 90.6801C2.7263 94.1624 11.1495 102.503 20.1832 111.574C23.2351 107.691 27.9437 102.99 32.6001 101.353C35.1392 100.449 37.7812 99.8643 40.4652 99.6123C42.9787 99.4217 45.503 99.4217 48.0165 99.6123C49.0454 98.4283 54.1378 84.9865 65.6827 83.4891C65.7165 83.5138 65.7442 83.5459 65.7639 83.5828C65.7836 83.6198 65.7947 83.6607 65.7964 83.7025C65.798 83.7443 65.7903 83.786 65.7736 83.8244C65.7569 83.8628 65.7318 83.897 65.7001 83.9244H65.7175ZM47.3189 51.9217C50.8068 54.3593 65.0025 75.3404 66.8511 79.0143C63.6434 80.029 60.5467 81.3649 57.6082 83.0015C54.8255 84.3943 52.389 86.3893 50.4763 88.8411C48.5636 91.293 47.2228 94.14 46.5516 97.1747C40.2908 87.0062 31.5537 75.8105 25.7463 67.5748C26.0951 67.3484 35.8961 52.6007 47.3189 51.9217ZM9.8939 69.3334C16.2593 66.7738 19.7821 67.3658 25.0488 67.5922C30.2806 76.507 39.6805 89.0782 45.8715 97.3139C40.1574 95.964 34.1444 96.7897 29.0075 99.6297C25.9207 101.371 22.1538 105.55 19.8344 108.144C16.486 105.463 -2.83689 84.9168 -5.94111 81.4345C-1.1627 76.0369 3.24948 71.9799 9.8939 69.2637V69.3334ZM-22.0203 113.611C-22.4513 113.309 -22.9609 113.139 -23.4871 113.12C-24.0134 113.102 -24.5337 113.236 -24.985 113.507C-25.3136 113.653 -25.6102 113.863 -25.8577 114.123C-26.1052 114.384 -26.2989 114.691 -26.4276 115.027C-26.5564 115.362 -26.6177 115.72 -26.608 116.079C-26.5984 116.438 -26.518 116.792 -26.3714 117.12C-26.2248 117.448 -26.015 117.744 -25.7538 117.991C-25.4926 118.238 -25.1852 118.432 -24.8492 118.56C-24.5132 118.689 -24.1551 118.75 -23.7954 118.74C-23.4357 118.731 -23.0814 118.65 -22.7527 118.504C-22.2277 118.389 -21.75 118.118 -21.3829 117.726C-21.0158 117.334 -20.7767 116.84 -20.6973 116.31C-20.6178 115.779 -20.7018 115.237 -20.9381 114.755C-21.1744 114.273 -21.5518 113.874 -22.0203 113.611ZM-23.1713 117.094C-24.392 117.477 -25.1245 117.094 -25.421 116.502C-25.979 115.265 -25.2814 113.368 -23.4677 113.925C-22.1947 114.395 -21.1657 116.536 -23.1713 117.181V117.094ZM66.6593 33.9354C67.165 34.9627 69.5193 34.5796 70.5483 34.2488C71.0889 34.0747 71.4377 33.8832 71.49 33.3608C71.6469 32.0549 71.8214 20.7373 71.2284 19.6404C71.1671 19.5254 71.0732 19.431 70.9584 19.369C70.8436 19.3071 70.7131 19.2803 70.5831 19.2922C68.7224 19.287 66.8712 19.5569 65.0897 20.0931C64.3747 20.5284 66.0314 32.7862 66.6593 33.9354ZM65.4559 20.511C67.0669 20.2809 68.6962 20.2051 70.3215 20.2846C70.4262 21.5731 70.1472 32.734 70.1297 32.9081C69.3929 33.1717 68.6063 33.2669 67.8277 33.1867C67.7056 32.7862 67.4964 31.7067 67.2348 30.3486C66.4663 27.1034 65.8725 23.8195 65.4559 20.511ZM-23.7119 98.9158C-23.5446 99.0014 -23.3593 99.046 -23.1713 99.046C-22.9833 99.046 -22.798 99.0014 -22.6306 98.9158C-21.9569 98.5009 -21.4225 97.8946 -21.096 97.1747C-21.0516 97.0594 -21.0379 96.9347 -21.0563 96.8126C-21.0746 96.6906 -21.1244 96.5753 -21.2006 96.4782C-22.0377 95.4857 -31.176 84.9168 -32.2921 85.5785C-33.6625 86.4642 -34.9626 87.4538 -36.1811 88.5385C-36.2302 88.5823 -36.2695 88.636 -36.2966 88.6959C-36.3236 88.7559 -36.3377 88.8209 -36.338 88.8867C-36.3729 89.7921 -26.2232 97.9059 -23.7119 98.9158ZM-32.0828 86.0312C-30.8097 86.954 -26.5196 92.2471 -22.5435 96.9309C-22.7145 97.1998 -22.9263 97.4406 -23.1713 97.6448C-27.3517 94.9734 -31.3432 92.0181 -35.1173 88.7996C-34.1712 87.8078 -33.1572 86.8828 -32.0828 86.0312ZM-4.68547 47.621C-4.3018 40.8652 -0.360485 37.7311 3.75522 36.9302C2.58678 41.2135 2.77861 46.7852 7.01639 47.4991C9.03937 47.8299 10.0334 46.7852 11.4983 45.5664C17.7591 40.3429 12.7016 35.1194 5.63868 35.485C8.27203 28.2766 14.3584 22.4089 22.4329 22.2173C22.5069 22.2173 22.5778 22.188 22.6302 22.1357C22.6825 22.0835 22.7119 22.0126 22.7119 21.9387C22.7119 21.8649 22.6825 21.794 22.6302 21.7417C22.5778 21.6895 22.5069 21.6602 22.4329 21.6602C13.7131 21.486 6.85944 27.7542 4.15633 35.5895C-0.500004 36.3904 -5.12146 39.8728 -5.24353 47.5165C-5.2504 47.5531 -5.24999 47.5907 -5.24231 47.6271C-5.23464 47.6635 -5.21985 47.6981 -5.1988 47.7288C-5.17775 47.7595 -5.15084 47.7858 -5.11962 47.8061C-5.08839 47.8265 -5.05346 47.8405 -5.01682 47.8473C-4.98018 47.8542 -4.94254 47.8538 -4.90606 47.8461C-4.86957 47.8385 -4.83496 47.8237 -4.80419 47.8027C-4.77342 47.7817 -4.7471 47.7548 -4.72673 47.7236C-4.70636 47.6924 -4.69234 47.6576 -4.68547 47.621ZM5.23757 36.7213C7.83604 36.5471 11.7076 37.3481 12.7714 39.6987C13.3818 41.0394 12.7714 42.6935 10.6089 44.5043C10.0218 45.0915 9.35208 45.5901 8.62082 45.9843C6.00491 47.0986 3.10996 43.8775 5.23757 36.7213ZM10.2253 282.975C8.54036 282.524 6.78223 282.415 5.0543 282.653C3.32637 282.89 1.66355 283.471 0.1637 284.36C-1.33615 285.249 -2.64274 286.429 -3.67917 287.829C-4.71561 289.23 -5.46095 290.824 -5.87135 292.516C-6.64607 296.033 -5.98992 299.713 -4.04722 302.746C-2.10453 305.78 0.965565 307.918 4.48767 308.692C8.00978 309.465 11.6954 308.81 14.7337 306.871C17.772 304.931 19.9142 301.866 20.6889 298.349C21.0198 296.653 21.0113 294.909 20.6637 293.216C20.3161 291.523 19.6363 289.916 18.6637 288.487C17.691 287.057 16.4445 285.835 14.9963 284.889C13.548 283.943 11.9265 283.292 10.2253 282.975ZM15.614 297.165C14.9143 299.952 13.2391 302.396 10.8914 304.057C8.54372 305.717 5.67839 306.484 2.81349 306.219C0.183605 305.193 -1.99965 303.274 -3.35214 300.8C-4.70463 298.325 -5.13971 295.454 -4.58083 292.691C-3.92827 289.837 -2.26868 287.312 0.0945244 285.58C2.45773 283.847 5.36666 283.021 8.28947 283.253C10.9453 284.349 13.129 286.345 14.456 288.889C15.7831 291.434 16.1684 294.365 15.5443 297.165H15.614Z" fill="#97ABDF"/>
<path d="M33.4544 287.937C31.9362 287.414 30.3091 287.288 28.7283 287.571C28.0731 286.071 27.2667 284.642 26.3217 283.305C27.4552 282.278 30.5594 279.422 29.8095 278.082C27.1408 274.895 23.9722 272.16 20.4271 269.985C18.9468 269.157 17.3168 268.631 15.6313 268.436C14.5152 268.592 11.8644 272.928 11.2714 273.903C10.8878 273.903 9.52748 273.468 9.42284 273.415C9.42284 272.162 9.05662 267.635 7.92305 267.112C6.65545 266.646 5.33912 266.325 3.99918 266.155C2.76098 265.963 -8.38282 268 -9.20247 269.498C-9.7431 270.508 -8.48746 274.321 -8.12123 275.383C-9.06177 275.9 -9.96501 276.482 -10.8243 277.124C-12.5683 278.36 -12.0974 278.308 -12.4113 278.169C-12.7907 277.988 -13.1972 277.87 -13.6147 277.821C-15.0078 277.005 -16.6411 276.697 -18.2361 276.95C-19.8405 277.472 -23.6249 286.074 -24.2353 288.285C-24.435 288.843 -24.489 289.442 -24.3922 290.026C-23.9737 291.175 -21.1834 292.098 -20.0149 292.464C-20.3376 294.704 -20.3376 296.979 -20.0149 299.22C-21.5496 299.637 -24.741 300.578 -24.5666 302.145C-24.3922 303.712 -20.3114 314.054 -18.6198 314.873C-17.6931 315.39 -16.6683 315.708 -15.6112 315.807C-14.5541 315.906 -13.4879 315.784 -12.4811 315.447C-11.914 315.165 -11.3664 314.845 -10.8418 314.49C-10.1442 315.012 -9.41175 315.482 -8.66185 315.935C-9.20247 317.275 -10.4058 320.27 -10.0221 321.628C-9.83029 322.342 -9.25479 322.569 -8.45258 322.865C-6.23777 323.666 5.6908 326.521 7.5045 326.208C8.18464 326.103 8.55087 325.389 8.76014 324.71C9.14762 323.165 9.37553 321.584 9.44028 319.992C10.3359 319.903 11.2265 319.77 12.1085 319.591C12.6472 320.538 13.3363 321.39 14.1489 322.116C15.0383 322.743 15.7882 322.429 16.7997 321.785C17.288 322.412 18.0205 323.283 18.8053 323.37C20.7759 323.596 28.9201 315.935 29.7572 314.368C30.4548 313.062 27.9086 310.729 26.7751 309.701C28.0014 307.859 28.964 305.855 29.6352 303.747C30.893 303.936 32.1659 304.006 33.437 303.956C34.0125 303.956 34.6751 303.747 34.9193 303.207C35.9831 300.787 35.6692 291.611 34.9193 289.277C34.8147 288.598 34.0299 288.146 33.4544 287.937ZM33.8729 289.539C34.4659 291.802 34.6577 300.351 33.7857 302.563C32.2779 302.711 30.7565 302.641 29.2689 302.354C29.1101 302.327 28.9468 302.36 28.8113 302.447C28.6758 302.534 28.5777 302.668 28.5365 302.824C27.842 305.178 26.7637 307.401 25.345 309.405C25.244 309.538 25.1984 309.705 25.218 309.87C25.2375 310.036 25.3205 310.188 25.4497 310.293C26.6733 311.261 27.7129 312.441 28.519 313.776C27.6471 315.203 20.8282 321.437 18.9448 321.959C18.6657 321.959 17.8984 320.915 17.7066 320.636C17.0624 319.669 16.4799 318.663 15.9626 317.624C15.8871 317.472 15.7576 317.354 15.5996 317.293C15.4415 317.232 15.2662 317.232 15.1081 317.293C10.0507 319.191 8.13232 318.076 8.13232 319.33C8.13459 321.207 7.82823 323.072 7.22547 324.85C3.12712 324.405 -0.908838 323.505 -4.80774 322.168C-4.61944 320.309 -4.0997 318.499 -3.27307 316.823C-2.74988 315.656 -4.84261 315.987 -8.74905 312.017C-8.87478 311.901 -9.03983 311.836 -9.21119 311.836C-9.38256 311.836 -9.54761 311.901 -9.67334 312.017C-11.4173 313.445 -13.6844 314.838 -14.1378 314.611C-15.0272 314.176 -19.1255 304.896 -19.3697 303.015C-18.1293 302.152 -16.7212 301.559 -15.2365 301.274C-15.0782 301.229 -14.9415 301.129 -14.8517 300.991C-14.7619 300.854 -14.7251 300.688 -14.7482 300.525C-15.1756 298.06 -15.1756 295.539 -14.7482 293.073C-14.7216 292.921 -14.7535 292.765 -14.8377 292.636C-14.9218 292.507 -15.0519 292.414 -15.2016 292.377C-16.5164 292.033 -17.7821 291.524 -18.9686 290.862C-19.3522 290.583 -19.3173 290.601 -19.2825 290.305C-18.1537 286.24 -16.3434 282.396 -13.9286 278.935C-12.9868 278.674 -10.4407 280.537 -9.5687 281.198C-9.47758 281.287 -9.35561 281.336 -9.22863 281.336C-9.10166 281.336 -8.97968 281.287 -8.88856 281.198C-8.08725 280.369 -7.22446 279.6 -6.30753 278.9C-3.65673 276.898 -2.94172 277.159 -3.16843 276.462C-3.97013 274.715 -4.42045 272.828 -4.49383 270.908C-4.22354 270.684 -3.91684 270.507 -3.58698 270.386C-1.95885 269.743 -0.286066 269.219 1.41814 268.819C3.48385 268.244 5.60697 267.899 7.74866 267.791C8.11489 267.948 8.44623 269.533 8.53343 270.02C9.17869 273.502 8.7427 274.216 9.24845 274.269C14.2187 274.756 15.2302 276.132 15.579 275.522C16.546 273.834 17.6731 272.242 18.9448 270.769C19.311 270.403 19.2936 270.229 20.3923 270.856C23.6745 272.997 26.6142 275.621 29.112 278.639C29.3736 279.092 27.1064 281.494 25.4497 282.905C24.8742 283.41 25.6938 283.636 27.1936 286.492C28.6934 289.347 28.3446 290.148 29.1468 289.974C30.6933 289.604 32.2848 289.458 33.8729 289.539ZM255.915 164.047C252.259 162.556 248.425 161.543 244.509 161.034C241.649 160.582 238.284 160.129 235.441 159.763C238.179 155.898 246.288 146.113 247.649 143.727C248.032 143.083 247.3 142.178 246.759 141.638C243.725 138.399 237.865 137.18 233.366 136.484C230.785 136.066 220.007 134.743 218.176 135.613C215.979 136.658 199.725 161.034 199.237 164.743C199.237 165.37 199.446 165.614 200.056 165.84C202.62 166.78 214.182 168.243 216.763 168.852C213.275 174.946 197.772 195.544 196.255 198.452C195.888 199.183 196.115 199.619 196.551 199.758C198.12 200.38 199.735 200.881 201.382 201.255C202.01 201.447 203.387 200.594 205.393 199.375C214.392 193.977 253.003 168.521 255.967 165.231C256.049 165.153 256.113 165.059 256.156 164.955C256.198 164.851 256.217 164.739 256.212 164.627C256.207 164.514 256.178 164.404 256.127 164.304C256.075 164.204 256.003 164.116 255.915 164.047ZM218.438 184.941C203.614 194.709 198.609 197.564 198.434 197.686C200.824 194.047 215.665 173.745 218.211 168.887C218.255 168.793 218.278 168.691 218.277 168.587C218.277 168.483 218.253 168.381 218.208 168.287C218.163 168.194 218.098 168.112 218.017 168.047C217.936 167.982 217.841 167.936 217.74 167.912C215.996 167.285 203.3 165.927 200.301 164.865C200.684 161.626 216.519 137.146 218.438 136.17C220.356 135.195 238.964 137.407 242.452 139.897C240.62 143.466 230.506 155.968 228.866 158.875C228.535 159.467 228.43 160.042 229.076 160.199C229.721 160.355 246.114 162.271 249.689 163.437C245.329 167.076 223.321 181.667 218.438 184.871V184.941ZM126.564 58.4856C126.564 58.6423 126.668 58.8338 126.93 59.8437C126.998 60.0627 127.149 60.2468 127.351 60.3571C127.553 60.4675 127.789 60.4956 128.011 60.4357C128.233 60.371 128.42 60.221 128.531 60.0185C128.643 59.8161 128.669 59.5778 128.604 59.3561C128.43 58.6771 128.273 58.1025 128.168 57.8239C128.066 57.6327 127.897 57.4862 127.693 57.4128C127.489 57.3395 127.265 57.3446 127.065 57.4273C126.864 57.5099 126.702 57.6641 126.609 57.8597C126.517 58.0554 126.5 58.2785 126.564 58.4856Z" fill="#97ABDF"/>
</g>
<defs>
<clipPath id="clip0_221_1850">
<rect width="291" height="327" rx="20" fill="white"/>
</clipPath>
</defs>
</svg>
