<svg width="12" height="11" viewBox="0 0 12 11" fill="none" xmlns="http://www.w3.org/2000/svg">
<path d="M2.28015 0.219846C2.13798 0.0873663 1.94993 0.0152433 1.75563 0.0186715C1.56133 0.0220998 1.37594 0.100812 1.23853 0.238225C1.10112 0.375638 1.02241 0.561023 1.01898 0.755324C1.01555 0.949625 1.08767 1.13767 1.22015 1.27985L4.94015 4.99985L1.22015 8.71985C1.14647 8.78851 1.08736 8.87131 1.04637 8.96331C1.00538 9.05531 0.983339 9.15462 0.981562 9.25532C0.979785 9.35603 0.99831 9.45606 1.03603 9.54944C1.07375 9.64283 1.1299 9.72767 1.20112 9.79888C1.27233 9.8701 1.35717 9.92625 1.45056 9.96397C1.54394 10.0017 1.64397 10.0202 1.74468 10.0184C1.84538 10.0167 1.94469 9.99462 2.03669 9.95363C2.12869 9.91264 2.21149 9.85353 2.28015 9.77985L6.00015 6.05985L9.72015 9.77985C9.78882 9.85353 9.87162 9.91264 9.96362 9.95363C10.0556 9.99462 10.1549 10.0167 10.2556 10.0184C10.3563 10.0202 10.4564 10.0017 10.5498 9.96397C10.6431 9.92625 10.728 9.8701 10.7992 9.79888C10.8704 9.72767 10.9266 9.64283 10.9643 9.54944C11.002 9.45606 11.0205 9.35603 11.0187 9.25532C11.017 9.15462 10.9949 9.05531 10.9539 8.96331C10.9129 8.87131 10.8538 8.78851 10.7802 8.71985L7.06015 4.99985L10.7802 1.27985C10.9126 1.13767 10.9848 0.949625 10.9813 0.755324C10.9779 0.561023 10.8992 0.375638 10.7618 0.238225C10.6244 0.100812 10.439 0.0220998 10.2447 0.0186715C10.0504 0.0152433 9.86233 0.0873663 9.72015 0.219846L6.00015 3.93985L2.28015 0.219846Z" fill="#A0AEC0"/>
</svg>
