<?xml version="1.0" encoding="UTF-8"?>
<!DOCTYPE svg PUBLIC "-//W3C//DTD SVG 1.1//EN" "http://www.w3.org/Graphics/SVG/1.1/DTD/svg11.dtd">
<!-- Creator: CorelDRAW -->
<svg xmlns="http://www.w3.org/2000/svg" xml:space="preserve" width="512px" height="512px" version="1.1" style="shape-rendering:geometricPrecision; text-rendering:geometricPrecision; image-rendering:optimizeQuality; fill-rule:evenodd; clip-rule:evenodd"
viewBox="0 0 512 512"
 xmlns:xlink="http://www.w3.org/1999/xlink">
 <defs>
  <style type="text/css">
   <![CDATA[
    .fil0 {fill:black}
   ]]>
  </style>
 </defs>
 <g id="Layer_x0020_1">
  <metadata id="CorelCorpID_0Corel-Layer"/>
  <g id="_358827744">
   <g>
    <g id="_358828248">
     <path class="fil0" d="M327 487l-142 0c-4,0 -7,-3 -7,-7l0 -226c0,-4 3,-7 7,-7 4,0 7,3 7,7l0 219 128 0 0 -219c0,-4 3,-7 7,-7 4,0 7,3 7,7l0 226c0,4 -3,7 -7,7z"/>
    </g>
    <g id="_358828344">
     <path class="fil0" d="M462 487l-135 0c-4,0 -7,-3 -7,-7 0,-4 3,-7 7,-7l128 0 0 -152c0,-4 4,-7 7,-7 4,0 7,3 7,7l0 159c0,4 -3,7 -7,7z"/>
    </g>
    <g id="_358828272">
     <path class="fil0" d="M185 487l-135 0c-4,0 -7,-3 -7,-7l0 -159c0,-4 3,-7 7,-7 3,0 7,3 7,7l0 152 128 0c4,0 7,3 7,7 0,4 -3,7 -7,7z"/>
    </g>
    <g id="_358828560">
     <path class="fil0" d="M345 261l-178 0c-4,0 -7,-3 -7,-7l0 -31c0,-4 3,-7 7,-7l178 0c4,0 7,3 7,7l0 31c0,4 -3,7 -7,7zm-171 -14l164 0 0 -17 -164 0 0 17z"/>
    </g>
    <g id="_358828584">
     <path class="fil0" d="M185 328l-148 0c-4,0 -7,-3 -7,-7l0 -31c0,-4 3,-7 7,-7l148 0c4,0 7,3 7,7l0 31c0,4 -3,7 -7,7zm-141 -14l134 0 0 -17 -134 0 0 17z"/>
    </g>
    <g id="_358828608">
     <path class="fil0" d="M475 328l-148 0c-4,0 -7,-3 -7,-7l0 -31c0,-4 3,-7 7,-7l148 0c4,0 7,3 7,7l0 31c0,4 -3,7 -7,7zm-141 -14l134 0 0 -17 -134 0 0 17z"/>
    </g>
    <g>
     <g id="_358828680">
      <path class="fil0" d="M162 395l-90 0c-4,0 -7,-4 -7,-7 0,-4 3,-7 7,-7l90 0c4,0 7,3 7,7 0,3 -3,7 -7,7z"/>
     </g>
     <g id="_358828824">
      <path class="fil0" d="M146 421l-58 0c-4,0 -7,-3 -7,-7 0,-4 3,-7 7,-7l58 0c4,0 7,3 7,7 0,4 -3,7 -7,7z"/>
     </g>
    </g>
    <g>
     <g id="_358828944">
      <path class="fil0" d="M301 361l-90 0c-4,0 -7,-3 -7,-7 0,-4 3,-7 7,-7l90 0c4,0 7,3 7,7 0,4 -3,7 -7,7z"/>
     </g>
     <g id="_358829016">
      <path class="fil0" d="M285 387l-58 0c-4,0 -7,-3 -7,-7 0,-4 3,-7 7,-7l58 0c4,0 7,3 7,7 0,4 -3,7 -7,7z"/>
     </g>
    </g>
    <g>
     <g id="_358829112">
      <path class="fil0" d="M440 395l-90 0c-4,0 -7,-4 -7,-7 0,-4 3,-7 7,-7l90 0c4,0 7,3 7,7 0,3 -3,7 -7,7z"/>
     </g>
     <g id="_358829184">
      <path class="fil0" d="M424 421l-58 0c-4,0 -7,-3 -7,-7 0,-4 3,-7 7,-7l58 0c4,0 7,3 7,7 0,4 -3,7 -7,7z"/>
     </g>
    </g>
    <g id="_358829256">
     <path class="fil0" d="M25 249c-1,0 -3,-1 -4,-2 -2,-1 -3,-4 -3,-7l6 -28 -22 -20c-2,-2 -2,-5 -2,-8 1,-2 4,-4 6,-5l29 -3 13 -27c1,-2 3,-4 6,-4 3,0 5,2 6,4l13 27 29 3c3,1 5,3 6,5 1,3 0,6 -2,8l-22 20 6 28c0,3 -1,6 -3,7 -2,2 -5,2 -7,1l-26 -14 -26 14c-1,0 -2,1 -3,1zm-2 -57l13 12c2,2 3,4 2,6l-3 18 16 -8c2,-2 4,-2 6,0l16 8 -3 -18c0,-2 0,-4 2,-6l13 -12 -18 -3c-2,0 -4,-2 -5,-4l-8 -16 -8 16c-1,2 -3,4 -5,4l-18 3z"/>
    </g>
    <g id="_358829328">
     <path class="fil0" d="M429 249c-2,0 -3,-1 -4,-2 -2,-1 -3,-4 -3,-7l6 -28 -22 -20c-2,-2 -3,-5 -2,-8 1,-2 3,-4 6,-5l29 -3 13 -27c1,-2 3,-4 6,-4l0 0c3,0 5,2 6,4l13 27 29 3c2,1 5,3 6,5 0,3 0,6 -2,8l-22 20 6 28c0,3 -1,6 -3,7 -2,2 -5,2 -7,1l-26 -14 -26 14c-1,0 -2,1 -3,1zm-2 -57l13 12c2,2 2,4 2,6l-3 18 16 -8c2,-2 4,-2 6,0l16 8 -3 -18c-1,-2 0,-4 2,-6l13 -12 -18 -3c-2,0 -4,-2 -5,-4l-8 -16 -8 16c-1,2 -3,4 -5,4l-18 3z"/>
    </g>
    <g id="_358829400">
     <path class="fil0" d="M212 174c-1,0 -3,-1 -4,-2 -2,-1 -3,-4 -3,-7l9 -45 -34 -32c-2,-1 -2,-4 -2,-7 1,-2 3,-4 6,-5l46 -5 20 -42c1,-3 3,-4 6,-4l0 0c3,0 5,1 6,4l20 42 46 5c3,1 5,3 6,5 0,3 0,6 -2,7l-34 32 9 45c0,3 -1,6 -3,7 -2,2 -5,2 -8,1l-40 -22 -40 22c-2,1 -3,1 -4,1zm-11 -86l25 25c2,1 3,4 2,6l-6 34 31 -16c2,-2 4,-2 6,0l31 16 -6 -34c-1,-2 0,-5 2,-6l25 -25 -35 -4c-2,0 -4,-2 -5,-4l-15 -32 -15 32c-1,2 -3,4 -5,4l-35 4z"/>
    </g>
    <g id="_358829472">
     <path class="fil0" d="M309 194l-106 0c-3,0 -7,-4 -7,-7 0,-4 4,-7 7,-7l106 0c3,0 7,3 7,7 0,3 -4,7 -7,7z"/>
    </g>
   </g>
  </g>
 </g>
</svg>
